<?xml version="1.0" encoding="UTF-8" standalone="no"?>
<svg width="35px" height="46px" viewBox="0 0 35 46" version="1.1" xmlns="http://www.w3.org/2000/svg" xmlns:xlink="http://www.w3.org/1999/xlink">
    <!-- Generator: Sketch 3.7 (28169) - http://www.bohemiancoding.com/sketch -->
    <title>Page 1</title>
    <desc>Created with Sketch.</desc>
    <defs></defs>
    <g id="Page-1" stroke="none" stroke-width="1" fill="none" fill-rule="evenodd">
        <g id="Microsite" transform="translate(-326.000000, -1621.000000)" fill="#FFFFFF">
            <path d="M333.64098,1656.69756 L335.586421,1656.69756 L335.586421,1654.71196 L333.64098,1654.71196 L333.64098,1656.69756 Z M332.69566,1658.5934 L336.532213,1658.5934 C337.054714,1658.5934 337.477533,1658.16916 337.477533,1657.64524 L337.477533,1653.76381 C337.477533,1653.24036 337.054714,1652.81613 336.532213,1652.81613 L332.69566,1652.81613 C332.172687,1652.81613 331.749868,1653.24036 331.749868,1653.76381 L331.749868,1657.64524 C331.749868,1658.16916 332.172687,1658.5934 332.69566,1658.5934 L332.69566,1658.5934 Z M333.64098,1649.11327 L335.586421,1649.11327 L335.586421,1647.12767 L333.64098,1647.12767 L333.64098,1649.11327 Z M332.69566,1651.00911 L336.532213,1651.00911 C337.054714,1651.00911 337.477533,1650.58534 337.477533,1650.06142 L337.477533,1646.17952 C337.477533,1645.65655 337.054714,1645.23231 336.532213,1645.23231 L332.69566,1645.23231 C332.172687,1645.23231 331.749868,1645.65655 331.749868,1646.17952 L331.749868,1650.06142 C331.749868,1650.58534 332.172687,1651.00911 332.69566,1651.00911 L332.69566,1651.00911 Z M353.417107,1654.8192 L340.554428,1654.8192 C340.031455,1654.8192 339.608636,1655.24344 339.608636,1655.76689 C339.608636,1656.29128 340.031455,1656.71551 340.554428,1656.71551 L353.417107,1656.71551 C353.939607,1656.71551 354.362899,1656.29128 354.362899,1655.76689 C354.362899,1655.24344 353.939607,1654.8192 353.417107,1654.8192 L353.417107,1654.8192 Z M353.417107,1647.23539 L340.554428,1647.23539 C340.031455,1647.23539 339.608636,1647.65915 339.608636,1648.18307 C339.608636,1648.70746 340.031455,1649.13122 340.554428,1649.13122 L353.417107,1649.13122 C353.939607,1649.13122 354.362899,1648.70746 354.362899,1648.18307 C354.362899,1647.65915 353.939607,1647.23539 353.417107,1647.23539 L353.417107,1647.23539 Z M333.64098,1641.52898 L335.586421,1641.52898 L335.586421,1639.54386 L333.64098,1639.54386 L333.64098,1641.52898 Z M332.69566,1643.42529 L336.532213,1643.42529 C337.054714,1643.42529 337.477533,1643.00105 337.477533,1642.47761 L337.477533,1638.5957 C337.477533,1638.07226 337.054714,1637.64849 336.532213,1637.64849 L332.69566,1637.64849 C332.172687,1637.64849 331.749868,1638.07226 331.749868,1638.5957 L331.749868,1642.47761 C331.749868,1643.00105 332.172687,1643.42529 332.69566,1643.42529 L332.69566,1643.42529 Z M339.608636,1640.59878 C339.608636,1641.12317 340.031455,1641.54741 340.554428,1641.54741 L353.417107,1641.54741 C353.939607,1641.54741 354.362899,1641.12317 354.362899,1640.59878 C354.362899,1640.07533 353.939607,1639.6511 353.417107,1639.6511 L340.554428,1639.6511 C340.031455,1639.6511 339.608636,1640.07533 339.608636,1640.59878 L339.608636,1640.59878 Z M343.006307,1626.06325 C343.269919,1626.06325 343.514635,1625.95034 343.684235,1625.78074 C343.853835,1625.61067 343.966744,1625.36548 343.966744,1625.12029 C343.966744,1624.8751 343.853835,1624.62991 343.684235,1624.44142 C343.326138,1624.10222 342.705845,1624.10222 342.347276,1624.44142 C342.178148,1624.61149 342.084608,1624.85621 342.084608,1625.12029 C342.084608,1625.36548 342.178148,1625.61067 342.347276,1625.78074 C342.517348,1625.95034 342.762064,1626.06325 343.006307,1626.06325 L343.006307,1626.06325 Z M359.089025,1626.62024 L355.267118,1626.62024 C354.74698,1626.62024 354.32605,1627.04211 354.32605,1627.56272 C354.32605,1628.08428 354.74698,1628.50568 355.267118,1628.50568 L358.147957,1628.50568 L358.147957,1664.47554 L327.882136,1664.47554 L327.882136,1628.50568 L330.725654,1628.50568 C331.24532,1628.50568 331.666249,1628.08428 331.666249,1627.56272 C331.666249,1627.04211 331.24532,1626.62024 330.725654,1626.62024 L326.941068,1626.62024 C326.420929,1626.62024 326,1627.04211 326,1627.56272 L326,1665.4185 C326,1665.93911 326.420929,1666.36099 326.941068,1666.36099 L359.089025,1666.36099 C359.608691,1666.36099 360.030093,1665.93911 360.030093,1665.4185 L360.030093,1627.56272 C360.030093,1627.04211 359.608691,1626.62024 359.089025,1626.62024 L359.089025,1626.62024 Z M337.165733,1626.78889 L339.551,1626.78889 C340.071139,1626.78889 340.492068,1626.36702 340.492068,1625.84641 L340.492068,1624.59212 C340.492068,1623.65105 341.311723,1622.88525 342.31893,1622.88525 L343.711163,1622.88525 C344.717898,1622.88525 345.53708,1623.65105 345.53708,1624.59212 L345.53708,1625.84641 C345.53708,1626.36702 345.95801,1626.78889 346.478148,1626.78889 L348.77082,1626.78889 C350.120062,1626.78889 350.598627,1627.76114 350.598627,1628.59402 C350.598627,1629.07306 350.433752,1629.53036 350.148408,1629.84972 C349.823853,1630.21113 349.360877,1630.39396 348.77082,1630.39396 L337.165733,1630.39396 C336.576621,1630.39396 336.115063,1630.21302 335.793342,1629.85445 C335.510361,1629.5384 335.347374,1629.0844 335.347374,1628.60678 C335.347374,1627.93168 335.730038,1626.78889 337.165733,1626.78889 L337.165733,1626.78889 Z M337.165733,1632.2794 L348.77082,1632.2794 C350.198957,1632.2794 351.069161,1631.64304 351.547727,1631.11062 C352.150067,1630.43931 352.480763,1629.54595 352.480763,1628.59402 C352.480763,1626.76007 351.206164,1624.90298 348.77082,1624.90298 L347.419216,1624.90298 L347.419216,1624.59212 C347.419216,1622.61125 345.755812,1620.99981 343.711163,1620.99981 L342.31893,1620.99981 C340.274281,1620.99981 338.609932,1622.61125 338.609932,1624.59212 L338.609932,1624.90298 L337.165733,1624.90298 C334.736531,1624.90298 333.465711,1626.76716 333.465711,1628.60678 C333.465711,1630.43175 334.736531,1632.2794 337.165733,1632.2794 L337.165733,1632.2794 Z" id="Page-1"></path>
        </g>
    </g>
</svg>