<?xml version="1.0" encoding="UTF-8" standalone="no"?>
<svg width="71px" height="73px" viewBox="0 0 71 73" version="1.1" xmlns="http://www.w3.org/2000/svg" xmlns:xlink="http://www.w3.org/1999/xlink">
    <!-- Generator: Sketch 3.7 (28169) - http://www.bohemiancoding.com/sketch -->
    <title>cloud rain icon</title>
    <desc>Created with Sketch.</desc>
    <defs></defs>
    <g id="Page-1" stroke="none" stroke-width="1" fill="#fff" fill-rule="evenodd">
        <g id="Microsite" transform="translate(-159.000000, -659.000000)">
            <g id="Group-5" transform="translate(130.000000, 631.000000)">
                <path d="M68.012642,88.131041 C67.2809903,87.7302903 66.3623111,87.9989584 65.9605759,88.7359193 L64.5137309,91.3963332 C64.1157364,92.1310427 64.3873003,93.0511182 65.1197001,93.4503679 C65.34937,93.5756963 65.5977425,93.6357338 65.8431226,93.6357338 C66.3772733,93.6357338 66.8964617,93.3490545 67.1717662,92.8454896 L68.6178631,90.1850757 C69.0166058,89.4503661 68.7450418,88.5302907 68.012642,88.131041 M74.1628554,76.8229685 C73.4304556,76.4229683 72.5125244,76.6946382 72.1107893,77.4278468 L69.6517513,81.9509257 C69.2530086,82.6863857 69.5245726,83.6064611 70.2569724,84.0057108 C70.4873903,84.1310392 70.7350148,84.1903263 70.9803949,84.1903263 C71.5145455,84.1903263 72.0344821,83.9051479 72.3090385,83.4008325 L74.7680765,78.8777536 C75.1668192,78.1422936 74.8952552,77.2222182 74.1628554,76.8229685 M50.9946328,94.8537456 C50.2652254,94.4552464 49.3435537,94.7239144 48.9418186,95.4586239 L47.4949736,98.1190379 C47.096979,98.8537474 47.368543,99.7738228 48.1009428,100.172322 C48.3306126,100.298401 48.5789852,100.357688 48.8243653,100.357688 C49.3585159,100.357688 49.8784525,100.07251 50.1530089,99.5674438 L51.5991058,96.9077803 C51.9985966,96.1723203 51.7262845,95.2522449 50.9946328,94.8537456 M59.4235896,79.3445456 C58.6911898,78.9437949 57.7702662,79.212463 57.3715235,79.9494239 L53.9997912,86.1535542 C53.6010485,86.8890142 53.8733606,87.8083392 54.6057604,88.2083393 C54.8354302,88.3344182 55.0838028,88.3929548 55.3284348,88.3929548 C55.8633335,88.3929548 56.3825219,88.1077764 56.6570784,87.603461 L60.0288107,81.3985802 C60.4275534,80.6638707 60.1559894,79.7437953 59.4235896,79.3445456 M41.3335386,88.1167821 C40.6041312,87.7242866 39.6802152,87.9959565 39.2874574,88.7374202 L37.8615595,91.4068398 C37.4658092,92.1430503 37.74261,93.0616248 38.4780022,93.4563717 C38.7054277,93.5771972 38.9508078,93.6357338 39.1924474,93.6357338 C39.7303386,93.6357338 40.2525194,93.3453022 40.5240834,92.834983 L41.9499813,90.1655635 C42.3464797,89.429353 42.0689308,88.5107785 41.3335386,88.1167821 M47.3864976,76.8034563 C46.6540978,76.4124617 45.7324261,76.6871335 45.3404164,77.423344 L42.9187839,81.9486743 C42.5230337,82.6863857 42.8005825,83.6034593 43.5359748,83.9997071 C43.7634003,84.1205327 44.0087804,84.1783188 44.25042,84.1783188 C44.7883112,84.1783188 45.310492,83.8886376 45.582056,83.3798194 L48.0036885,78.8544891 C48.3986906,78.1167777 48.1211418,77.1997041 47.3864976,76.8034563 M84.6595886,67.0481049 L44.0349643,67.0481049 C37.8316351,67.0481049 33.9018126,62.9182719 32.7616927,58.825212 C31.4629735,54.1550411 33.5322462,49.6424687 38.3014482,46.7524112 C38.6792438,46.5250189 38.9358456,46.1437805 39.0099085,45.7092587 C40.4006453,37.4143207 47.3917344,31.3940554 55.6299232,31.3940554 C59.521592,31.3940554 63.2180042,32.7516545 66.321165,35.3190103 C66.6398599,35.5831755 67.0535648,35.7062525 67.4665216,35.6537196 C75.586509,34.6473402 80.2367615,39.4931209 81.6424605,43.9681698 C81.8549237,44.6518474 82.4601448,45.1006281 83.2277058,45.0210783 C90.626515,44.3366502 96.97797,49.6169528 96.97797,56.0019462 C96.97797,61.9899413 91.3357234,67.0481049 84.6595886,67.0481049 M84.5885181,41.9276436 C84.4351556,41.9276436 84.2788006,41.9306454 84.1224455,41.9336473 C81.6035587,35.655971 75.3299072,31.893868 67.7440705,32.5782961 C64.195036,29.8203212 60.0228258,28.3659115 55.6299232,28.3659115 C46.1341613,28.3659115 38.0500832,35.1223873 36.1521278,44.5302713 C30.6535184,48.1392786 28.2446038,53.8728646 29.8507962,59.6387208 C31.5632203,65.7850649 37.3947388,70.0762488 44.0349643,70.0762488 L49.2709871,70.0762488 L48.971743,70.6375999 C48.5759927,71.3760618 48.8535416,72.2923849 49.5919263,72.6871318 C49.8163593,72.8087078 50.0609914,72.8657435 50.303379,72.8657435 C50.8405221,72.8657435 51.3634511,72.5760623 51.6350151,72.0657431 L52.6973314,70.0762488 L62.7377175,70.0762488 L62.4294961,70.6436037 C62.0307534,71.3783132 62.3023174,72.2983886 63.0354653,72.6976383 C63.2651351,72.8229667 63.5135077,72.8822538 63.7581397,72.8822538 C64.2930385,72.8822538 64.8122269,72.596325 65.0867833,72.0920095 L66.1827646,70.0762488 L76.1094379,70.0762488 L75.8019647,70.6436037 C75.403222,71.3783132 75.674786,72.2983886 76.4071858,72.6976383 C76.6376037,72.8229667 76.8852281,72.8822538 77.1306083,72.8822538 C77.6647589,72.8822538 78.1846954,72.596325 78.4592519,72.0920095 L79.5552332,70.0762488 L84.6595886,70.0762488 C92.977077,70.0762488 100.001083,63.6312178 100.001083,56.0019462 C100.001083,48.3726745 92.9441602,41.9276436 84.5885181,41.9276436" id="cloud-rain-icon"></path>
            </g>
        </g>
    </g>
</svg>
