<?xml version="1.0" encoding="UTF-8" standalone="no"?>
<svg width="46px" height="46px" viewBox="0 0 46 46" version="1.1" xmlns="http://www.w3.org/2000/svg" xmlns:xlink="http://www.w3.org/1999/xlink">
    <!-- Generator: Sketch 3.7 (28169) - http://www.bohemiancoding.com/sketch -->
    <title>Fill 1</title>
    <desc>Created with Sketch.</desc>
    <defs></defs>
    <g id="Page-1" stroke="none" stroke-width="1" fill="none" fill-rule="evenodd">
        <g id="Microsite" transform="translate(-662.000000, -1622.000000)" fill="#FFFFFF">
            <path d="M684.866448,1631.56214 C684.337886,1631.56214 683.907295,1631.13585 683.907295,1630.61255 C683.907295,1630.08781 684.337886,1629.66104 684.866448,1629.66104 C685.39501,1629.66104 685.82369,1630.08781 685.82369,1630.61255 C685.82369,1631.13585 685.39501,1631.56214 684.866448,1631.56214 L684.866448,1631.56214 Z M684.866448,1627.74942 C683.275505,1627.74942 681.981341,1629.03355 681.981341,1630.61255 C681.981341,1632.19059 683.275505,1633.47376 684.866448,1633.47376 C686.455479,1633.47376 687.749643,1632.19059 687.749643,1630.61255 C687.749643,1629.03355 686.455479,1627.74942 684.866448,1627.74942 L684.866448,1627.74942 Z M706.769269,1665.9201 L662.963149,1665.9201 C662.430764,1665.9201 662.000172,1666.34735 662.000172,1666.87591 C662.000172,1667.40399 662.430764,1667.83172 662.963149,1667.83172 L706.769269,1667.83172 C707.301654,1667.83172 707.732246,1667.40399 707.732246,1666.87591 C707.732246,1666.34735 707.301654,1665.9201 706.769269,1665.9201 L706.769269,1665.9201 Z M684.886998,1624.0796 L703.383797,1635.44416 L666.354356,1635.44416 L684.886998,1624.0796 Z M662.963149,1637.35577 L706.769269,1637.35577 C706.784084,1637.35625 706.799377,1637.35577 706.807024,1637.35577 C707.338931,1637.35577 707.77,1636.92805 707.77,1636.39997 C707.77,1635.98658 707.506675,1635.63436 707.135822,1635.50151 L685.393098,1622.14265 C685.084372,1621.95245 684.689624,1621.95245 684.380898,1622.14265 L662.457527,1635.58705 C662.090496,1635.81071 661.919407,1636.2499 662.036493,1636.6609 C662.154535,1637.0719 662.532557,1637.35577 662.963149,1637.35577 L662.963149,1637.35577 Z M698.390655,1662.04095 L700.235843,1662.04095 L700.235843,1641.05427 L698.390655,1641.05427 L698.390655,1662.04095 Z M697.427679,1639.14314 C696.895293,1639.14314 696.464702,1639.57086 696.464702,1640.09894 L696.464702,1662.99676 C696.464702,1663.52485 696.895293,1663.95257 697.427679,1663.95257 L701.19882,1663.95257 C701.730727,1663.95257 702.161318,1663.52485 702.161318,1662.99676 L702.161318,1640.09894 C702.161318,1639.57086 701.730727,1639.14314 701.19882,1639.14314 L697.427679,1639.14314 Z M688.760888,1662.04095 L690.606076,1662.04095 L690.606076,1641.05427 L688.760888,1641.05427 L688.760888,1662.04095 Z M687.79839,1639.14314 C687.266004,1639.14314 686.835413,1639.57086 686.835413,1640.09894 L686.835413,1662.99676 C686.835413,1663.52485 687.266004,1663.95257 687.79839,1663.95257 L691.569053,1663.95257 C692.101438,1663.95257 692.532029,1663.52485 692.532029,1662.99676 L692.532029,1640.09894 C692.532029,1639.57086 692.101438,1639.14314 691.569053,1639.14314 L687.79839,1639.14314 Z M669.500877,1662.04095 L671.345586,1662.04095 L671.345586,1641.05427 L669.500877,1641.05427 L669.500877,1662.04095 Z M668.5379,1639.14314 C668.005515,1639.14314 667.574923,1639.57086 667.574923,1640.09894 L667.574923,1662.99676 C667.574923,1663.52485 668.005515,1663.95257 668.5379,1663.95257 L672.308563,1663.95257 C672.840948,1663.95257 673.27154,1663.52485 673.27154,1662.99676 L673.27154,1640.09894 C673.27154,1639.57086 672.840948,1639.14314 672.308563,1639.14314 L668.5379,1639.14314 Z M679.129688,1662.04095 L680.974875,1662.04095 L680.974875,1641.05427 L679.129688,1641.05427 L679.129688,1662.04095 Z M678.167189,1639.14314 C677.634804,1639.14314 677.204212,1639.57086 677.204212,1640.09894 L677.204212,1662.99676 C677.204212,1663.52485 677.634804,1663.95257 678.167189,1663.95257 L681.937852,1663.95257 C682.470237,1663.95257 682.900829,1663.52485 682.900829,1662.99676 L682.900829,1640.09894 C682.900829,1639.57086 682.470237,1639.14314 681.937852,1639.14314 L678.167189,1639.14314 Z" id="Fill-1"></path>
        </g>
    </g>
</svg>