<?xml version="1.0" encoding="UTF-8" standalone="no"?>
<svg width="85px" height="49px" viewBox="0 0 85 49" version="1.1" xmlns="http://www.w3.org/2000/svg" xmlns:xlink="http://www.w3.org/1999/xlink">
    <!-- Generator: Sketch 3.7 (28169) - http://www.bohemiancoding.com/sketch -->
    <title>icon row Research report</title>
    <desc>Created with Sketch.</desc>
    <defs></defs>
    <g id="Page-1" stroke="none" stroke-width="1" fill="#fff" fill-rule="evenodd">
        <g id="Microsite" transform="translate(-148.000000, -1291.000000)">
            <g id="Group-7" transform="translate(130.000000, 1253.000000)">
                <g id="icon-row-Research-report" transform="translate(17.759494, 37.835443)">
                    <g id="graph" transform="translate(0.386989, 0.663566)">
                        <path d="M78.062579,18.6391841 C76.8106049,18.6373554 75.7893296,17.6443725 75.7893296,16.4228025 C75.7893296,15.8312188 76.0264113,15.2743803 76.4522467,14.8574373 C76.8817294,14.4377511 77.4525494,14.2082496 78.0589316,14.2082496 C79.3109057,14.2082496 80.332181,15.2003181 80.332181,16.4228025 C80.332181,17.6443725 79.3145531,18.6373554 78.062579,18.6391841 M54.0233996,44.2290652 C52.7723373,44.2290652 51.7501501,43.235168 51.7501501,42.0126836 C51.7501501,41.4210999 51.9881438,40.8651758 52.4139791,40.4473184 C52.8434618,40.0276323 53.4142818,39.7981307 54.020664,39.7981307 C55.2726381,39.7981307 56.2939134,40.7929422 56.2939134,42.0145123 C56.2939134,43.2360824 55.2753737,44.2290652 54.0233996,44.2290652 M27.7118825,5.7587519 C27.7118825,5.16716819 27.9498762,4.61215844 28.3757115,4.19338667 C28.8042824,3.7746149 29.3751023,3.54511334 29.9814846,3.54511334 C31.2343705,3.54511334 32.2556458,4.53901054 32.2556458,5.76149494 C32.2556458,6.9812363 31.2371061,7.9751335 29.985132,7.97604784 C28.7331579,7.9751335 27.7118825,6.9812363 27.7118825,5.7587519 M5.94686438,22.9046214 C4.69489027,22.9037071 3.67361496,21.9098099 3.67361496,20.6882398 C3.67361496,19.4657554 4.69124286,18.4709439 5.94321697,18.4709439 C7.19519107,18.4709439 8.21646638,19.4657554 8.21646638,20.6882398 C8.21646638,21.9098099 7.19883848,22.9037071 5.94686438,22.9046214 M78.0552842,10.6633191 C74.8036165,10.6633191 72.1574193,13.2463546 72.1574193,16.4228025 C72.1574193,17.4523593 72.4592426,18.4060251 72.9470839,19.2435687 L56.4689892,36.7890086 C55.719446,36.4534426 54.8942191,36.2541146 54.0170166,36.2541146 C53.4917893,36.2541146 52.9920939,36.3428064 52.5078999,36.4689865 L34.542573,9.37500158 C35.3696237,8.38293308 35.8866443,7.1366756 35.8866443,5.76149494 C35.8866443,2.58413271 33.2377115,0.000182869769 29.978749,0.000182869769 C26.7261695,0.000182869769 24.0799722,2.58413271 24.0799722,5.7587519 C24.0799722,6.27993074 24.1748049,6.77642216 24.3079355,7.2564553 L9.68546149,16.2691919 C8.66327433,15.4444492 7.37026684,14.9278421 5.94321697,14.9278421 C2.68790192,14.9278421 0.0417046443,17.5108776 0.0417046443,20.6882398 C0.0417046443,23.8619447 2.69063748,26.4477232 5.94686438,26.4486376 C9.20309128,26.4477232 11.8483767,23.8619447 11.8483767,20.6882398 C11.8483767,20.1908341 11.7626625,19.7153727 11.6404742,19.2554552 L26.2975986,10.2207743 C27.3115791,11.0199151 28.583614,11.520064 29.985132,11.520064 C30.5103593,11.520064 31.0100547,11.4313721 31.4951605,11.3042776 L49.4613992,38.399177 C48.6352604,39.3912455 48.1191517,40.6375029 48.1191517,42.0126836 C48.1191517,45.1900458 50.7680845,47.7730813 54.0233996,47.7730813 C57.2796265,47.7730813 59.9258237,45.1900458 59.9258237,42.0145123 C59.9258237,40.9840411 59.6240004,40.029461 59.1361591,39.1919174 L75.613342,21.6483061 C76.3619732,21.9838721 77.1862883,22.1832002 78.062579,22.1832002 C81.3188059,22.1813715 83.9640913,19.5965073 83.9640913,16.4228025 C83.9640913,13.2463546 81.3142466,10.6633191 78.0552842,10.6633191" id="Fill-1"></path>
                        <polygon id="Fill-4" points="33.5782885 10.9442985 32.2679558 9.67061056 34.6178009 7.24210003 35.9272217 8.51578797"></polygon>
                        <path d="M38.5614737,15.7892502 L36.0702915,13.3671401 L38.4192247,10.9377152 L40.910407,13.3607396 L38.5614737,15.7892502 Z M43.5465738,20.635299 L41.0535679,18.2122746 L43.4015892,15.7837641 L45.8936834,18.2067885 L43.5465738,20.635299 Z M48.5289384,25.4813479 L46.0368443,23.0583235 L48.3857775,20.6298129 L50.8778716,23.051923 L48.5289384,25.4813479 Z" id="Fill-6"></path>
                        <polygon id="Fill-8" points="53.5820627 30.3947843 51.0197559 27.904098 53.369601 25.4755875 53.425224 25.5304484 53.4781115 25.4710158 55.9784123 27.7431727"></polygon>
                        <path d="M73.3419162,8.5156051 L70.8416154,6.24619126 L73.3218555,3.49948733 L75.8221563,5.76890117 L73.3419162,8.5156051 Z M68.3814362,14.009013 L65.8802235,11.7386848 L68.3604636,8.99198085 L70.8607644,11.262309 L68.3814362,14.009013 Z M63.4200442,19.5024208 L60.9197434,17.2320926 L63.3999835,14.4853887 L65.9002843,16.7557169 L63.4200442,19.5024208 Z M58.4595642,24.9949143 L55.9592634,22.7255005 L58.4385916,19.9787966 L60.9388924,22.2491247 L58.4595642,24.9949143 Z" id="Fill-10"></path>
                    </g>
                </g>
            </g>
        </g>
    </g>
</svg>
