<?xml version="1.0" encoding="UTF-8" standalone="no"?>
<svg width="64px" height="48px" viewBox="0 0 64 48" version="1.1" xmlns="http://www.w3.org/2000/svg" xmlns:xlink="http://www.w3.org/1999/xlink">
    <!-- Generator: Sketch 3.7 (28169) - http://www.bohemiancoding.com/sketch -->
    <title>Fill 1</title>
    <desc>Created with Sketch.</desc>
    <defs></defs>
    <g id="Page-1" stroke="none" stroke-width="1" fill="none" fill-rule="evenodd">
        <g id="Microsite" transform="translate(-160.000000, -2783.000000)" fill="#C0EE69">
            <g id="Group-8" transform="translate(130.000000, 2745.000000)">
                <path d="M90.8243671,78.2502595 C90.8243671,80.8634387 88.7069818,82.9091586 86.0045467,82.9091586 L38.2930154,82.9091586 C35.6010044,82.9091586 33.4920886,80.8634387 33.4920886,78.2502595 L33.4920886,45.8809763 C33.4920886,43.2645396 35.6010044,41.2136076 38.2930154,41.2136076 L86.0045467,41.2136076 C88.7069818,41.2136076 90.8243671,43.2645396 90.8243671,45.8809763 L90.8243671,78.2502595 Z M86.0045467,38.6075949 L38.2930154,38.6075949 C34.1396828,38.6075949 30.8860759,41.801915 30.8860759,45.8809763 L30.8860759,78.2502595 C30.8860759,82.3241088 34.1396828,85.5151713 38.2930154,85.5151713 L86.0045467,85.5151713 C90.0992441,85.5151713 93.4303797,82.2557009 93.4303797,78.2502595 L93.4303797,45.8809763 C93.4303797,41.8703228 90.0992441,38.6075949 86.0045467,38.6075949 L86.0045467,38.6075949 Z M51.4162437,65.5557203 L37.5763619,77.0671297 C37.0232358,77.527091 36.9483129,78.349288 37.4089256,78.9011112 C37.6656179,79.2118782 38.0376262,79.3721479 38.411589,79.3721479 C38.7041139,79.3721479 38.9992449,79.2731195 39.2435585,79.071805 L53.0834403,67.5616986 C53.6365665,67.1004343 53.7114893,66.2788888 53.2508766,65.7264142 C52.7928699,65.1713335 51.9680669,65.0951076 51.4162437,65.5557203 L51.4162437,65.5557203 Z M72.3242832,65.5557203 C71.7705055,65.0951076 70.947657,65.1739395 70.4889988,65.7264142 C70.0283861,66.2788888 70.1033089,67.1004343 70.6570866,67.5616986 L84.4950138,79.071805 C84.7380245,79.2731195 85.0344585,79.3721479 85.3269834,79.3721479 C85.7015977,79.3721479 86.0729545,79.2118782 86.3302983,78.9011112 C86.790911,78.349288 86.7153366,77.527091 86.1622104,77.0671297 L72.3242832,65.5557203 Z M84.4565752,45.0920059 L63.7993643,63.6676642 C62.7348081,64.6247223 61.0037642,64.6247223 59.9392081,63.6676642 L39.2819972,45.0920059 C38.7471131,44.6105451 37.9242646,44.6541958 37.4421523,45.1916859 C36.96004,45.725267 37.0043422,46.5507215 37.5385748,47.0315309 L58.1970886,65.6071891 C59.2264636,66.5303691 60.5470605,66.9935878 61.8683089,66.9935878 C63.1902089,66.9935878 64.5108058,66.5303691 65.5414838,65.6071891 L86.1999976,47.0315309 C86.7348817,46.5507215 86.7791839,45.725267 86.2970716,45.1916859 C85.8162623,44.6515898 84.9901562,44.6079391 84.4565752,45.0920059 L84.4565752,45.0920059 Z" id="Fill-1"></path>
            </g>
        </g>
    </g>
</svg>