<?xml version="1.0" encoding="UTF-8" standalone="no"?>
<svg width="48px" height="48px" viewBox="0 0 48 48" version="1.1" xmlns="http://www.w3.org/2000/svg" xmlns:xlink="http://www.w3.org/1999/xlink">
    <!-- Generator: Sketch 3.7 (28169) - http://www.bohemiancoding.com/sketch -->
    <title>mag w puzzle</title>
    <desc>Created with Sketch.</desc>
    <defs></defs>
    <g id="Page-1" stroke="none" stroke-width="1" fill="none" fill-rule="evenodd">
        <g id="Microsite" transform="translate(-320.000000, -1859.000000)" fill="#FFFFFF">
            <g id="mag-w-puzzle" transform="translate(320.000000, 1859.000000)">
                <path d="M45.0837979,45.0855916 C44.4701558,45.6967074 43.4780716,45.6944337 42.8667032,45.0855916 L34.3552926,36.5746863 C35.1490611,35.8920758 35.8897768,35.1511074 36.57264,34.3575916 L45.0837979,42.8684968 C45.3798821,43.1645811 45.5430821,43.5591916 45.5430821,43.9775495 C45.5430821,44.3959074 45.3798821,44.7895074 45.0837979,45.0855916 M20.8096926,39.3644968 C10.5788716,39.3644968 2.25567158,31.0412968 2.25567158,20.8107284 C2.25567158,10.5799074 10.5788716,2.25569684 20.8096926,2.25569684 C31.0402611,2.25569684 39.3634611,10.5799074 39.3634611,20.8107284 C39.3634611,31.0412968 31.0402611,39.3644968 20.8096926,39.3644968 M46.6786611,41.2733811 L37.9671663,32.5621389 C40.2663663,29.2155284 41.6192084,25.1696337 41.6192084,20.8107284 C41.6192084,9.33594947 32.2837137,-5.05263158e-05 20.8096926,-5.05263158e-05 C9.33567158,-5.05263158e-05 -7.57894741e-05,9.33594947 -7.57894741e-05,20.8107284 C-7.57894741e-05,32.2855074 9.33567158,41.6202442 20.8096926,41.6202442 C25.1680926,41.6202442 29.2134821,40.26816 32.5603453,37.96896 L41.2720926,46.6807074 C42.0176084,47.4262232 42.9968084,47.7983495 43.9757558,47.7983495 C44.9536926,47.7983495 45.9331453,47.4262232 46.6786611,46.6807074 C47.4011874,45.9594442 47.7988295,44.9984337 47.7988295,43.9775495 C47.7988295,42.9564126 47.4011874,41.9959074 46.6786611,41.2733811" id="Fill-1"></path>
                <path d="M10.8093979,21.1105263 L20.3179453,30.6195789 L29.82624,21.1105263 L26.2941979,17.5782316 C25.9463242,17.2301053 25.8629558,16.7021053 26.0865347,16.2637895 C26.3131453,15.8219368 26.7918821,15.5806737 27.2781979,15.6627789 C27.8597558,15.7504421 28.4572295,15.5622316 28.8644716,15.1557474 C29.5781558,14.4415579 29.5781558,13.2786947 28.8639663,12.5637474 C28.5380716,12.2376 28.0659032,12.0506526 27.5684716,12.0506526 C27.07104,12.0506526 26.5986189,12.2376 26.2724716,12.564 C25.8551242,12.9810947 25.6704505,13.5606316 25.7664505,14.1540632 C25.8455242,14.6403789 25.6035032,15.1181053 25.1646821,15.3421895 C24.7316716,15.5667789 24.2031663,15.4846737 23.8517558,15.1365474 L20.3179453,11.6024842 L18.3479242,13.5722526 C18.6773558,13.7544 18.9812716,13.9825263 19.2498189,14.2510737 C20.0223663,15.0236211 20.4477979,16.0520842 20.4477979,17.1469895 C20.4477979,18.2416421 20.0223663,19.2701053 19.2498189,20.0424 C17.7075032,21.5837053 15.0013137,21.5839579 13.4587453,20.0426526 C13.1907032,19.7743579 12.9625768,19.4701895 12.7804295,19.14 L10.8093979,21.1105263 Z M20.3179453,33.3502737 C20.0155453,33.3502737 19.7315874,33.2325474 19.5181137,33.0190737 L8.40990316,21.9103579 C8.19617684,21.6968842 8.07845053,21.4126737 8.07845053,21.1105263 C8.07845053,20.8083789 8.19617684,20.5241684 8.40990316,20.3104421 L12.6136926,16.1071579 C12.9489347,15.7736842 13.4610189,15.6829895 13.8879663,15.8800421 C14.3159242,16.0776 14.5784084,16.5265263 14.5412716,16.9971789 C14.4968084,17.5428632 14.6852716,18.0693474 15.0586611,18.4429895 C15.7485979,19.1329263 16.9599663,19.1331789 17.6499032,18.4427368 C18.3640926,17.7282947 18.3640926,16.5654316 17.6499032,15.8507368 C17.2805558,15.4816421 16.7517979,15.2931789 16.2005558,15.3333474 C15.7137347,15.3593684 15.2814821,15.1016842 15.0869558,14.6805474 C14.8893979,14.2520842 14.9805979,13.7402526 15.3140716,13.4065263 L19.5181137,9.20273684 C19.9589558,8.76164211 20.6766821,8.76189474 21.1177768,9.20298947 L23.9199663,12.0049263 C24.1129768,11.6216842 24.3661137,11.2707789 24.6730611,10.9640842 C26.2151242,9.42328421 28.9213137,9.42303158 30.4641347,10.9640842 C32.0607663,12.5612211 32.0607663,15.1590316 30.4641347,16.7554105 C30.1564295,17.0631158 29.8060295,17.3167579 29.4253137,17.5097684 L32.2259874,20.3106947 C32.6670821,20.7517895 32.6668295,21.4692632 32.2257347,21.9103579 L21.1177768,33.0190737 C20.9045558,33.2325474 20.6203453,33.3502737 20.3179453,33.3502737 L20.3179453,33.3502737 Z" id="Fill-4"></path>
            </g>
        </g>
    </g>
</svg>