<?xml version="1.0" encoding="UTF-8" standalone="no"?>
<svg width="46px" height="43px" viewBox="0 0 46 43" version="1.1" xmlns="http://www.w3.org/2000/svg" xmlns:xlink="http://www.w3.org/1999/xlink">
    <!-- Generator: Sketch 3.7 (28169) - http://www.bohemiancoding.com/sketch -->
    <title>Fill 1</title>
    <desc>Created with Sketch.</desc>
    <defs></defs>
    <g id="Page-1" stroke="none" stroke-width="1" fill="none" fill-rule="evenodd">
        <g id="Microsite" transform="translate(-661.000000, -1861.000000)" fill="#FFFFFF">
            <path d="M670.111186,1883.85076 L705.548992,1883.85076 C705.938865,1883.85076 706.289082,1883.61664 706.436717,1883.2583 C706.582919,1882.90187 706.50074,1882.48907 706.223625,1882.21721 L702.386532,1878.43554 C702.007648,1878.06573 701.400861,1878.06764 701.0301,1878.44318 C700.65695,1878.81681 700.660772,1879.42264 701.037267,1879.79293 L703.216445,1881.94105 L672.458545,1881.94105 L674.656357,1879.79627 C675.032851,1879.42694 675.040496,1878.82254 674.669257,1878.44605 C674.298496,1878.07194 673.693142,1878.06287 673.310914,1878.43267 L669.438464,1882.21386 C669.161349,1882.48525 669.075348,1882.89805 669.222983,1883.25687 C669.371097,1883.61568 669.721313,1883.85076 670.111186,1883.85076 L670.111186,1883.85076 Z M674.669257,1870.80722 C674.298496,1870.43311 673.691708,1870.42404 673.312825,1870.79384 L669.440376,1874.57408 C669.161349,1874.84546 669.075348,1875.25779 669.222983,1875.6166 C669.371097,1875.9759 669.721313,1876.21097 670.111186,1876.21097 L705.548992,1876.21097 C705.938865,1876.21097 706.289082,1875.97685 706.436717,1875.61852 C706.582919,1875.26018 706.50074,1874.84928 706.223625,1874.57742 L702.386532,1870.79671 C702.007648,1870.42642 701.400861,1870.42834 701.0301,1870.80387 C700.65695,1871.17894 700.660772,1871.78333 701.037267,1872.15457 L703.216445,1874.30126 L672.458545,1874.30126 L674.654446,1872.15696 C675.032851,1871.78811 675.040496,1871.18371 674.669257,1870.80722 L674.669257,1870.80722 Z M704.825626,1893.95305 C704.778803,1894.43848 704.499776,1894.80016 703.995713,1895.02902 L692.769671,1900.12316 C691.231203,1900.82216 684.009002,1901.61863 675.55746,1897.85846 C674.134137,1897.22349 672.227297,1897.65206 670.592794,1898.08875 L670.592794,1891.7839 C675.493914,1891.09876 680.281322,1891.41983 681.684099,1891.83216 L692.293797,1894.93059 C692.771583,1895.07011 693.042009,1895.3391 693.184389,1895.64823 C693.194423,1895.67928 693.192034,1895.71177 693.205889,1895.74283 C693.211623,1895.75525 693.222612,1895.76194 693.228823,1895.77436 C693.330114,1896.07871 693.326291,1896.40934 693.241723,1896.6984 C693.133266,1897.0682 692.906318,1897.38307 692.619647,1897.56271 C692.302875,1897.76195 691.926381,1897.79396 691.493985,1897.66926 L680.346301,1894.41315 C679.840326,1894.26361 679.304251,1894.5541 679.156615,1895.06151 C679.006591,1895.56653 679.298995,1896.09735 679.806881,1896.24641 L690.954088,1899.503 C691.297137,1899.60238 691.637798,1899.65207 691.973204,1899.65207 C692.572824,1899.65207 693.146166,1899.49153 693.646407,1899.17715 C694.330118,1898.74666 694.839915,1898.05722 695.081674,1897.23639 C695.210198,1896.79969 695.248421,1896.33863 695.204943,1895.88473 L702.742482,1892.46427 C703.291457,1892.21343 703.776409,1892.23111 704.177749,1892.51826 C704.612056,1892.82499 704.878182,1893.41506 704.825626,1893.95305 L704.825626,1893.95305 Z M662.918608,1901.13846 L668.674008,1901.13846 L668.674008,1889.67973 L662.918608,1889.67973 L662.918608,1901.13846 Z M705.291944,1890.96259 C704.333029,1890.28222 703.113243,1890.19813 701.947925,1890.72608 L694.46342,1894.12314 C694.075936,1893.67402 693.54655,1893.30612 692.833217,1893.09733 L682.223519,1889.99842 C680.456669,1889.48384 675.577049,1889.19526 670.592794,1889.85699 L670.592794,1888.72512 C670.592794,1888.19669 670.163265,1887.77003 669.633401,1887.77003 L661.959215,1887.77003 C661.429351,1887.77003 661.0003,1888.19669 661.0003,1888.72512 L661.0003,1902.09259 C661.0003,1902.62102 661.429351,1903.04816 661.959215,1903.04816 L669.633401,1903.04816 C670.163265,1903.04816 670.592794,1902.62102 670.592794,1902.09259 L670.592794,1900.06631 L670.624327,1900.05866 C671.901925,1899.71036 673.831699,1899.18002 674.77437,1899.60238 C679.874249,1901.87138 684.779192,1902.6172 688.39507,1902.6172 C690.791163,1902.6172 692.621558,1902.28849 693.564228,1901.86087 L704.790269,1896.76672 C705.91402,1896.25645 706.624487,1895.29849 706.734855,1894.13651 C706.852868,1892.91482 706.28717,1891.66875 705.291944,1890.96259 L705.291944,1890.96259 Z M676.301371,1862.90991 L699.413275,1862.91516 L703.216445,1866.66243 L672.458545,1866.66243 L676.301371,1862.90991 Z M670.111186,1868.57214 L705.548992,1868.57214 C705.563804,1868.57357 705.576704,1868.57262 705.586737,1868.57214 C706.116601,1868.57214 706.545652,1868.14452 706.545652,1867.61705 C706.545652,1867.2697 706.360272,1866.96583 706.083156,1866.79908 L700.482558,1861.28162 C700.303389,1861.10579 700.061151,1861.00593 699.808403,1861.00593 L675.909587,1861.0002 C675.65875,1861.0002 675.416991,1861.09767 675.237343,1861.27349 L669.438464,1866.93573 C669.161349,1867.20711 669.075348,1867.61848 669.222983,1867.97778 C669.371097,1868.33707 669.721313,1868.57214 670.111186,1868.57214 L670.111186,1868.57214 Z" id="Fill-1"></path>
        </g>
    </g>
</svg>