<?xml version="1.0" encoding="UTF-8" standalone="no"?>
<svg width="39px" height="39px" viewBox="0 0 39 39" version="1.1" xmlns="http://www.w3.org/2000/svg" xmlns:xlink="http://www.w3.org/1999/xlink">
    <!-- Generator: Sketch 3.7 (28169) - http://www.bohemiancoding.com/sketch -->
    <title>Clip 2</title>
    <desc>Created with Sketch.</desc>
    <defs>
        <path d="M18.5923782,0.832918419 L18.5923782,8.1044035 C18.5923782,8.56600202 18.9664989,8.93863031 19.4300718,8.93863031 C19.8931185,8.93863031 20.2682916,8.56600202 20.2682916,8.1044035 L20.2682916,0.832918419 C20.2682916,0.372889961 19.8931185,0.000261677166 19.4300718,0.000261677166 C18.9664989,0.000261677166 18.5923782,0.372889961 18.5923782,0.832918419 L18.5923782,0.832918419 Z M32.2248946,5.42325926 L27.0540308,10.5662623 C26.7262148,10.8917887 26.7262148,11.4188065 27.0540308,11.7443329 C27.2171496,11.9070961 27.4318349,11.9887394 27.6465202,11.9887394 C27.8601531,11.9887394 28.0748384,11.9070961 28.2384833,11.7443329 L33.4093471,6.60185322 C33.7371631,6.27632682 33.7371631,5.74930901 33.4093471,5.42325926 C33.245176,5.26101942 33.031543,5.17937614 32.8168577,5.17937614 C32.6026986,5.17937614 32.3880133,5.26101942 32.2248946,5.42325926 L32.2248946,5.42325926 Z M5.45447989,5.42325926 C5.12666386,5.74930901 5.12666386,6.27632682 5.45447989,6.60185322 L10.6248175,11.7443329 C10.7879362,11.9070961 11.0026215,11.9887394 11.2173068,11.9887394 C11.4314659,11.9887394 11.6461512,11.9070961 11.8097961,11.7443329 C12.1365598,11.4188065 12.1365598,10.8917887 11.8097961,10.5662623 L6.63893235,5.42325926 C6.47476124,5.26101942 6.26060214,5.17937614 6.04644303,5.17937614 C5.83175773,5.17937614 5.61759862,5.26101942 5.45447989,5.42325926 L5.45447989,5.42325926 Z M12.6585397,19.2911023 C12.6585397,22.9995911 15.6930743,26.0162055 19.4206004,26.0162055 C23.1481265,26.0162055 26.1800301,22.9995911 26.1800301,19.2911023 C26.1800301,15.5831369 23.1481265,12.5665225 19.4206004,12.5665225 C15.6930743,12.5665225 12.6585397,15.5831369 12.6585397,19.2911023 L12.6585397,19.2911023 Z M14.3344531,19.2911023 C14.3344531,16.5021471 16.6154844,14.2328827 19.4206004,14.2328827 C22.2236116,14.2328827 24.5041167,16.5021471 24.5041167,19.2911023 C24.5041167,22.0805809 22.2236116,24.349322 19.4206004,24.349322 C16.6154844,24.349322 14.3344531,22.0805809 14.3344531,19.2911023 L14.3344531,19.2911023 Z M30.7126261,18.4935103 C30.2495794,18.4935103 29.8744063,18.8656153 29.8744063,19.3266904 C29.8744063,19.7872422 30.2495794,20.1598705 30.7126261,20.1598705 L38.0256072,20.1598705 C38.4886539,20.1598705 38.8633008,19.7872422 38.8633008,19.3266904 C38.8633008,18.8656153 38.4886539,18.4935103 38.0256072,18.4935103 L30.7126261,18.4935103 L30.7126261,18.4935103 Z M0.837693612,18.4935103 C0.374120703,18.4935103 0,18.8656153 0,19.3266904 C0,19.7872422 0.374120703,20.1598705 0.837693612,20.1598705 L8.14909609,20.1598705 C8.61214281,20.1598705 8.9867897,19.7872422 8.9867897,19.3266904 C8.9867897,18.8656153 8.61214281,18.4935103 8.14909609,18.4935103 L0.837693612,18.4935103 L0.837693612,18.4935103 Z M27.0540308,26.9085246 C26.7262148,27.2345744 26.7262148,27.7610688 27.0540308,28.0871186 L32.2248946,33.2285516 C32.3880133,33.3913147 32.6026986,33.4724347 32.8168577,33.4724347 C33.031543,33.4724347 33.245176,33.3913147 33.4093471,33.2285516 C33.7371631,32.9030252 33.7371631,32.375484 33.4093471,32.0499576 L28.2384833,26.9085246 C28.0743122,26.7462848 27.8601531,26.6646415 27.645994,26.6646415 C27.4318349,26.6646415 27.2171496,26.7462848 27.0540308,26.9085246 L27.0540308,26.9085246 Z M10.6248175,26.9085246 L5.45447989,32.0499576 C5.12666386,32.375484 5.12666386,32.9030252 5.45447989,33.2285516 C5.61707243,33.3913147 5.83175773,33.4724347 6.04644303,33.4724347 C6.26060214,33.4724347 6.47476124,33.3913147 6.63893235,33.2285516 L11.8097961,28.0871186 C12.1365598,27.7610688 12.1365598,27.2345744 11.8097961,26.9085246 C11.645625,26.7462848 11.4314659,26.6646415 11.2173068,26.6646415 C11.0026215,26.6646415 10.7879362,26.7462848 10.6248175,26.9085246 L10.6248175,26.9085246 Z M18.5923782,30.5474073 L18.5923782,37.8199391 C18.5923782,38.2810143 18.9664989,38.6531192 19.4300718,38.6531192 C19.8931185,38.6531192 20.2682916,38.2810143 20.2682916,37.8199391 L20.2682916,30.5474073 C20.2682916,30.0863321 19.8931185,29.7137039 19.4300718,29.7137039 C18.9664989,29.7137039 18.5923782,30.0863321 18.5923782,30.5474073 L18.5923782,30.5474073 Z" id="path-1"></path>
    </defs>
    <g id="Page-1" stroke="none" stroke-width="1" fill="#fff" fill-rule="evenodd">
        <g id="Microsite" transform="translate(-218.000000, -181.000000)">
            <g id="Group-2" transform="translate(165.000000, 181.000000)">
                <g id="sun" transform="translate(52.980543, 0.000000)">
                    <mask id="mask-2">
                        <use xlink:href="#path-1"></use>
                    </mask>
                    <use id="Clip-2" xlink:href="#path-1"></use>
                </g>
            </g>
        </g>
    </g>
</svg>
