<?xml version="1.0" standalone="no"?>
<!DOCTYPE svg PUBLIC "-//W3C//DTD SVG 20010904//EN"
 "http://www.w3.org/TR/2001/REC-SVG-20010904/DTD/svg10.dtd">
<svg version="1.0" xmlns="http://www.w3.org/2000/svg"
 width="700.000000pt" height="700.000000pt" viewBox="0 0 700.000000 700.000000"
 preserveAspectRatio="xMidYMid meet">
<metadata>
Created by potrace 1.14, written by Peter Selinger 2001-2017
</metadata>
<g transform="translate(0.000000,700.000000) scale(0.100000,-0.100000)"
fill="#000000" stroke="none">
<path d="M3075 6759 c-231 -133 -445 -255 -476 -273 -391 -218 -1137 -652
-1132 -657 6 -6 426 -248 648 -373 22 -13 369 -211 770 -441 402 -230 748
-428 770 -440 22 -12 182 -103 355 -202 173 -99 331 -189 350 -200 19 -11 193
-110 385 -220 193 -110 366 -210 385 -221 19 -11 64 -36 100 -57 36 -21 85
-49 110 -63 151 -84 199 -115 195 -122 -4 -7 -33 -24 -160 -95 -11 -6 -36 -21
-55 -32 -19 -12 -58 -35 -87 -50 -28 -15 -886 -505 -1906 -1088 -1378 -787
-1852 -1063 -1844 -1071 7 -6 111 -67 232 -136 253 -144 265 -151 362 -207 39
-22 88 -50 109 -61 20 -12 114 -66 209 -120 95 -54 188 -108 207 -119 20 -10
131 -74 248 -141 117 -67 229 -131 249 -142 20 -11 97 -55 171 -98 75 -43 156
-90 182 -104 l46 -25 441 252 c242 139 449 257 458 262 177 100 261 148 273
155 35 22 130 76 190 108 36 19 72 41 81 48 8 8 18 14 21 14 4 0 46 23 95 51
48 29 108 63 133 77 25 14 151 86 280 160 129 74 255 146 280 160 25 14 88 50
140 80 52 30 109 62 125 71 17 9 97 54 178 101 81 47 167 96 190 109 23 13 72
41 109 63 l67 38 0 1750 0 1749 -50 31 c-27 16 -51 30 -53 30 -1 0 -96 54
-211 120 -115 66 -210 120 -212 120 -2 0 -20 11 -41 23 -20 13 -57 35 -82 49
-25 14 -157 89 -295 168 -137 78 -268 153 -290 165 -22 13 -442 253 -934 534
-491 281 -894 511 -895 511 0 0 -190 -109 -421 -241z"/>
<path d="M1085 5622 c-16 -10 -55 -32 -85 -49 -63 -35 -228 -129 -250 -142 -8
-6 -83 -48 -165 -95 l-151 -85 1 -1751 0 -1750 325 -186 c179 -102 337 -192
352 -200 26 -14 33 -11 135 47 60 34 133 75 163 92 30 16 62 35 70 41 8 7 40
25 70 41 30 15 67 36 82 47 14 10 29 18 32 18 3 0 40 20 82 45 41 25 80 45 85
45 5 0 9 5 9 10 0 6 5 10 10 10 6 0 68 33 138 74 70 40 147 85 172 99 208 116
350 199 351 205 1 4 2 616 3 1360 l1 1353 -65 38 c-36 21 -87 51 -115 66 -27
16 -156 89 -285 163 -129 74 -255 146 -280 160 -25 14 -151 86 -280 160 -285
163 -355 202 -366 202 -5 0 -22 -8 -39 -18z"/>
</g>
</svg>
