<svg xmlns="http://www.w3.org/2000/svg" xmlns:xlink="http://www.w3.org/1999/xlink" viewBox="0 0 70 70"><defs><clipPath id="clippath"><circle cx="35" cy="35" r="35" fill="none"/></clipPath><clipPath id="clippath-1"><rect x="15.24" y="13.77" width="39.66" height="40.45" fill="none"/></clipPath></defs><g clip-path="url(#clippath)"><path d="M0,0h70v70H0V0Z" fill="#4a50c4"/></g><g clip-path="url(#clippath-1)"><path d="M54.5,27.37c-1.4-.93-5.01-3.9-5.01-6.45v-.9c0-.25-.09-.46-.26-.63s-.39-.26-.63-.26h-3.61c-.25,0-.46.09-.63.26-.17.17-.26.39-.26.63v19.77c0,.25.09.46.26.63s.39.26.63.26h3.61c.25,0,.46-.09.63-.26.17-.17.26-.38.26-.63v-.9c.09-.67.39-1.25.9-1.71v5.3h-8.11c.03-.15.04-.3.05-.45,0-.3-.06-.59-.17-.86s-.29-.52-.5-.74-.46-.37-.75-.48c-.28-.11-.57-.17-.87-.16h-1.35c0-.4-.12-.76-.35-1.08-.59-.79-1.34-1.41-2.23-1.85-.89-.44-1.83-.67-2.82-.67h-4.85l-.66-1.3-2.96-5.89h.35c.56,0,1.11-.06,1.65-.18.55-.13,1.06-.31,1.56-.56.5-.25.96-.55,1.4-.9.43-.35.82-.75,1.15-1.19s.62-.91.85-1.42.4-1.03.5-1.58c.11-.55.15-1.09.13-1.65s-.11-1.1-.25-1.63c-.15-.53-.36-1.05-.63-1.53-.26-.48-.59-.94-.96-1.35s-.79-.78-1.25-1.09c-.45-.32-.94-.58-1.46-.78-.52-.21-1.05-.35-1.6-.43-.56-.08-1.1-.1-1.66-.06-.56.05-1.09.15-1.63.33-.53.17-1.03.4-1.51.68-.48.29-.91.63-1.31,1.02s-.75.82-1.05,1.28-.54.97-.72,1.49-.31,1.06-.36,1.61c-.06.56-.05,1.11.02,1.66s.21,1.09.4,1.61.44,1.01.75,1.47.67.88,1.07,1.26c-.78.61-1.48,1.29-2.1,2.05-.62.76-1.15,1.59-1.58,2.47-.44.88-.76,1.81-.98,2.77-.22.96-.33,1.94-.34,2.92v9.69c0,.47.05.94.14,1.4s.23.91.41,1.35c.18.44.4.85.67,1.25.26.39.56.75.9,1.09.33.33.7.63,1.09.9.39.26.81.48,1.25.67s.89.32,1.35.41c.47.09.94.14,1.41.14h9.91c.25,0,.46-.09.63-.26s.26-.39.26-.63v-2.7c0-.36.07-.7.21-1.03s.33-.63.59-.87c.25-.25.55-.45.87-.59s.67-.21,1.04-.21h10.82c.36,0,.71.06,1.03.21s.63.33.88.59c.25.25.44.55.58.87.14.33.21.67.21,1.03v2.7c0,.25.09.46.26.63.17.17.39.26.63.26h3.61c.25,0,.46-.09.63-.26s.26-.39.26-.63v-9.88c0-.25-.09-.46-.26-.63-.17-.17-.39-.26-.63-.26h-1.8v-6.84c.71-.51,1.44-.95,2.21-1.35.33-.17.5-.43.5-.8v-5.39c0-.32-.13-.56-.4-.75h-.02ZM40.48,42.04c0,.13-.04.23-.13.32s-.19.13-.33.13h-7.21c-.13,0-.23-.04-.32-.13-.09-.09-.13-.19-.13-.32s.05-.23.13-.32.19-.13.32-.13h7.21c.13,0,.23.04.33.13s.13.19.13.32ZM28.76,42.49c-.12,0-.23.02-.33.06l-.27-.96h2.45c-.06.3-.06.6,0,.9,0,0-1.85,0-1.85,0ZM33.27,38c.71,0,1.38.16,2.01.48.63.32,1.17.76,1.59,1.32h-10.39c-.52,0-.98-.13-1.42-.4s-.76-.63-1-1.09l-1.54-3.08c.13-.31.33-.56.59-.75s.57-.32.9-.34c.38-.04.73.04,1.06.22s.58.44.75.79l1.19,2.36c.17.35.46.52.85.49h5.41-.02ZM19.75,21.82c0-.35.04-.71.1-1.05.07-.35.17-.68.31-1.02s.3-.64.5-.94c.2-.29.42-.56.67-.82.25-.25.52-.48.82-.67.3-.2.61-.36.94-.5.33-.13.67-.24,1.02-.31s.7-.1,1.05-.1.71.03,1.05.1.68.17,1.02.31c.33.13.64.3.94.5.29.19.56.42.82.67.25.25.48.52.67.82.2.29.36.6.5.94.13.33.24.66.31,1.02.07.35.1.7.1,1.05s-.03.71-.1,1.05c-.06.35-.17.68-.31,1.02s-.3.63-.5.93c-.2.3-.42.57-.67.82-.25.25-.52.48-.82.67-.3.19-.61.36-.94.5-.33.13-.67.24-1.02.31-.35.06-.71.1-1.05.1s-.71-.04-1.05-.1c-.35-.07-.68-.17-1.02-.31-.33-.13-.63-.3-.94-.5-.29-.2-.56-.42-.82-.67-.25-.25-.48-.52-.67-.82s-.36-.6-.5-.93-.24-.67-.31-1.02c-.06-.35-.1-.7-.1-1.05ZM17.05,37.29c0-.9.1-1.78.32-2.64.21-.86.52-1.71.94-2.5s.91-1.52,1.5-2.21c.59-.67,1.25-1.27,1.98-1.78.25.13.51.25.78.35l1.91,3.82c-.21-.02-.43-.02-.64,0-.37.03-.74.13-1.08.27s-.66.35-.94.59c-.29.25-.52.53-.72.86-.19.33-.33.67-.43,1.03-.05.21-.02.42.07.62l1.73,3.4c.36.73.89,1.32,1.57,1.76.68.44,1.44.68,2.24.72l1.29,4.5h-10.52v-8.8h0ZM17.12,47.89h10.75v4.49h-5.41c-.64,0-1.26-.11-1.86-.33-.6-.22-1.14-.53-1.63-.94-.48-.41-.89-.9-1.21-1.44-.32-.56-.53-1.14-.63-1.77h0ZM53.1,52.38h-1.8v-1.8c0-.29-.03-.59-.09-.87s-.14-.57-.25-.84c-.12-.27-.25-.53-.42-.78s-.35-.47-.56-.68-.44-.39-.68-.56-.51-.3-.78-.42c-.27-.11-.56-.2-.84-.25-.29-.06-.59-.08-.88-.08h-10.82c-.3,0-.59.02-.88.08s-.57.14-.85.25c-.27.12-.53.25-.78.42s-.48.35-.68.56c-.21.21-.4.44-.56.68-.17.25-.31.51-.42.78-.12.27-.2.56-.25.84s-.09.58-.09.87v1.8h-1.81v-8.09h23.44s0,8.09,0,8.09ZM45.89,38.9v-17.97h1.8v17.97h-1.8ZM53.1,32.97c-1.31.71-2.51,1.56-3.61,2.57v-10.34c1.06,1.28,2.26,2.4,3.61,3.38,0,0,0,4.39,0,4.39Z" fill="#fff"/></g></svg>