<?xml version="1.0" encoding="UTF-8"?><svg id="Layer_1" xmlns="http://www.w3.org/2000/svg" xmlns:xlink="http://www.w3.org/1999/xlink" viewBox="0 0 70 70"><defs><clipPath id="clippath"><circle cx="35" cy="35" r="35" fill="none"/></clipPath><clipPath id="clippath-1"><rect x="12.35" y="28" width="26.32" height="29.33" fill="none"/></clipPath><clipPath id="clippath-2"><rect x="34.67" y="12.35" width="22.68" height="27.65" fill="none"/></clipPath></defs><g clip-path="url(#clippath)"><path d="M0,0h70v70H0V0Z" fill="#40807e"/></g><g clip-path="url(#clippath-1)"><path d="M37.08,51.98c-.67-4.03-3.33-7.51-7.17-9.17,1.73-1.41,2.84-3.55,2.84-5.95,0-4.23-3.44-7.67-7.67-7.67s-7.67,3.44-7.67,7.67c0,2.4,1.11,4.55,2.84,5.95-3.83,1.66-6.5,5.14-7.17,9.17l-.6,3.63c-.13.77.39,1.49,1.16,1.61.76.13,1.48-.39,1.61-1.15l.6-3.63c.76-4.54,4.64-7.82,9.23-7.82s8.48,3.29,9.23,7.82l.6,3.63c.11.69.71,1.17,1.38,1.17.88,0,1.53-.78,1.39-1.64l-.6-3.63ZM25.08,31.99c2.68,0,4.86,2.19,4.86,4.87s-2.18,4.86-4.86,4.86-4.87-2.18-4.87-4.86,2.19-4.87,4.87-4.87Z" fill="#fff"/></g><path d="M46.13,18.53c-2.77-1.6-6.31.39-6.31,3.65,0,4.38,5.53,6.8,5.76,6.9.35.15.76.15,1.1,0,.24-.1,5.76-2.52,5.76-6.9,0-3.26-3.54-5.25-6.31-3.65ZM46.13,26.22c-1.32-.7-3.51-2.24-3.51-4.05,0-1.29,1.6-1.89,2.45-.93.56.63,1.55.63,2.1,0,.85-.97,2.46-.36,2.46.93,0,1.81-2.19,3.35-3.51,4.05Z" fill="#fff"/><g clip-path="url(#clippath-2)"><path d="M51.74,12.35h-11.22c-3.09,0-5.61,2.52-5.61,5.61v19.64c0,1.15,1.32,1.81,2.24,1.12l5.24-3.93h9.35c3.09,0,5.61-2.52,5.61-5.61v-11.22c0-3.09-2.52-5.61-5.61-5.61ZM54.55,29.19c0,1.55-1.26,2.8-2.81,2.8h-9.82c-.3,0-.6.1-.84.28l-3.37,2.53v-16.83c0-1.55,1.26-2.81,2.81-2.81h11.22c1.55,0,2.81,1.26,2.81,2.81v11.22Z" fill="#fff"/></g></svg>