<svg xmlns="http://www.w3.org/2000/svg" xmlns:xlink="http://www.w3.org/1999/xlink" width="70" zoomAndPan="magnify" viewBox="0 0 52.5 52.499999" height="70" preserveAspectRatio="xMidYMid meet" version="1.0"><defs><clipPath id="2d8b6a88eb"><path d="M 0 0 L 52.003906 0 L 52.003906 52.003906 L 0 52.003906 Z M 0 0 " clip-rule="nonzero"/></clipPath><clipPath id="d1228f96a2"><path d="M 26.25 0 C 11.753906 0 0 11.753906 0 26.25 C 0 40.746094 11.753906 52.5 26.25 52.5 C 40.746094 52.5 52.5 40.746094 52.5 26.25 C 52.5 11.753906 40.746094 0 26.25 0 " clip-rule="nonzero"/></clipPath><clipPath id="ece3faf620"><path d="M 9.261719 21 L 29 21 L 29 43 L 9.261719 43 Z M 9.261719 21 " clip-rule="nonzero"/></clipPath><clipPath id="755961d41b"><path d="M 26 9.261719 L 43.011719 9.261719 L 43.011719 30 L 26 30 Z M 26 9.261719 " clip-rule="nonzero"/></clipPath></defs><g clip-path="url(#2d8b6a88eb)"><g clip-path="url(#d1228f96a2)"><path fill="#40807e" d="M 0 0 L 52.5 0 L 52.5 52.5 L 0 52.5 Z M 0 0 " fill-opacity="1" fill-rule="nonzero"/></g></g><g clip-path="url(#ece3faf620)"><path fill="#ffffff" d="M 27.8125 38.984375 C 27.308594 35.964844 25.3125 33.355469 22.433594 32.109375 C 23.734375 31.054688 24.566406 29.445312 24.566406 27.644531 C 24.566406 24.46875 21.984375 21.890625 18.8125 21.890625 C 15.640625 21.890625 13.058594 24.46875 13.058594 27.644531 C 13.058594 29.445312 13.890625 31.054688 15.1875 32.109375 C 12.3125 33.355469 10.3125 35.964844 9.808594 38.984375 L 9.355469 41.707031 C 9.261719 42.28125 9.648438 42.824219 10.222656 42.917969 C 10.792969 43.015625 11.335938 42.628906 11.433594 42.054688 L 11.886719 39.332031 C 12.453125 35.929688 15.363281 33.464844 18.8125 33.464844 C 22.257812 33.464844 25.171875 35.929688 25.738281 39.332031 L 26.191406 42.054688 C 26.277344 42.570312 26.722656 42.933594 27.226562 42.933594 C 27.882812 42.933594 28.375 42.347656 28.265625 41.707031 Z M 18.8125 23.992188 C 20.824219 23.992188 22.460938 25.632812 22.460938 27.644531 C 22.460938 29.65625 20.824219 31.292969 18.8125 31.292969 C 16.800781 31.292969 15.160156 29.65625 15.160156 27.644531 C 15.160156 25.632812 16.800781 23.992188 18.8125 23.992188 Z M 18.8125 23.992188 " fill-opacity="1" fill-rule="nonzero"/></g><path fill="#ffffff" d="M 34.59375 13.894531 C 32.515625 12.691406 29.859375 14.1875 29.859375 16.628906 C 29.859375 19.914062 34.003906 21.726562 34.179688 21.804688 C 34.445312 21.917969 34.746094 21.917969 35.007812 21.804688 C 35.1875 21.726562 39.328125 19.914062 39.328125 16.628906 C 39.328125 14.1875 36.675781 12.691406 34.59375 13.894531 Z M 34.59375 19.667969 C 33.601562 19.140625 31.964844 17.988281 31.964844 16.628906 C 31.964844 15.660156 33.167969 15.210938 33.804688 15.933594 C 34.222656 16.40625 34.964844 16.40625 35.382812 15.933594 C 36.023438 15.207031 37.226562 15.660156 37.226562 16.628906 C 37.226562 17.988281 35.585938 19.140625 34.59375 19.667969 Z M 34.59375 19.667969 " fill-opacity="1" fill-rule="nonzero"/><g clip-path="url(#755961d41b)"><path fill="#ffffff" d="M 38.804688 9.261719 L 30.386719 9.261719 C 28.066406 9.261719 26.175781 11.152344 26.175781 13.472656 L 26.175781 28.203125 C 26.175781 29.066406 27.167969 29.5625 27.859375 29.042969 L 31.789062 26.097656 L 38.804688 26.097656 C 41.125 26.097656 43.011719 24.210938 43.011719 21.890625 L 43.011719 13.472656 C 43.011719 11.152344 41.125 9.261719 38.804688 9.261719 Z M 40.910156 21.890625 C 40.910156 23.050781 39.964844 23.992188 38.804688 23.992188 L 31.4375 23.992188 C 31.210938 23.992188 30.988281 24.066406 30.808594 24.203125 L 28.28125 26.097656 L 28.28125 13.472656 C 28.28125 12.3125 29.226562 11.367188 30.386719 11.367188 L 38.804688 11.367188 C 39.964844 11.367188 40.910156 12.3125 40.910156 13.472656 Z M 40.910156 21.890625 " fill-opacity="1" fill-rule="nonzero"/></g></svg>
