<svg xmlns="http://www.w3.org/2000/svg" xmlns:xlink="http://www.w3.org/1999/xlink" width="70" zoomAndPan="magnify" viewBox="0 0 52.5 52.499999" height="70" preserveAspectRatio="xMidYMid meet" version="1.0"><defs><clipPath id="37ab0191b8"><path d="M 0 0 L 52.003906 0 L 52.003906 52.003906 L 0 52.003906 Z M 0 0 " clip-rule="nonzero"/></clipPath><clipPath id="2c24c02abb"><path d="M 26.25 0 C 11.753906 0 0 11.753906 0 26.25 C 0 40.746094 11.753906 52.5 26.25 52.5 C 40.746094 52.5 52.5 40.746094 52.5 26.25 C 52.5 11.753906 40.746094 0 26.25 0 " clip-rule="nonzero"/></clipPath><clipPath id="a276a19604"><path d="M 8.675781 12.605469 L 26 12.605469 L 26 39.605469 L 8.675781 39.605469 Z M 8.675781 12.605469 " clip-rule="nonzero"/></clipPath><clipPath id="d75c812f9c"><path d="M 26 12.605469 L 43 12.605469 L 43 39.605469 L 26 39.605469 Z M 26 12.605469 " clip-rule="nonzero"/></clipPath></defs><g clip-path="url(#37ab0191b8)"><g clip-path="url(#2c24c02abb)"><path fill="#06648d" d="M 0 0 L 52.5 0 L 52.5 52.5 L 0 52.5 Z M 0 0 " fill-opacity="1" fill-rule="nonzero"/></g></g><g clip-path="url(#a276a19604)"><path fill="#ffffff" d="M 20.0625 27.394531 C 19.089844 27.761719 18.023438 27.988281 16.914062 27.988281 C 12.355469 27.964844 8.675781 24.539062 8.675781 20.339844 C 8.675781 16.136719 12.355469 12.6875 16.914062 12.6875 C 21.472656 12.6875 25.152344 16.113281 25.152344 20.339844 C 26.3125 31.574219 12.839844 39.523438 12.839844 39.523438 L 11.777344 38.265625 C 11.777344 38.242188 20.6875 31.4375 20.0625 27.394531 Z M 20.0625 27.394531 " fill-opacity="1" fill-rule="nonzero"/></g><g clip-path="url(#d75c812f9c)"><path fill="#ffffff" d="M 37.675781 27.394531 C 36.703125 27.761719 35.636719 27.988281 34.527344 27.988281 C 29.96875 27.988281 26.289062 24.5625 26.289062 20.339844 C 26.289062 16.113281 29.96875 12.6875 34.527344 12.6875 C 39.085938 12.6875 42.765625 16.113281 42.765625 20.339844 C 43.925781 31.574219 30.453125 39.523438 30.453125 39.523438 L 29.390625 38.265625 C 29.390625 38.242188 38.300781 31.4375 37.675781 27.394531 Z M 37.675781 27.394531 " fill-opacity="1" fill-rule="nonzero"/></g></svg>
