<svg xmlns="http://www.w3.org/2000/svg" xmlns:xlink="http://www.w3.org/1999/xlink" width="70" zoomAndPan="magnify" viewBox="0 0 52.5 52.499999" height="70" preserveAspectRatio="xMidYMid meet" version="1.0"><defs><clipPath id="c5c1244bef"><path d="M 0 0 L 52.003906 0 L 52.003906 52.003906 L 0 52.003906 Z M 0 0 " clip-rule="nonzero"/></clipPath><clipPath id="4681ea77df"><path d="M 26.25 0 C 11.753906 0 0 11.753906 0 26.25 C 0 40.746094 11.753906 52.5 26.25 52.5 C 40.746094 52.5 52.5 40.746094 52.5 26.25 C 52.5 11.753906 40.746094 0 26.25 0 " clip-rule="nonzero"/></clipPath><clipPath id="d4c6e97a45"><path d="M 10.449219 11.140625 L 41.949219 11.140625 L 41.949219 41.140625 L 10.449219 41.140625 Z M 10.449219 11.140625 " clip-rule="nonzero"/></clipPath></defs><g clip-path="url(#c5c1244bef)"><g clip-path="url(#4681ea77df)"><path fill="#c84281" d="M 0 0 L 52.5 0 L 52.5 52.5 L 0 52.5 Z M 0 0 " fill-opacity="1" fill-rule="nonzero"/></g></g><g clip-path="url(#d4c6e97a45)"><path fill="#ffffff" d="M 22.507812 11.167969 C 15.960938 11.167969 10.519531 15.90625 10.519531 21.863281 C 10.519531 24.722656 11.800781 27.320312 13.839844 29.238281 L 13.773438 29.550781 C 13.316406 30.890625 12.1875 31.648438 11.515625 31.890625 C 11.125 32.027344 10.804688 32.238281 10.625 32.605469 C 10.449219 32.96875 10.554688 33.476562 10.820312 33.738281 C 11.445312 34.363281 12.257812 34.300781 12.851562 34.308594 C 15.078125 34.335938 17.707031 33.167969 19.296875 32.378906 L 19.316406 32.371094 L 19.859375 32.054688 L 19.652344 31.992188 L 19.675781 31.996094 C 20.5625 32.203125 21.492188 32.265625 22.402344 32.265625 C 28.160156 32.265625 33.113281 28.839844 34.210938 23.90625 C 34.355469 23.25 34.433594 22.566406 34.433594 21.863281 C 34.433594 15.910156 29.054688 11.167969 22.507812 11.167969 Z M 22.507812 12.53125 C 28.394531 12.53125 33.066406 16.730469 33.066406 21.863281 C 33.066406 22.46875 33 23.050781 32.875 23.613281 C 31.941406 27.824219 27.617188 30.90625 22.402344 30.90625 C 21.558594 30.90625 20.730469 30.839844 19.988281 30.671875 L 19.6875 30.582031 L 18.675781 31.164062 C 17.167969 31.914062 14.5625 32.96875 12.867188 32.945312 C 12.632812 32.945312 12.613281 32.902344 12.449219 32.882812 C 13.421875 32.410156 14.542969 31.550781 15.078125 29.972656 L 15.085938 29.9375 L 15.332031 28.789062 L 15.03125 28.523438 C 13.074219 26.820312 11.882812 24.457031 11.882812 21.863281 C 11.882812 16.734375 16.621094 12.53125 22.507812 12.53125 Z M 16.667969 17.292969 L 16.667969 18.65625 L 28.285156 18.65625 L 28.285156 17.292969 Z M 16.667969 20.695312 L 16.667969 22.058594 L 28.285156 22.058594 L 28.285156 20.695312 Z M 35.652344 23.550781 C 35.617188 23.769531 35.59375 23.988281 35.546875 24.203125 C 35.492188 24.4375 35.421875 24.664062 35.355469 24.898438 C 38.5 26.105469 40.574219 28.542969 40.574219 31.253906 C 40.574219 33.195312 39.558594 35.011719 37.710938 36.371094 L 37.339844 36.644531 L 37.453125 37.089844 C 37.824219 38.496094 39.113281 39.222656 40.007812 39.707031 C 38.59375 39.898438 35.511719 39.578125 33.964844 37.753906 L 33.703125 37.445312 L 33.308594 37.527344 C 32.6875 37.648438 31.96875 37.710938 31.101562 37.710938 C 26.851562 37.710938 23.402344 36.070312 22.058594 33.617188 C 21.503906 33.605469 20.984375 33.570312 20.5 33.511719 C 21.769531 36.855469 25.84375 39.070312 31.101562 39.070312 C 31.890625 39.070312 32.574219 39.023438 33.191406 38.929688 C 34.699219 40.449219 37.160156 41.109375 39.148438 41.109375 C 39.28125 41.109375 39.410156 41.109375 39.535156 41.101562 C 40.691406 41.050781 41.445312 40.785156 41.777344 40.3125 C 41.925781 40.101562 41.976562 39.851562 41.917969 39.605469 C 41.804688 39.117188 41.355469 38.878906 40.734375 38.546875 C 40.121094 38.21875 39.316406 37.785156 38.941406 37.136719 C 40.855469 35.566406 41.9375 33.449219 41.9375 31.253906 C 41.9375 27.914062 39.433594 24.933594 35.652344 23.550781 Z M 16.667969 24.097656 L 16.667969 25.460938 L 24.867188 25.460938 L 24.867188 24.097656 Z M 33.761719 28.183594 C 33.417969 28.660156 33.042969 29.117188 32.628906 29.542969 L 35.800781 29.542969 L 35.800781 28.183594 Z M 30.054688 31.585938 C 29.109375 32.148438 28.078125 32.609375 26.980469 32.945312 L 35.800781 32.945312 L 35.800781 31.585938 Z M 30.054688 31.585938 " fill-opacity="1" fill-rule="nonzero"/></g></svg>
