<svg xmlns="http://www.w3.org/2000/svg" xmlns:xlink="http://www.w3.org/1999/xlink" viewBox="0 0 70 70"><defs><clipPath id="clippath"><circle cx="35" cy="35" r="35" fill="none"/></clipPath><clipPath id="clippath-1"><rect x="25.89" y="16.44" width="25.5" height="18.24" fill="none"/></clipPath><clipPath id="clippath-2"><rect x="27.05" y="34.68" width="25.51" height="20.87" fill="none"/></clipPath><clipPath id="clippath-3"><rect x="13.44" y="26.57" width="25.19" height="22.02" fill="none"/></clipPath></defs><g clip-path="url(#clippath)"><path d="M0,0h70v70H0V0Z" fill="#c2850c"/></g><g clip-path="url(#clippath-1)"><path d="M40.62,34.22c-.23,0-.43-.07-.6-.22-.18-.16-.29-.37-.3-.62-.01-.24.06-.46.23-.64l.79-.89c.18-.19.4-.29.67-.29h6.7c.25,0,.46-.09.63-.26.18-.17.26-.38.26-.63v-11.56c0-.24-.09-.45-.26-.63s-.38-.26-.63-.26h-19.56c-.24,0-.45.09-.62.26s-.26.38-.26.63v6.22c0,.24-.09.45-.26.63-.18.17-.38.26-.63.26s-.46-.09-.63-.26-.26-.38-.26-.63v-6.22c0-.35.07-.69.2-1.02s.33-.62.58-.86.54-.44.86-.58.67-.2,1.02-.2h19.56c.35,0,.7.07,1.02.2s.62.33.86.58.44.54.58.86.2.67.2,1.02v11.56c0,.35-.06.69-.2,1.02-.14.33-.33.62-.58.87-.25.25-.54.44-.86.57s-.67.2-1.02.2h-6.3l-.53.6c-.18.19-.39.29-.66.29Z" fill="#fff"/></g><g clip-path="url(#clippath-2)"><path d="M40.02,55.56c-.27,0-.49-.1-.67-.29l-2.91-3.26h-6.11c-.35,0-.69-.07-1.02-.2s-.62-.33-.86-.58c-.25-.25-.44-.54-.58-.86s-.2-.67-.2-1.02v-11.56c0-.35.07-.69.2-1.02.14-.33.33-.61.58-.86s.54-.44.86-.57.67-.2,1.02-.2h19.56c.35,0,.69.07,1.02.2.33.14.61.33.86.57.25.25.44.54.57.86.14.33.2.67.2,1.02v11.56c0,.35-.07.69-.2,1.02s-.33.62-.57.86c-.25.25-.54.44-.86.58-.33.14-.67.2-1.02.2h-6.3l-2.92,3.26c-.18.19-.39.29-.66.29ZM30.33,36.89c-.24,0-.45.09-.63.26-.17.17-.26.38-.26.63v11.56c0,.24.09.45.26.63.18.17.38.26.63.26h6.5c.26,0,.48.1.67.29l2.52,2.82,2.5-2.82c.18-.2.4-.29.67-.29h6.7c.24,0,.46-.09.63-.26.17-.18.26-.38.26-.63v-11.56c0-.24-.09-.46-.26-.63s-.38-.26-.63-.26h-19.56Z" fill="#fff"/></g><path d="M40.11,50.22c-.41,0-.81-.04-1.21-.12-.4-.08-.79-.2-1.17-.36-.38-.15-.74-.34-1.08-.57-.34-.23-.65-.48-.94-.77-.29-.29-.55-.6-.77-.94s-.42-.7-.57-1.08c-.15-.38-.27-.77-.35-1.16-.08-.4-.12-.81-.12-1.22s.04-.81.12-1.21c.08-.4.2-.79.35-1.17.16-.38.35-.73.57-1.07s.48-.66.77-.94c.29-.29.6-.55.94-.77.34-.23.7-.42,1.08-.57.38-.16.77-.28,1.17-.36.4-.08.81-.12,1.21-.12s.81.04,1.21.12c.4.08.79.2,1.17.36.38.15.74.34,1.08.57.34.23.65.48.94.77.29.29.55.6.77.94s.42.7.57,1.07c.16.38.28.77.35,1.17.08.4.12.81.12,1.21s-.04.81-.12,1.22c-.08.4-.19.79-.35,1.16-.16.38-.35.74-.57,1.08s-.48.66-.77.94c-.29.29-.6.55-.94.77-.34.23-.7.42-1.08.57-.38.16-.77.28-1.17.36-.4.08-.81.12-1.21.12ZM40.11,39.56c-.59,0-1.15.11-1.7.34-.54.23-1.02.55-1.44.96s-.74.9-.96,1.44c-.23.54-.34,1.11-.34,1.7s.11,1.16.34,1.7.55,1.03.96,1.44.9.74,1.44.96c.55.22,1.11.34,1.7.34s1.16-.11,1.7-.34c.54-.23,1.02-.55,1.44-.96s.74-.9.96-1.44.34-1.11.34-1.7-.11-1.15-.34-1.7c-.23-.55-.55-1.03-.96-1.44s-.9-.74-1.44-.96c-.54-.22-1.11-.34-1.7-.34Z" fill="#fff"/><path d="M40.11,47.11c-.35,0-.69-.07-1.02-.2-.33-.14-.62-.33-.86-.58-.25-.25-.44-.54-.58-.86s-.2-.67-.2-1.02c0-.25.09-.46.26-.63.17-.18.38-.26.62-.26s.46.09.63.26c.18.17.26.38.26.63s.09.45.26.63c.18.17.38.26.63.26s.46-.09.63-.26c.17-.18.26-.38.26-.63s.09-.46.26-.63c.17-.18.38-.26.63-.26s.45.09.63.26.26.38.26.63c0,.35-.07.69-.2,1.02s-.33.62-.57.86c-.25.25-.54.44-.86.58-.33.14-.67.2-1.02.2Z" fill="#fff"/><g clip-path="url(#clippath-3)"><path d="M25.79,47.56c-.26,0-.48-.1-.66-.29l-2.92-3.26h-6.1c-.35,0-.69-.06-1.02-.2s-.62-.33-.86-.58-.44-.54-.58-.86-.2-.67-.2-1.02v-11.55c0-.35.07-.7.2-1.02s.33-.62.58-.86.54-.44.86-.58c.33-.13.67-.2,1.02-.2h19.56c.35,0,.7.07,1.02.2.33.14.62.33.86.58s.44.54.58.86c.13.33.2.67.2,1.02v3.55c0,.24-.09.46-.26.63s-.38.26-.63.26-.45-.09-.63-.26c-.17-.17-.26-.38-.26-.63v-3.55c0-.25-.09-.46-.26-.63-.17-.18-.38-.26-.63-.26h-19.56c-.24,0-.45.09-.63.26s-.26.38-.26.63v11.55c0,.25.09.46.26.63s.38.26.63.26h6.5c.27,0,.49.1.67.29l3.18,3.55c.17.19.24.4.23.65-.01.24-.11.45-.3.62-.17.15-.37.22-.59.22Z" fill="#fff"/></g><path d="M42.78,21.78h-11.56c-.24,0-.45-.09-.62-.26-.18-.17-.26-.38-.26-.63s.09-.45.26-.63c.17-.17.38-.26.62-.26h11.56c.24,0,.46.09.63.26.17.18.26.38.26.63s-.09.46-.26.63-.38.26-.63.26Z" fill="#fff"/><path d="M38.33,25.33h-7.11c-.24,0-.45-.09-.62-.26-.18-.17-.26-.38-.26-.63s.09-.45.26-.62c.17-.18.38-.26.62-.26h7.11c.25,0,.46.09.63.26.18.17.26.38.26.62s-.09.46-.26.63c-.17.18-.38.26-.63.26Z" fill="#fff"/><path d="M25.89,41.94c-.24,0-.46-.09-.63-.26l-3.73-3.73c-2.35-2.35-2.11-4.71-.89-5.91s3.12-1.38,5.25.35c.51-.47,1.1-.8,1.76-1.01.66-.2,1.33-.26,2.02-.16.48.1.92.3,1.3.62s.67.7.85,1.16c.09.23.09.46,0,.68s-.26.38-.49.48c-.23.09-.46.09-.68,0-.23-.1-.38-.26-.48-.49-.16-.4-.46-.64-.89-.7-.53-.02-1.05.09-1.53.31s-.9.54-1.23.96c-.18.18-.38.27-.63.27s-.46-.09-.63-.27c-1.41-1.41-2.78-1.53-3.39-.89-.62.64-.5,1.97.89,3.39l3.76,3.73c.17.17.26.38.26.63s-.09.46-.26.63c-.18.16-.38.24-.62.23Z" fill="#fff"/></svg>