<svg xmlns="http://www.w3.org/2000/svg" xmlns:xlink="http://www.w3.org/1999/xlink" width="70" zoomAndPan="magnify" viewBox="0 0 52.5 52.499999" height="70" preserveAspectRatio="xMidYMid meet" version="1.0"><defs><clipPath id="6731daf382"><path d="M 0 0 L 52.003906 0 L 52.003906 52.003906 L 0 52.003906 Z M 0 0 " clip-rule="nonzero"/></clipPath><clipPath id="08d0b5f1ff"><path d="M 26.25 0 C 11.753906 0 0 11.753906 0 26.25 C 0 40.746094 11.753906 52.5 26.25 52.5 C 40.746094 52.5 52.5 40.746094 52.5 26.25 C 52.5 11.753906 40.746094 0 26.25 0 " clip-rule="nonzero"/></clipPath><clipPath id="de203c6322"><path d="M 7.554688 7.125 L 45.054688 7.125 L 45.054688 45.375 L 7.554688 45.375 Z M 7.554688 7.125 " clip-rule="nonzero"/></clipPath></defs><g clip-path="url(#6731daf382)"><g clip-path="url(#08d0b5f1ff)"><path fill="#4a50c4" d="M 0 0 L 52.5 0 L 52.5 52.5 L 0 52.5 Z M 0 0 " fill-opacity="1" fill-rule="nonzero"/></g></g><g clip-path="url(#de203c6322)"><path fill="#ffffff" d="M 44.679688 19.980469 C 43.351562 19.105469 39.941406 16.289062 39.941406 13.886719 L 39.941406 13.035156 C 39.941406 12.800781 39.859375 12.601562 39.691406 12.433594 C 39.527344 12.269531 39.324219 12.1875 39.089844 12.1875 L 35.679688 12.1875 C 35.445312 12.1875 35.246094 12.269531 35.078125 12.433594 C 34.914062 12.601562 34.828125 12.800781 34.828125 13.035156 L 34.828125 31.734375 C 34.828125 31.96875 34.914062 32.167969 35.078125 32.332031 C 35.246094 32.5 35.445312 32.582031 35.679688 32.582031 L 39.089844 32.582031 C 39.324219 32.582031 39.527344 32.5 39.691406 32.332031 C 39.859375 32.167969 39.941406 31.96875 39.941406 31.734375 L 39.941406 30.882812 C 40.027344 30.242188 40.3125 29.703125 40.792969 29.269531 L 40.792969 34.28125 L 33.125 34.28125 C 33.152344 34.140625 33.164062 34 33.167969 33.855469 C 33.167969 33.570312 33.113281 33.296875 33 33.035156 C 32.890625 32.769531 32.730469 32.539062 32.527344 32.339844 C 32.324219 32.140625 32.089844 31.988281 31.820312 31.882812 C 31.554688 31.777344 31.28125 31.726562 30.992188 31.734375 L 29.714844 31.734375 C 29.71875 31.355469 29.605469 31.015625 29.382812 30.710938 C 28.820312 29.960938 28.117188 29.378906 27.273438 28.960938 C 26.433594 28.539062 25.542969 28.332031 24.601562 28.332031 L 20.015625 28.332031 L 19.394531 27.101562 L 16.597656 21.535156 L 16.929688 21.535156 C 17.457031 21.535156 17.976562 21.476562 18.488281 21.359375 C 19.003906 21.242188 19.496094 21.066406 19.96875 20.835938 C 20.441406 20.601562 20.878906 20.320312 21.285156 19.984375 C 21.691406 19.652344 22.054688 19.277344 22.375 18.859375 C 22.695312 18.441406 22.960938 17.996094 23.175781 17.515625 C 23.390625 17.035156 23.550781 16.539062 23.648438 16.023438 C 23.75 15.507812 23.789062 14.988281 23.765625 14.464844 C 23.746094 13.941406 23.664062 13.425781 23.523438 12.917969 C 23.382812 12.414062 23.1875 11.929688 22.933594 11.46875 C 22.683594 11.007812 22.378906 10.582031 22.027344 10.191406 C 21.675781 9.800781 21.285156 9.457031 20.851562 9.15625 C 20.421875 8.855469 19.960938 8.609375 19.472656 8.417969 C 18.980469 8.222656 18.476562 8.085938 17.957031 8.011719 C 17.433594 7.933594 16.914062 7.917969 16.386719 7.960938 C 15.863281 8.003906 15.351562 8.105469 14.851562 8.269531 C 14.347656 8.429688 13.875 8.648438 13.421875 8.917969 C 12.972656 9.191406 12.558594 9.511719 12.183594 9.878906 C 11.808594 10.246094 11.480469 10.652344 11.195312 11.09375 C 10.914062 11.535156 10.6875 12.007812 10.515625 12.503906 C 10.34375 13 10.226562 13.507812 10.171875 14.027344 C 10.117188 14.550781 10.125 15.074219 10.191406 15.59375 C 10.257812 16.113281 10.382812 16.621094 10.566406 17.113281 C 10.75 17.605469 10.988281 18.066406 11.28125 18.503906 C 11.574219 18.941406 11.910156 19.339844 12.292969 19.699219 C 11.558594 20.273438 10.894531 20.917969 10.304688 21.644531 C 9.71875 22.367188 9.21875 23.148438 8.808594 23.984375 C 8.398438 24.820312 8.085938 25.695312 7.875 26.601562 C 7.664062 27.511719 7.558594 28.429688 7.554688 29.363281 L 7.554688 38.53125 C 7.554688 38.976562 7.601562 39.421875 7.6875 39.859375 C 7.773438 40.296875 7.902344 40.722656 8.074219 41.132812 C 8.246094 41.546875 8.457031 41.9375 8.707031 42.308594 C 8.953125 42.679688 9.238281 43.023438 9.554688 43.339844 C 9.871094 43.65625 10.214844 43.9375 10.585938 44.183594 C 10.957031 44.433594 11.351562 44.640625 11.765625 44.8125 C 12.179688 44.984375 12.605469 45.113281 13.042969 45.199219 C 13.484375 45.285156 13.925781 45.332031 14.375 45.332031 L 23.75 45.332031 C 23.984375 45.332031 24.1875 45.246094 24.351562 45.082031 C 24.519531 44.914062 24.601562 44.714844 24.601562 44.480469 L 24.601562 41.929688 C 24.601562 41.59375 24.667969 41.269531 24.796875 40.957031 C 24.925781 40.644531 25.109375 40.367188 25.351562 40.128906 C 25.589844 39.890625 25.867188 39.703125 26.179688 39.574219 C 26.492188 39.445312 26.820312 39.382812 27.160156 39.382812 L 37.386719 39.382812 C 37.726562 39.382812 38.050781 39.445312 38.363281 39.574219 C 38.675781 39.703125 38.953125 39.890625 39.195312 40.128906 C 39.433594 40.367188 39.617188 40.644531 39.746094 40.957031 C 39.878906 41.269531 39.941406 41.59375 39.941406 41.929688 L 39.941406 44.480469 C 39.941406 44.714844 40.027344 44.914062 40.191406 45.082031 C 40.359375 45.246094 40.558594 45.332031 40.792969 45.332031 L 44.203125 45.332031 C 44.4375 45.332031 44.640625 45.246094 44.804688 45.082031 C 44.972656 44.914062 45.054688 44.714844 45.054688 44.480469 L 45.054688 35.132812 C 45.054688 34.898438 44.972656 34.695312 44.804688 34.53125 C 44.640625 34.363281 44.4375 34.28125 44.203125 34.28125 L 42.5 34.28125 L 42.5 27.816406 C 43.164062 27.339844 43.859375 26.914062 44.585938 26.539062 C 44.898438 26.382812 45.054688 26.132812 45.054688 25.785156 L 45.054688 20.683594 C 45.058594 20.382812 44.933594 20.148438 44.679688 19.980469 Z M 31.417969 33.855469 C 31.417969 33.976562 31.378906 34.074219 31.296875 34.15625 C 31.210938 34.242188 31.113281 34.28125 30.992188 34.28125 L 24.175781 34.28125 C 24.058594 34.28125 23.957031 34.242188 23.875 34.15625 C 23.792969 34.074219 23.75 33.976562 23.75 33.855469 C 23.75 33.738281 23.792969 33.640625 23.875 33.558594 C 23.957031 33.472656 24.058594 33.433594 24.175781 33.433594 L 30.992188 33.433594 C 31.113281 33.433594 31.210938 33.472656 31.296875 33.558594 C 31.378906 33.640625 31.417969 33.738281 31.417969 33.855469 Z M 20.339844 34.28125 C 20.230469 34.285156 20.125 34.304688 20.023438 34.339844 L 19.769531 33.433594 L 22.085938 33.433594 C 22.03125 33.714844 22.03125 34 22.085938 34.28125 Z M 24.601562 30.03125 C 25.273438 30.03125 25.90625 30.183594 26.507812 30.480469 C 27.105469 30.78125 27.609375 31.199219 28.011719 31.734375 L 18.183594 31.734375 C 17.699219 31.730469 17.253906 31.605469 16.839844 31.351562 C 16.429688 31.097656 16.117188 30.753906 15.898438 30.320312 L 14.441406 27.414062 C 14.5625 27.125 14.75 26.886719 15.003906 26.703125 C 15.257812 26.515625 15.542969 26.40625 15.855469 26.378906 C 16.214844 26.34375 16.546875 26.414062 16.859375 26.585938 C 17.171875 26.761719 17.40625 27.007812 17.5625 27.332031 L 18.6875 29.566406 C 18.851562 29.894531 19.121094 30.050781 19.488281 30.03125 Z M 11.816406 14.734375 C 11.816406 14.402344 11.851562 14.070312 11.914062 13.742188 C 11.980469 13.410156 12.078125 13.09375 12.207031 12.785156 C 12.335938 12.472656 12.492188 12.179688 12.679688 11.902344 C 12.867188 11.625 13.078125 11.367188 13.316406 11.128906 C 13.554688 10.894531 13.8125 10.679688 14.089844 10.496094 C 14.371094 10.308594 14.664062 10.152344 14.972656 10.023438 C 15.285156 9.894531 15.605469 9.800781 15.933594 9.734375 C 16.261719 9.667969 16.59375 9.636719 16.929688 9.636719 C 17.265625 9.636719 17.597656 9.667969 17.929688 9.734375 C 18.257812 9.800781 18.578125 9.894531 18.886719 10.023438 C 19.199219 10.152344 19.492188 10.308594 19.773438 10.496094 C 20.050781 10.679688 20.308594 10.894531 20.546875 11.128906 C 20.785156 11.367188 20.996094 11.625 21.183594 11.902344 C 21.371094 12.179688 21.527344 12.472656 21.65625 12.785156 C 21.785156 13.09375 21.882812 13.410156 21.945312 13.742188 C 22.011719 14.070312 22.042969 14.402344 22.042969 14.734375 C 22.042969 15.070312 22.011719 15.402344 21.945312 15.730469 C 21.882812 16.058594 21.785156 16.378906 21.65625 16.6875 C 21.527344 16.996094 21.371094 17.289062 21.183594 17.566406 C 20.996094 17.847656 20.785156 18.105469 20.546875 18.339844 C 20.308594 18.578125 20.050781 18.789062 19.773438 18.976562 C 19.492188 19.160156 19.199219 19.316406 18.886719 19.445312 C 18.578125 19.574219 18.257812 19.671875 17.929688 19.738281 C 17.597656 19.800781 17.265625 19.835938 16.929688 19.835938 C 16.59375 19.835938 16.261719 19.800781 15.933594 19.738281 C 15.605469 19.671875 15.285156 19.574219 14.972656 19.445312 C 14.664062 19.316406 14.371094 19.160156 14.089844 18.976562 C 13.8125 18.789062 13.554688 18.578125 13.316406 18.339844 C 13.078125 18.105469 12.867188 17.847656 12.679688 17.566406 C 12.492188 17.289062 12.335938 16.996094 12.207031 16.6875 C 12.078125 16.378906 11.980469 16.058594 11.914062 15.730469 C 11.851562 15.402344 11.816406 15.070312 11.816406 14.734375 Z M 9.261719 29.363281 C 9.261719 28.515625 9.359375 27.683594 9.5625 26.863281 C 9.761719 26.042969 10.054688 25.253906 10.445312 24.503906 C 10.835938 23.753906 11.308594 23.0625 11.863281 22.421875 C 12.417969 21.785156 13.042969 21.222656 13.734375 20.734375 C 13.972656 20.863281 14.214844 20.972656 14.46875 21.066406 L 16.273438 24.679688 C 16.074219 24.664062 15.871094 24.664062 15.667969 24.679688 C 15.316406 24.710938 14.972656 24.796875 14.644531 24.9375 C 14.316406 25.078125 14.019531 25.265625 13.75 25.496094 C 13.480469 25.730469 13.253906 26 13.070312 26.304688 C 12.886719 26.609375 12.753906 26.933594 12.667969 27.28125 C 12.621094 27.484375 12.644531 27.679688 12.738281 27.867188 L 14.375 31.085938 C 14.71875 31.773438 15.214844 32.328125 15.863281 32.75 C 16.507812 33.167969 17.21875 33.398438 17.988281 33.433594 L 19.207031 37.683594 L 9.261719 37.683594 Z M 9.328125 39.382812 L 19.488281 39.382812 L 19.488281 43.628906 L 14.375 43.628906 C 13.769531 43.632812 13.183594 43.527344 12.617188 43.320312 C 12.046875 43.113281 11.535156 42.816406 11.070312 42.425781 C 10.609375 42.039062 10.230469 41.582031 9.929688 41.058594 C 9.628906 40.535156 9.429688 39.976562 9.328125 39.382812 Z M 43.351562 43.628906 L 41.648438 43.628906 L 41.648438 41.929688 C 41.648438 41.652344 41.621094 41.375 41.566406 41.101562 C 41.511719 40.828125 41.429688 40.5625 41.324219 40.304688 C 41.214844 40.046875 41.085938 39.800781 40.929688 39.570312 C 40.773438 39.339844 40.597656 39.125 40.398438 38.925781 C 40.203125 38.730469 39.984375 38.554688 39.753906 38.398438 C 39.519531 38.242188 39.273438 38.113281 39.015625 38.003906 C 38.757812 37.898438 38.492188 37.816406 38.21875 37.761719 C 37.941406 37.707031 37.664062 37.683594 37.386719 37.683594 L 27.160156 37.683594 C 26.878906 37.683594 26.601562 37.707031 26.328125 37.761719 C 26.054688 37.816406 25.785156 37.898438 25.527344 38.003906 C 25.269531 38.113281 25.023438 38.242188 24.792969 38.398438 C 24.558594 38.554688 24.34375 38.730469 24.144531 38.925781 C 23.949219 39.125 23.769531 39.339844 23.617188 39.570312 C 23.460938 39.800781 23.328125 40.046875 23.222656 40.304688 C 23.113281 40.5625 23.035156 40.828125 22.980469 41.101562 C 22.925781 41.375 22.898438 41.652344 22.898438 41.929688 L 22.898438 43.628906 L 21.191406 43.628906 L 21.191406 35.980469 L 43.351562 35.980469 Z M 36.535156 30.882812 L 36.535156 13.886719 L 38.238281 13.886719 L 38.238281 30.882812 Z M 43.351562 25.273438 C 42.113281 25.9375 40.976562 26.75 39.941406 27.703125 L 39.941406 17.929688 C 40.945312 19.140625 42.082031 20.203125 43.351562 21.125 Z M 43.351562 25.273438 " fill-opacity="1" fill-rule="nonzero"/></g></svg>
