<svg id="Layer_1" xmlns="http://www.w3.org/2000/svg" xmlns:xlink="http://www.w3.org/1999/xlink" viewBox="0 0 70 70"><defs><clipPath id="clippath"><circle cx="35" cy="35" r="35" fill="none"/></clipPath><clipPath id="clippath-1"><rect x="13.93" y="14.85" width="42" height="40" fill="none"/></clipPath></defs><g clip-path="url(#clippath)"><path d="M0,0h70v70H0V0Z" fill="#c84281"/></g><g clip-path="url(#clippath-1)"><path d="M30.01,14.89c-8.73,0-15.98,6.32-15.98,14.26,0,3.81,1.71,7.28,4.43,9.83l-.09.42c-.61,1.79-2.11,2.8-3.01,3.12-.52.18-.95.46-1.19.95-.23.48-.09,1.16.26,1.51.83.83,1.92.75,2.71.76,2.97.04,6.47-1.52,8.59-2.57h.03s.72-.43.72-.43l-.28-.08h.03c1.18.28,2.42.36,3.64.36,7.68,0,14.28-4.57,15.74-11.15.19-.88.3-1.79.3-2.72,0-7.94-7.17-14.26-15.9-14.26ZM30.01,16.71c7.85,0,14.08,5.6,14.08,12.44,0,.81-.09,1.58-.26,2.33-1.24,5.61-7.01,9.72-13.96,9.72-1.13,0-2.23-.09-3.22-.31l-.4-.12-1.35.78c-2.01,1-5.48,2.41-7.74,2.38-.31,0-.34-.06-.56-.08,1.3-.63,2.79-1.78,3.51-3.88v-.05s.34-1.53.34-1.53l-.4-.35c-2.61-2.27-4.2-5.42-4.2-8.88,0-6.84,6.32-12.44,14.17-12.44ZM22.22,23.06v1.82h15.49v-1.82h-15.49ZM22.22,27.59v1.82h15.49v-1.82h-15.49ZM47.54,31.4c-.05.29-.08.58-.14.87-.07.31-.17.61-.26.93,4.19,1.61,6.96,4.86,6.96,8.47,0,2.59-1.35,5.01-3.82,6.82l-.49.36.15.59c.49,1.88,2.21,2.84,3.41,3.49-1.89.26-5.99-.17-8.06-2.6l-.35-.41-.53.11c-.83.16-1.79.24-2.94.24-5.67,0-10.27-2.19-12.06-5.46-.74-.02-1.43-.06-2.08-.14,1.69,4.46,7.13,7.41,14.14,7.41,1.05,0,1.96-.06,2.79-.19,2.01,2.03,5.29,2.91,7.94,2.91.18,0,.35,0,.52-.01,1.54-.07,2.55-.42,2.99-1.05.2-.28.27-.61.19-.94-.15-.65-.75-.97-1.58-1.41-.82-.44-1.89-1.02-2.39-1.88,2.55-2.09,3.99-4.92,3.99-7.84,0-4.45-3.34-8.43-8.38-10.27ZM22.22,32.13v1.82h10.93v-1.82h-10.93ZM45.02,37.58c-.46.64-.96,1.24-1.51,1.81h4.23v-1.81h-2.72ZM40.07,42.11c-1.26.75-2.64,1.36-4.1,1.81h11.76v-1.81h-7.66Z" fill="#fff"/></g></svg>