<svg xmlns="http://www.w3.org/2000/svg" xmlns:xlink="http://www.w3.org/1999/xlink" viewBox="0 0 70 70"><defs><clipPath id="clippath"><circle cx="35" cy="35" r="35" fill="none"/></clipPath><clipPath id="clippath-1"><rect x="15.46" y="28.95" width="22.68" height="25.28" fill="none"/></clipPath><clipPath id="clippath-2"><rect x="34.69" y="15.46" width="19.55" height="23.83" fill="none"/></clipPath></defs><g clip-path="url(#clippath)"><path d="M0,0h70v70H0V0Z" fill="#40807e"/></g><g clip-path="url(#clippath-1)"><path d="M36.77,49.61c-.58-3.47-2.87-6.47-6.18-7.9,1.49-1.21,2.45-3.06,2.45-5.13,0-3.65-2.97-6.61-6.61-6.61s-6.61,2.96-6.61,6.61c0,2.07.96,3.92,2.45,5.13-3.3,1.43-5.6,4.43-6.18,7.9l-.52,3.13c-.11.66.34,1.28,1,1.39.66.11,1.28-.33,1.39-.99l.52-3.13c.65-3.91,3.99-6.74,7.96-6.74s7.31,2.83,7.96,6.74l.52,3.13c.1.59.61,1.01,1.19,1.01.75,0,1.32-.67,1.19-1.41l-.52-3.13ZM26.43,32.38c2.31,0,4.19,1.89,4.19,4.2s-1.88,4.19-4.19,4.19-4.2-1.88-4.2-4.19,1.89-4.2,4.2-4.2Z" fill="#fff"/></g><path d="M44.57,20.78c-2.39-1.38-5.44.34-5.44,3.14,0,3.77,4.76,5.86,4.96,5.95.31.13.65.13.95,0,.21-.09,4.96-2.17,4.96-5.95,0-2.81-3.05-4.52-5.44-3.14ZM44.57,27.42c-1.14-.61-3.02-1.93-3.02-3.49,0-1.11,1.38-1.63,2.11-.8.48.54,1.33.54,1.81,0,.74-.83,2.12-.31,2.12.8,0,1.56-1.89,2.89-3.03,3.49Z" fill="#fff"/><g clip-path="url(#clippath-2)"><path d="M49.4,15.46h-9.67c-2.67,0-4.84,2.17-4.84,4.84v16.92c0,.99,1.14,1.56,1.93.96l4.52-3.38h8.06c2.67,0,4.83-2.17,4.83-4.83v-9.67c0-2.67-2.17-4.84-4.83-4.84ZM51.82,29.97c0,1.33-1.09,2.41-2.42,2.41h-8.46c-.26,0-.52.09-.72.24l-2.9,2.18v-14.51c0-1.33,1.09-2.42,2.42-2.42h9.67c1.33,0,2.42,1.09,2.42,2.42v9.67Z" fill="#fff"/></g></svg>