<svg id="Layer_2" xmlns="http://www.w3.org/2000/svg" viewBox="0 0 70 70"><circle cx="35" cy="35" r="35" fill="#005ea2"/><path d="M0,16.29c0,10.54.03,16.26.07,16.19.04-.06.07-.27.07-.47,0-.83.5-4,.83-5.27.52-1.99,1.06-3.65,1.65-5.04.09-.21.22-.53.29-.7.24-.58,1.26-2.62,1.63-3.25.2-.34.36-.63.36-.65,0-.06,1.14-1.77,1.7-2.55.99-1.37,3.07-3.83,3.58-4.24.1-.08.49-.44.86-.81,2.75-2.68,7.19-5.54,10.8-6.95.37-.14.85-.33,1.08-.43.55-.22,2.58-.85,3.26-1.02,2.09-.51,4.07-.85,5.53-.95.37-.02.71-.07.77-.1.06-.03-7.23-.06-16.19-.06H0s0,16.29,0,16.29M37.56.06c.08.03.44.08.81.1.37.03.85.08,1.08.11.23.03.67.1.98.14.31.04.69.11.84.14s.47.1.7.14c.6.12,2.3.53,2.87.7.27.08.63.19.81.24.48.14,1.99.7,2.66.98.33.14.68.29.79.33.27.1,2.73,1.34,3.13,1.57,7.17,4.18,12.21,9.97,15.3,17.57,1.2,2.94,2.11,6.78,2.32,9.73.03.38.07.78.1.88s.06-7.22.06-16.26V0s-16.29,0-16.29,0c-8.96,0-16.23.03-16.15.06M32.83,11.73c-1.72.14-2.09.19-3.5.53-4.92,1.19-9.26,3.96-12.43,7.97-.44.56-1.43,1.98-1.43,2.06,0,.02-.11.21-.25.43-.26.41-.94,1.73-1.24,2.43-.1.24-.22.4-.28.4-.36,0-1.34.6-1.99,1.22-4.07,3.87-3.29,13.25,1.28,15.48,2.02.98,2.65.46,1.94-1.61-.38-1.09-.39-1.15-.56-1.89-.18-.79-.33-1.71-.43-2.48-.09-.78-.09-3.73,0-4.44.24-1.83.64-3.58,1.08-4.73,1.27-3.31,2.54-5.31,4.86-7.64,2.52-2.53,5.98-4.6,8.89-5.31.14-.03.49-.13.78-.2,2.9-.79,7.2-.78,10.08.02.98.27,2.01.6,2.34.75.08.03.38.16.67.28.7.3,1.98.94,2.43,1.23.2.13.38.24.4.24.07,0,1.36.92,1.94,1.38,8.45,6.73,10.32,18.76,4.32,27.74-.3.44-.61.9-.7,1.01-.09.11-.33.41-.54.66-2.59,3.2-6.5,5.72-10.56,6.8-.97.26-.89.26-1.1-.09-.37-.63-1.16-1.22-1.9-1.41-.56-.15-4.23-.16-4.76-.01-3.37.9-3.09,5.68.37,6.21.89.14,4.09.05,4.57-.12,1.08-.38,1.93-1.33,2.12-2.34.06-.32.12-.37.64-.48.23-.05.55-.13.7-.18.15-.05.47-.14.7-.21,5.57-1.63,11.01-6.36,13.48-11.72q.49-1.07.88-1.22c3.93-1.56,5.64-8.38,3.35-13.37-.74-1.61-1.99-2.9-3.33-3.44-.43-.17-.36-.06-1.11-1.6-.26-.54-.59-1.16-.74-1.38-.14-.22-.26-.43-.26-.47s-.02-.07-.05-.09c-.03-.01-.27-.35-.54-.76-2.72-4.07-7.59-7.61-12.18-8.82-.8-.21-1.03-.27-1.47-.37-2.16-.48-4.2-.61-6.48-.43M33.49,17.75c-1.76.2-2.11.26-3.04.49-5.08,1.29-9.32,5.08-11.18,10.03-1.99,5.27-1.03,11.52,2.41,15.81.4.5.41.4-.14,1.9-.24.64-.39,1.05-.9,2.45-.41,1.11-.82,2.22-1.22,3.34-.12.34-.08.54.16.7q.23.15,2.43-.88c.42-.2.77-.36.78-.36.02,0,1.63-.74,2.82-1.3.36-.17.67-.31.68-.31s.31-.14.66-.31c.62-.3,1.06-.4,1.22-.26.07.06.81.35,1.38.53.28.09,1.26.34,1.98.49,1.61.35,4.48.32,6.29-.07,11.26-2.41,16.58-15.18,10.37-24.87-2.42-3.78-6.99-6.73-11.2-7.23l-1.17-.14c-.55-.07-1.87-.08-2.34-.03M35.78,19.46c5.14.51,9.39,3.37,11.76,7.91.76,1.45,1.17,2.8,1.52,4.98.1.59.1,2.74,0,3.34-.04.25-.11.67-.15.92-1.48,9.22-11.88,14.71-20.42,10.77-.76-.35-.47-.41-2.45.51-.32.15-.6.27-.61.27s-.42.19-.91.42-.89.42-.91.42-.31.14-.65.3c-.88.43-1.11.46-.94.14.09-.18.53-1.34,1.3-3.49.14-.39.3-.81.35-.94.33-.82.36-.71-.5-1.73-2.29-2.71-3.55-6.69-3.26-10.27.08-1.04.12-1.24.41-2.49,1.59-6.84,8.45-11.76,15.43-11.06M34.19,31.93c-1.7.22-2.51,2.31-1.41,3.65.71.87,2.06,1.09,2.94.48,2.03-1.4.9-4.44-1.53-4.13M41.54,31.92c-1.85.18-2.62,2.48-1.29,3.83,1.39,1.4,3.85.38,3.84-1.59,0-1.39-1.13-2.38-2.56-2.24M26.44,32.02c-2.37.9-1.75,4.34.79,4.34,2.4,0,3.12-3.14.98-4.25-.39-.2-1.35-.25-1.77-.1M69.9,37.47c-.02.16-.07.66-.11,1.1-.19,1.95-.72,4.68-1.2,6.19l-.35,1.12c-1.3,4.1-3.81,8.58-6.61,11.79-1.27,1.46-3.08,3.27-4.01,4.01-3.26,2.6-5.23,3.84-8.42,5.29-1.26.57-3.35,1.33-4.56,1.65-.2.05-.61.16-.89.24-.69.18-2.45.58-2.94.65-.75.12-1.93.27-2.48.31-.31.03-.62.07-.7.1-.08.03,7.18.06,16.12.06h16.26s0-16.41,0-16.41c0-9.03-.01-16.42-.03-16.42s-.05.13-.06.3M0,53.64v16.36h16.43c9.04,0,16.37-.03,16.29-.06s-.46-.08-.84-.1c-5.57-.39-11.45-2.48-16.52-5.87-3.7-2.47-7.83-6.74-9.96-10.27-.64-1.06-.84-1.4-.98-1.64-.2-.34-1.34-2.63-1.5-3.01-1.5-3.52-2.48-7.36-2.78-10.88-.04-.44-.08-.81-.1-.83C.02,37.3,0,44.65,0,53.64" fill="#fff" fill-rule="evenodd"/></svg>