<svg xmlns="http://www.w3.org/2000/svg" xmlns:xlink="http://www.w3.org/1999/xlink" viewBox="0 0 70 70"><defs><clipPath id="clippath"><circle cx="35" cy="35" r="35" fill="none"/></clipPath><clipPath id="clippath-1"><rect x="12.3" y="12.3" width="45" height="45" fill="none"/></clipPath></defs><g clip-path="url(#clippath)"><path d="M0,0h70v70H0V0Z" fill="#d73a33"/></g><g clip-path="url(#clippath-1)"><path d="M34.79,12.3c-12.43,0-22.48,10.07-22.48,22.5s10.06,22.5,22.48,22.5,22.52-10.07,22.52-22.5-10.08-22.5-22.52-22.5ZM50.37,25.8h-6.64c-.73-2.81-1.76-5.52-3.11-8.01,4.14,1.42,7.58,4.29,9.74,8.01ZM34.8,16.88c1.88,2.7,3.34,5.7,4.3,8.92h-8.6c.96-3.22,2.42-6.22,4.3-8.92ZM17.39,39.3c-.37-1.44-.58-2.95-.58-4.5s.21-3.06.58-4.5h7.59c-.18,1.47-.3,2.97-.3,4.5s.12,3.03.31,4.5h-7.6ZM19.22,43.8h6.64c.73,2.81,1.76,5.51,3.11,8.02-4.14-1.42-7.58-4.3-9.74-8.02ZM25.85,25.8h-6.64c2.16-3.72,5.6-6.6,9.74-8.02-1.35,2.51-2.38,5.21-3.11,8.02ZM34.8,52.72c-1.87-2.7-3.33-5.7-4.3-8.92h8.6c-.97,3.21-2.43,6.22-4.3,8.92ZM40.06,39.3h-10.53c-.21-1.47-.36-2.97-.36-4.5s.15-3.03.36-4.5h10.53c.22,1.47.36,2.97.36,4.5s-.15,3.03-.36,4.5ZM40.64,51.81c1.35-2.51,2.37-5.2,3.1-8.01h6.64c-2.17,3.72-5.61,6.59-9.74,8.01ZM44.61,39.3c.18-1.47.32-2.97.32-4.5s-.13-3.03-.32-4.5h7.59c.37,1.44.6,2.95.6,4.5s-.21,3.06-.6,4.5h-7.59Z" fill="#fff"/></g></svg>