<svg xmlns="http://www.w3.org/2000/svg" viewBox="0 0 400 400">
  <g fill-rule="evenodd">
    <path fill="#fff" d="M.006 93.1c.004 60.254.143 92.888.394 92.5.213-.33.391-1.536.394-2.68.014-4.765 2.872-22.843 4.763-30.12 2.946-11.343 6.051-20.839 9.417-28.8.512-1.21 1.267-3.007 1.678-3.993 1.386-3.322 7.22-14.978 9.292-18.564C27.075 99.486 28 97.823 28 97.746c0-.364 6.505-10.1 9.719-14.546 5.645-7.81 17.523-21.887 20.442-24.227.567-.455 2.788-2.538 4.935-4.628 15.715-15.299 41.108-31.642 61.711-39.717 2.086-.817 4.873-1.913 6.193-2.435 3.128-1.236 14.737-4.859 18.6-5.805 11.956-2.927 23.275-4.874 31.6-5.437 2.09-.142 4.07-.408 4.4-.592.33-.184-41.295-.34-92.5-.347L0 0l.006 93.1M214.6.37c.44.176 2.51.445 4.6.597 2.09.152 4.88.436 6.2.63 1.32.194 3.84.556 5.6.804 1.76.248 3.92.605 4.8.793.88.188 2.68.551 4 .806 3.452.666 13.121 3.037 16.4 4.022 1.54.463 3.61 1.078 4.6 1.367 2.75.804 11.392 3.994 15.2 5.61 1.87.794 3.91 1.637 4.534 1.873 1.528.579 15.608 7.634 17.866 8.952 40.975 23.914 69.782 56.993 87.414 100.376 6.839 16.826 12.062 38.77 13.235 55.6.153 2.2.414 4.45.58 5 .166.55.318-41.255.337-92.9L400 0l-93.1.025c-51.205.014-92.74.17-92.3.345m-27 66.661c-9.817.784-11.954 1.109-20 3.046-28.14 6.775-52.889 22.64-71.016 45.523-2.536 3.202-8.184 11.331-8.184 11.779 0 .113-.648 1.218-1.439 2.455-1.497 2.341-5.365 9.885-7.109 13.866-.594 1.356-1.259 2.3-1.619 2.3-2.061 0-7.65 3.424-11.369 6.966-23.23 22.121-18.792 75.695 7.326 88.431 11.526 5.62 15.133 2.62 11.059-9.197-2.15-6.239-2.245-6.559-3.192-10.8-1.002-4.486-1.913-9.769-2.448-14.2-.537-4.453-.531-21.314.009-25.4 1.383-10.453 3.679-20.476 6.185-27 7.273-18.928 14.524-30.316 27.789-43.636 14.389-14.451 34.177-26.274 50.78-30.342.785-.193 2.784-.719 4.442-1.169 16.543-4.495 41.142-4.456 57.586.09 5.6 1.549 11.467 3.413 13.4 4.26.44.192 2.15.917 3.8 1.61 4.023 1.69 11.307 5.376 13.908 7.039 1.159.742 2.194 1.348 2.3 1.348.389 0 7.795 5.274 11.089 7.897 48.288 38.447 58.986 107.18 24.668 158.492-1.696 2.536-3.507 5.129-4.024 5.763-.518.633-1.905 2.343-3.084 3.8-14.814 18.307-37.168 32.708-60.321 38.862-5.537 1.471-5.07 1.511-6.264-.528-2.11-3.6-6.644-6.968-10.856-8.065-3.211-.836-24.156-.895-27.216-.076-19.263 5.153-17.632 32.441 2.121 35.475 5.094.782 23.366.305 26.14-.682 6.147-2.188 11.027-7.596 12.092-13.398.336-1.829.682-2.088 3.647-2.719 1.32-.281 3.12-.737 4-1.014.88-.276 2.68-.818 4-1.205 31.831-9.315 62.897-36.336 77.022-66.993 2.824-6.13 2.817-6.121 5.032-6.998 22.452-8.891 32.239-47.904 19.169-76.411-4.226-9.218-11.357-16.588-19.001-19.64-2.478-.989-2.049-.369-6.337-9.16-1.502-3.08-3.396-6.638-4.208-7.908-.813-1.269-1.477-2.469-1.477-2.666 0-.198-.135-.419-.3-.493-.165-.073-1.56-2.023-3.1-4.333-15.523-23.282-43.378-43.459-69.6-50.412-4.565-1.211-5.913-1.547-8.4-2.096-12.338-2.722-24.006-3.498-37-2.461m3.8 34.426c-10.061 1.146-12.043 1.469-17.4 2.827-29.056 7.367-53.229 29.052-63.892 57.316-11.356 30.099-5.904 65.851 13.775 90.337 2.276 2.831 2.316 2.289-.814 10.863-1.346 3.684-2.21 6.027-5.169 14a4328.977 4328.977 0 0 0-6.976 19.061c-.71 1.957-.44 3.114.94 4.018 1.333.873 1.339.871 13.881-5.033 2.39-1.125 4.4-2.046 4.467-2.046.124 0 9.329-4.246 16.133-7.441 2.06-.967 3.815-1.759 3.9-1.759.085 0 1.794-.81 3.798-1.8 3.519-1.738 6.05-2.272 6.977-1.472.399.344 4.623 1.973 7.914 3.052 1.581.518 7.208 1.922 11.303 2.82 9.21 2.02 25.582 1.848 35.963-.378 64.334-13.792 94.764-86.738 59.279-142.099-13.85-21.607-39.936-38.445-63.997-41.309l-6.682-.799c-3.171-.381-10.668-.47-13.4-.158m13.058 9.758c29.359 2.937 53.658 19.272 67.218 45.185 4.346 8.306 6.691 15.976 8.698 28.446.546 3.393.552 15.664.009 19.108-.23 1.455-.605 3.816-.835 5.246-8.456 52.714-67.888 84.058-116.688 61.541-4.368-2.016-2.693-2.363-13.999 2.904-1.837.855-3.412 1.555-3.5 1.555-.089 0-2.426 1.08-5.194 2.4-2.768 1.32-5.101 2.4-5.186 2.4-.084 0-1.743.779-3.686 1.732-5.023 2.463-6.322 2.654-5.35.784.521-1.001 3.013-7.665 7.447-19.916.797-2.2 1.698-4.63 2.004-5.4 1.863-4.696 2.045-4.065-2.857-9.875-13.058-15.478-20.273-38.231-18.609-58.691.482-5.932.667-7.061 2.332-14.234 9.075-39.098 48.273-67.18 88.196-63.185m-9.066 71.221c-9.706 1.23-14.321 13.178-8.058 20.861 4.047 4.964 11.764 6.217 16.823 2.731 11.604-7.996 5.154-25.357-8.765-23.592m41.987-.014c-10.558 1.054-14.964 14.175-7.343 21.872 7.925 8.005 21.988 2.184 21.958-9.088-.021-7.958-6.467-13.597-14.615-12.784m-86.274.564c-13.57 5.158-10.01 24.805 4.495 24.812 13.696.007 17.832-17.915 5.6-24.264-2.228-1.156-7.711-1.453-10.095-.548m248.35 31.114c-.106.935-.394 3.77-.638 6.3-1.079 11.155-4.087 26.734-6.836 35.4l-2.026 6.4c-7.41 23.421-21.746 49.008-37.751 67.382-7.285 8.362-17.588 18.661-22.934 22.924-18.63 14.857-29.867 21.916-48.121 30.227-7.215 3.285-19.13 7.6-26.036 9.43-1.162.308-3.463.922-5.113 1.365-3.941 1.057-14.014 3.29-16.8 3.724-4.274.666-11.039 1.518-14.2 1.789-1.76.151-3.56.417-4 .591-.44.175 41.005.329 92.1.343L400 400v-93.8c0-51.59-.079-93.8-.175-93.8-.097 0-.263.765-.37 1.7M0 306.533V400l93.9-.025c51.645-.014 93.54-.169 93.1-.344-.44-.175-2.6-.445-4.8-.599-31.849-2.239-65.419-14.167-94.4-33.543-21.149-14.14-44.753-38.492-56.886-58.689-3.631-6.045-4.801-8.006-5.61-9.4-1.137-1.959-7.644-15.002-8.584-17.205C8.142 260.092 2.522 238.137.81 218.044c-.214-2.506-.483-4.651-.599-4.767-.116-.116-.211 41.85-.211 93.256"/>
    <path fill="#005ea2" d="M185.6.354c-.33.187-2.31.455-4.4.597-8.325.563-19.644 2.51-31.6 5.437-3.863.946-15.472 4.569-18.6 5.805-1.32.522-4.107 1.618-6.193 2.435-20.603 8.075-45.996 24.418-61.711 39.717-2.147 2.09-4.368 4.173-4.935 4.628-2.919 2.34-14.797 16.417-20.442 24.227C34.505 87.646 28 97.382 28 97.746c0 .077-.925 1.74-2.056 3.697-2.072 3.586-7.906 15.242-9.292 18.564-.411.986-1.166 2.783-1.678 3.993-3.36 7.947-6.654 18.028-9.412 28.8-.645 2.518-1.926 8.908-2.728 13.6-.685 4.011-1.098 7.139-2.27 17.2-.475 4.069-.368 29.604.143 34.4 2.392 22.431 7.481 42.201 16.013 62.195.94 2.203 7.447 15.246 8.584 17.205.809 1.394 1.979 3.355 5.61 9.4 18.771 31.248 51.361 59.256 88.886 76.391 12.136 5.542 29.703 10.843 45 13.579l4.6.821c1.1.197 3.8.553 6 .792 2.2.24 5.8.644 8 .898 6.261.724 30.105.609 36.2-.174 7.202-.926 11.094-1.456 13.6-1.851 2.812-.443 12.897-2.681 16.8-3.728 1.65-.443 3.951-1.057 5.113-1.365 6.906-1.83 18.821-6.145 26.036-9.43 18.254-8.311 29.491-15.37 48.121-30.227 6.821-5.439 19.371-18.352 26.539-27.306 9.542-11.919 17.521-24.478 23.761-37.4 4.682-9.695 7.731-17.212 10.385-25.6l2.026-6.4c2.757-8.691 5.777-24.345 6.829-35.4.241-2.53.62-5.77.842-7.2.234-1.5.34-7.506.25-14.2-.972-73.097-37.861-136.033-101.502-173.176-2.258-1.318-16.338-8.373-17.866-8.952-.624-.236-2.664-1.079-4.534-1.873-3.808-1.616-12.45-4.806-15.2-5.61-.99-.289-3.06-.904-4.6-1.367-2.935-.881-12.575-3.26-16-3.948-7.418-1.49-11.129-2.062-20.6-3.174-6.004-.704-32.957-1.138-34-.546m18.607 66.442c8.468.525 13.673 1.213 20.393 2.696 2.487.549 3.835.885 8.4 2.096 26.222 6.953 54.077 27.13 69.6 50.412 1.54 2.31 2.935 4.26 3.1 4.333.165.074.3.295.3.493 0 .197.664 1.397 1.477 2.666.812 1.27 2.706 4.828 4.208 7.908 4.288 8.791 3.859 8.171 6.337 9.16 11.439 4.567 20.117 17.073 23.638 34.065 1.107 5.34 1.348 21.045.399 25.975-3.49 18.136-12.349 31.316-24.205 36.011-2.215.877-2.208.868-5.032 6.998-14.125 30.657-45.191 57.678-77.022 66.993-1.32.387-3.12.929-4 1.205-.88.277-2.68.733-4 1.014-2.965.631-3.311.89-3.647 2.719-1.065 5.802-5.945 11.21-12.092 13.398-2.774.987-21.046 1.464-26.14.682-19.753-3.034-21.384-30.322-2.121-35.475 3.06-.819 24.005-.76 27.216.076 4.212 1.097 8.746 4.465 10.856 8.065 1.194 2.039.727 1.999 6.264.528 23.153-6.154 45.507-20.555 60.321-38.862a1293.45 1293.45 0 0 1 3.084-3.8c.517-.634 2.328-3.227 4.024-5.763 34.318-51.312 23.62-120.045-24.668-158.492-3.294-2.623-10.7-7.897-11.089-7.897-.106 0-1.141-.606-2.3-1.348-2.601-1.663-9.885-5.349-13.908-7.039a498.95 498.95 0 0 1-3.8-1.61c-1.933-.847-7.8-2.711-13.4-4.26-16.444-4.546-41.043-4.585-57.586-.09-1.658.45-3.657.976-4.442 1.169-16.603 4.068-36.391 15.891-50.78 30.342-13.265 13.32-20.516 24.708-27.789 43.636-2.506 6.524-4.802 16.547-6.185 27-1.348 10.194-.29 27.384 2.439 39.6.947 4.241 1.042 4.561 3.192 10.8 4.074 11.817.467 14.817-11.059 9.197-26.118-12.736-30.556-66.31-7.326-88.431 3.719-3.542 9.308-6.966 11.369-6.966.36 0 1.025-.944 1.619-2.3 1.744-3.981 5.612-11.525 7.109-13.866.791-1.237 1.439-2.342 1.439-2.455 0-.448 5.648-8.577 8.184-11.779 24.312-30.691 59.306-47.99 99.423-49.148.994-.029 4.684.126 8.2.344m.593 34.819 6.682.799c6.128.729 15.346 3.379 22.518 6.472 62.881 27.12 76.111 110.187 24.8 155.707-20.806 18.457-52.801 27.257-78.563 21.607-4.095-.898-9.722-2.302-11.303-2.82-3.291-1.079-7.515-2.708-7.914-3.052-.927-.8-3.458-.266-6.977 1.472-2.004.99-3.713 1.8-3.798 1.8-.085 0-1.84.792-3.9 1.759-6.804 3.195-16.009 7.441-16.133 7.441-.067 0-2.077.921-4.467 2.046-12.542 5.904-12.548 5.906-13.881 5.033-1.38-.904-1.65-2.061-.94-4.018 2.194-6.04 5.784-15.85 6.976-19.061a2545.577 2545.577 0 0 0 5.169-14c3.13-8.574 3.09-8.032.814-10.863-19.679-24.486-25.131-60.238-13.775-90.337 10.663-28.264 34.836-49.949 63.892-57.316 5.357-1.358 7.339-1.681 17.4-2.827 2.732-.312 10.229-.223 13.4.158m-13.4 9.459c-39.422 3.44-68.228 29.651-76.557 69.66-4.422 21.24 3.001 49.173 17.696 66.591 4.902 5.81 4.72 5.179 2.857 9.875-.306.77-1.207 3.2-2.004 5.4-4.434 12.251-6.926 18.915-7.447 19.916-.972 1.87.327 1.679 5.35-.784 1.943-.953 3.602-1.732 3.686-1.732.085 0 2.418-1.08 5.186-2.4 2.768-1.32 5.105-2.4 5.194-2.4.088 0 1.663-.7 3.5-1.555 11.306-5.267 9.631-4.92 13.999-2.904 48.8 22.517 108.232-8.827 116.688-61.541.23-1.43.605-3.791.835-5.246.543-3.444.537-15.715-.009-19.108-2.473-15.366-5.611-24.092-12.766-35.492-15.775-25.137-47.012-40.828-76.208-38.28m11.746 72.499c10.341 5.275 8.675 21.243-2.511 24.06-10.704 2.695-19.703-8.319-14.869-18.199 3.056-6.247 11.224-9.002 17.38-5.861m41.742.055c5.836 2.92 8.566 9.804 6.323 15.942-4.88 13.351-24.965 9.84-24.999-4.37-.023-9.681 10.02-15.903 18.676-11.572m-83.688-.094c12.232 6.349 8.096 24.271-5.6 24.264-14.505-.007-18.065-19.654-4.495-24.812 2.384-.905 7.867-.608 10.095.548"/>
  </g>
</svg>