<svg id="Layer_1" xmlns="http://www.w3.org/2000/svg" xmlns:xlink="http://www.w3.org/1999/xlink" viewBox="0 0 70 70"><defs><clipPath id="clippath"><circle cx="35" cy="35" r="35" fill="none"/></clipPath><clipPath id="clippath-1"><rect x="11.57" y="16.81" width="23.1" height="36" fill="none"/></clipPath><clipPath id="clippath-2"><rect x="34.67" y="16.81" width="22.67" height="36" fill="none"/></clipPath></defs><g clip-path="url(#clippath)"><path d="M0,0h70v70H0V0Z" fill="#06648d"/></g><g clip-path="url(#clippath-1)"><path d="M26.75,36.53c-1.3.49-2.72.79-4.2.79-6.08-.03-10.98-4.6-10.98-10.2s4.91-10.2,10.98-10.2,10.98,4.57,10.98,10.2c1.55,14.98-16.42,25.58-16.42,25.58l-1.42-1.68s11.88-9.1,11.05-14.49Z" fill="#fff"/></g><g clip-path="url(#clippath-2)"><path d="M50.23,36.53c-1.3.49-2.72.79-4.2.79-6.08,0-10.98-4.57-10.98-10.2s4.91-10.2,10.98-10.2,10.98,4.57,10.98,10.2c1.55,14.98-16.42,25.58-16.42,25.58l-1.42-1.68s11.88-9.1,11.05-14.49Z" fill="#fff"/></g></svg>