<svg xmlns="http://www.w3.org/2000/svg" xmlns:xlink="http://www.w3.org/1999/xlink" width="70" zoomAndPan="magnify" viewBox="0 0 52.5 52.499999" height="70" preserveAspectRatio="xMidYMid meet" version="1.0"><defs><clipPath id="7d2bcc3be8"><path d="M 0 0 L 52.003906 0 L 52.003906 52.003906 L 0 52.003906 Z M 0 0 " clip-rule="nonzero"/></clipPath><clipPath id="24c399510f"><path d="M 26.25 0 C 11.753906 0 0 11.753906 0 26.25 C 0 40.746094 11.753906 52.5 26.25 52.5 C 40.746094 52.5 52.5 40.746094 52.5 26.25 C 52.5 11.753906 40.746094 0 26.25 0 " clip-rule="nonzero"/></clipPath><clipPath id="e29088bede"><path d="M 8.0625 8.0625 L 44.8125 8.0625 L 44.8125 44.8125 L 8.0625 44.8125 Z M 8.0625 8.0625 " clip-rule="nonzero"/></clipPath></defs><g clip-path="url(#7d2bcc3be8)"><g clip-path="url(#24c399510f)"><path fill="#775540" d="M 0 0 L 52.5 0 L 52.5 52.5 L 0 52.5 Z M 0 0 " fill-opacity="1" fill-rule="nonzero"/></g></g><g clip-path="url(#e29088bede)"><path fill="#ffffff" d="M 11.855469 8.0625 C 9.753906 8.0625 8.0625 9.753906 8.0625 11.855469 L 8.0625 15.9375 C 8.0625 16.433594 8.441406 16.8125 8.9375 16.8125 L 40.144531 16.8125 C 40.640625 16.8125 41.019531 16.433594 41.019531 15.9375 C 41.019531 15.441406 40.640625 15.0625 40.144531 15.0625 L 9.8125 15.0625 L 9.8125 11.855469 C 9.8125 10.714844 10.714844 9.8125 11.855469 9.8125 L 41.019531 9.8125 C 42.160156 9.8125 43.0625 10.714844 43.0625 11.855469 L 43.0625 41.019531 C 43.0625 42.160156 42.160156 43.0625 41.019531 43.0625 L 19.144531 43.0625 C 18.648438 43.0625 18.269531 43.441406 18.269531 43.9375 C 18.269531 44.433594 18.648438 44.8125 19.144531 44.8125 L 41.019531 44.8125 C 43.121094 44.8125 44.8125 43.121094 44.8125 41.019531 L 44.8125 11.855469 C 44.8125 9.753906 43.121094 8.0625 41.019531 8.0625 Z M 12.4375 11.5625 C 12.195312 11.5625 11.988281 11.648438 11.820312 11.820312 C 11.648438 11.988281 11.5625 12.195312 11.5625 12.4375 C 11.5625 12.679688 11.648438 12.886719 11.820312 13.054688 C 11.988281 13.226562 12.195312 13.3125 12.4375 13.3125 C 12.679688 13.3125 12.886719 13.226562 13.054688 13.054688 C 13.226562 12.886719 13.3125 12.679688 13.3125 12.4375 C 13.3125 12.195312 13.226562 11.988281 13.054688 11.820312 C 12.886719 11.648438 12.679688 11.5625 12.4375 11.5625 Z M 15.355469 11.5625 C 15.113281 11.5625 14.90625 11.648438 14.734375 11.820312 C 14.566406 11.988281 14.480469 12.195312 14.480469 12.4375 C 14.480469 12.679688 14.566406 12.886719 14.734375 13.054688 C 14.90625 13.226562 15.113281 13.3125 15.355469 13.3125 C 15.597656 13.3125 15.800781 13.226562 15.972656 13.054688 C 16.144531 12.886719 16.230469 12.679688 16.230469 12.4375 C 16.230469 12.195312 16.144531 11.988281 15.972656 11.820312 C 15.800781 11.648438 15.597656 11.5625 15.355469 11.5625 Z M 18.269531 11.5625 C 18.027344 11.5625 17.824219 11.648438 17.652344 11.820312 C 17.480469 11.988281 17.394531 12.195312 17.394531 12.4375 C 17.394531 12.679688 17.480469 12.886719 17.652344 13.054688 C 17.824219 13.226562 18.027344 13.3125 18.269531 13.3125 C 18.511719 13.3125 18.71875 13.226562 18.890625 13.054688 C 19.058594 12.886719 19.144531 12.679688 19.144531 12.4375 C 19.144531 12.195312 19.058594 11.988281 18.890625 11.820312 C 18.71875 11.648438 18.511719 11.5625 18.269531 11.5625 Z M 8.9375 18.855469 C 8.441406 18.855469 8.0625 19.234375 8.0625 19.730469 L 8.0625 33.757812 C 8.0625 34.253906 8.441406 34.632812 8.9375 34.632812 C 9.433594 34.632812 9.8125 34.253906 9.8125 33.757812 L 9.8125 19.730469 C 9.8125 19.234375 9.433594 18.855469 8.9375 18.855469 Z M 36.9375 19.730469 C 35.160156 19.730469 33.730469 21.160156 33.730469 22.9375 C 33.730469 23.898438 34.167969 24.773438 34.835938 25.359375 L 31.046875 33.496094 C 30.871094 33.464844 30.695312 33.4375 30.519531 33.4375 C 29.851562 33.4375 29.238281 33.640625 28.710938 33.992188 L 24.105469 30.082031 C 24.277344 29.675781 24.394531 29.238281 24.394531 28.769531 C 24.394531 26.992188 22.964844 25.5625 21.1875 25.5625 C 19.410156 25.5625 17.980469 26.992188 17.980469 28.769531 C 17.980469 29.472656 18.210938 30.140625 18.621094 30.667969 L 12.464844 38.628906 C 12.085938 38.484375 11.707031 38.394531 11.269531 38.394531 C 9.492188 38.394531 8.0625 39.824219 8.0625 41.605469 C 8.0625 43.382812 9.492188 44.8125 11.269531 44.8125 C 13.050781 44.8125 14.480469 43.382812 14.480469 41.605469 C 14.480469 40.902344 14.246094 40.234375 13.835938 39.707031 L 19.992188 31.746094 C 20.371094 31.890625 20.75 31.980469 21.1875 31.980469 C 21.859375 31.980469 22.46875 31.773438 22.996094 31.425781 L 27.605469 35.332031 C 27.429688 35.742188 27.3125 36.179688 27.3125 36.644531 C 27.3125 38.425781 28.742188 39.855469 30.519531 39.855469 C 32.300781 39.855469 33.730469 38.425781 33.730469 36.644531 C 33.730469 35.683594 33.292969 34.808594 32.621094 34.226562 L 36.414062 26.085938 C 36.585938 26.117188 36.761719 26.144531 36.9375 26.144531 C 38.714844 26.144531 40.144531 24.714844 40.144531 22.9375 C 40.144531 21.160156 38.714844 19.730469 36.9375 19.730469 Z M 36.9375 21.480469 C 37.753906 21.480469 38.394531 22.121094 38.394531 22.9375 C 38.394531 23.753906 37.753906 24.394531 36.9375 24.394531 C 36.121094 24.394531 35.480469 23.753906 35.480469 22.9375 C 35.480469 22.121094 36.121094 21.480469 36.9375 21.480469 Z M 21.1875 27.3125 C 22.003906 27.3125 22.644531 27.953125 22.644531 28.769531 C 22.644531 29.585938 22.003906 30.230469 21.1875 30.230469 C 20.371094 30.230469 19.730469 29.585938 19.730469 28.769531 C 19.730469 27.953125 20.371094 27.3125 21.1875 27.3125 Z M 30.519531 35.1875 C 31.335938 35.1875 31.980469 35.828125 31.980469 36.644531 C 31.980469 37.460938 31.335938 38.105469 30.519531 38.105469 C 29.703125 38.105469 29.0625 37.460938 29.0625 36.644531 C 29.0625 35.828125 29.703125 35.1875 30.519531 35.1875 Z M 11.269531 40.144531 C 12.085938 40.144531 12.730469 40.789062 12.730469 41.605469 C 12.730469 42.421875 12.085938 43.0625 11.269531 43.0625 C 10.453125 43.0625 9.8125 42.421875 9.8125 41.605469 C 9.8125 40.789062 10.453125 40.144531 11.269531 40.144531 Z M 11.269531 40.144531 " fill-opacity="1" fill-rule="nonzero"/></g></svg>
