<svg xmlns="http://www.w3.org/2000/svg" xmlns:xlink="http://www.w3.org/1999/xlink" viewBox="0 0 70 70"><defs><clipPath id="clippath"><circle cx="35" cy="35" r="35" fill="none"/></clipPath><clipPath id="clippath-1"><rect x="14.02" y="14.02" width="42.46" height="42.46" fill="none"/></clipPath></defs><g clip-path="url(#clippath)"><path d="M0,0h70v70H0V0Z" fill="#c05600"/></g><g clip-path="url(#clippath-1)"><path d="M18.4,14.02c-2.43,0-4.38,1.95-4.38,4.38v4.72c0,.57.44,1.01,1.01,1.01h36.05c.57,0,1.01-.44,1.01-1.01s-.44-1.01-1.01-1.01H16.04v-3.71c0-1.32,1.04-2.36,2.36-2.36h33.69c1.32,0,2.36,1.04,2.36,2.36v33.69c0,1.32-1.04,2.36-2.36,2.36h-25.27c-.57,0-1.01.44-1.01,1.01s.44,1.01,1.01,1.01h25.27c2.43,0,4.38-1.95,4.38-4.38V18.4c0-2.43-1.95-4.38-4.38-4.38H18.4ZM19.08,18.06c-.28,0-.52.1-.71.3-.2.19-.3.43-.3.71s.1.52.3.71c.19.2.43.3.71.3s.52-.1.71-.3c.2-.19.3-.43.3-.71s-.1-.52-.3-.71c-.19-.2-.43-.3-.71-.3ZM22.45,18.06c-.28,0-.52.1-.72.3-.19.19-.29.43-.29.71s.1.52.29.71c.2.2.44.3.72.3s.51-.1.71-.3c.2-.19.3-.43.3-.71s-.1-.52-.3-.71c-.2-.2-.43-.3-.71-.3ZM25.81,18.06c-.28,0-.51.1-.71.3-.2.19-.3.43-.3.71s.1.52.3.71c.2.2.43.3.71.3s.52-.1.72-.3c.19-.19.29-.43.29-.71s-.1-.52-.29-.71c-.2-.2-.44-.3-.72-.3ZM15.03,26.49c-.57,0-1.01.44-1.01,1.01v16.21c0,.57.44,1.01,1.01,1.01s1.01-.44,1.01-1.01v-16.21c0-.57-.44-1.01-1.01-1.01ZM47.38,27.5c-2.05,0-3.71,1.65-3.71,3.71,0,1.11.51,2.12,1.28,2.8l-4.38,9.4c-.2-.04-.41-.07-.61-.07-.77,0-1.48.23-2.09.64l-5.32-4.52c.2-.47.33-.97.33-1.52,0-2.05-1.65-3.71-3.71-3.71s-3.71,1.65-3.71,3.71c0,.81.27,1.58.74,2.19l-7.11,9.2c-.44-.17-.88-.27-1.38-.27-2.05,0-3.71,1.65-3.71,3.71s1.65,3.71,3.71,3.71,3.71-1.65,3.71-3.71c0-.81-.27-1.58-.74-2.19l7.11-9.2c.44.17.88.27,1.38.27.78,0,1.48-.24,2.09-.64l5.33,4.51c-.2.47-.34.98-.34,1.52,0,2.06,1.65,3.71,3.71,3.71s3.71-1.65,3.71-3.71c0-1.11-.51-2.12-1.28-2.79l4.38-9.41c.2.04.4.07.6.07,2.05,0,3.71-1.65,3.71-3.71s-1.65-3.71-3.71-3.71ZM47.38,29.52c.94,0,1.68.74,1.68,1.68s-.74,1.68-1.68,1.68-1.68-.74-1.68-1.68.74-1.68,1.68-1.68ZM29.18,36.26c.94,0,1.68.74,1.68,1.68s-.74,1.69-1.68,1.69-1.68-.74-1.68-1.69.74-1.68,1.68-1.68ZM39.97,45.36c.94,0,1.69.74,1.69,1.68s-.74,1.69-1.69,1.69-1.68-.74-1.68-1.69.74-1.68,1.68-1.68ZM17.73,51.09c.94,0,1.69.74,1.69,1.69s-.74,1.68-1.69,1.68-1.68-.74-1.68-1.68.74-1.69,1.68-1.69Z" fill="#fff"/></g></svg>