<svg xmlns="http://www.w3.org/2000/svg" xmlns:xlink="http://www.w3.org/1999/xlink" width="70" zoomAndPan="magnify" viewBox="0 0 52.5 52.499999" height="70" preserveAspectRatio="xMidYMid meet" version="1.0"><defs><clipPath id="a35f657341"><path d="M 0 0 L 52.003906 0 L 52.003906 52.003906 L 0 52.003906 Z M 0 0 " clip-rule="nonzero"/></clipPath><clipPath id="614d636045"><path d="M 26.25 0 C 11.753906 0 0 11.753906 0 26.25 C 0 40.746094 11.753906 52.5 26.25 52.5 C 40.746094 52.5 52.5 40.746094 52.5 26.25 C 52.5 11.753906 40.746094 0 26.25 0 " clip-rule="nonzero"/></clipPath><clipPath id="e13f0cb02f"><path d="M 9.226562 9.226562 L 42.976562 9.226562 L 42.976562 42.976562 L 9.226562 42.976562 Z M 9.226562 9.226562 " clip-rule="nonzero"/></clipPath></defs><g clip-path="url(#a35f657341)"><g clip-path="url(#614d636045)"><path fill="#d73a33" d="M 0 0 L 52.5 0 L 52.5 52.5 L 0 52.5 Z M 0 0 " fill-opacity="1" fill-rule="nonzero"/></g></g><g clip-path="url(#e13f0cb02f)"><path fill="#ffffff" d="M 26.089844 9.226562 C 16.769531 9.226562 9.226562 16.777344 9.226562 26.101562 C 9.226562 35.421875 16.769531 42.976562 26.089844 42.976562 C 35.414062 42.976562 42.976562 35.421875 42.976562 26.101562 C 42.976562 16.777344 35.414062 9.226562 26.089844 9.226562 Z M 37.777344 19.351562 L 32.800781 19.351562 C 32.25 17.242188 31.484375 15.214844 30.46875 13.34375 C 33.574219 14.40625 36.15625 16.558594 37.777344 19.351562 Z M 26.101562 12.660156 C 27.507812 14.683594 28.605469 16.9375 29.324219 19.351562 L 22.875 19.351562 C 23.59375 16.9375 24.691406 14.683594 26.101562 12.660156 Z M 13.039062 29.476562 C 12.761719 28.394531 12.601562 27.265625 12.601562 26.101562 C 12.601562 24.9375 12.761719 23.804688 13.039062 22.726562 L 18.734375 22.726562 C 18.597656 23.832031 18.507812 24.953125 18.507812 26.101562 C 18.507812 27.246094 18.597656 28.371094 18.742188 29.476562 Z M 14.414062 32.851562 L 19.390625 32.851562 C 19.941406 34.960938 20.707031 36.984375 21.722656 38.867188 C 18.617188 37.804688 16.035156 35.644531 14.414062 32.851562 Z M 19.390625 19.351562 L 14.414062 19.351562 C 16.035156 16.558594 18.617188 14.398438 21.722656 13.335938 C 20.707031 15.214844 19.941406 17.242188 19.390625 19.351562 Z M 26.101562 39.539062 C 24.699219 37.515625 23.601562 35.261719 22.875 32.851562 L 29.324219 32.851562 C 28.597656 35.261719 27.5 37.515625 26.101562 39.539062 Z M 30.046875 29.476562 L 22.152344 29.476562 C 21.992188 28.371094 21.882812 27.246094 21.882812 26.101562 C 21.882812 24.953125 21.992188 23.832031 22.152344 22.726562 L 30.046875 22.726562 C 30.210938 23.832031 30.320312 24.953125 30.320312 26.101562 C 30.320312 27.246094 30.210938 28.371094 30.046875 29.476562 Z M 30.480469 38.859375 C 31.492188 36.976562 32.257812 34.960938 32.808594 32.851562 L 37.785156 32.851562 C 36.15625 35.644531 33.574219 37.792969 30.480469 38.859375 Z M 33.457031 29.476562 C 33.59375 28.371094 33.695312 27.246094 33.695312 26.101562 C 33.695312 24.953125 33.601562 23.832031 33.457031 22.726562 L 39.152344 22.726562 C 39.429688 23.804688 39.601562 24.9375 39.601562 26.101562 C 39.601562 27.265625 39.441406 28.394531 39.152344 29.476562 Z M 33.457031 29.476562 " fill-opacity="1" fill-rule="nonzero"/></g></svg>
