<svg id="Layer_1" xmlns="http://www.w3.org/2000/svg" xmlns:xlink="http://www.w3.org/1999/xlink" viewBox="0 0 70 70"><defs><clipPath id="clippath"><circle cx="35" cy="35" r="35" fill="none"/></clipPath><clipPath id="clippath-1"><rect x="26.67" y="12.35" width="29.33" height="20.98" fill="none"/></clipPath><clipPath id="clippath-2"><rect x="28" y="33.33" width="29.35" height="24.02" fill="none"/></clipPath><clipPath id="clippath-3"><rect x="12.35" y="24" width="28.98" height="25.33" fill="none"/></clipPath></defs><g clip-path="url(#clippath)"><path d="M0,0h70v70H0V0Z" fill="#c2850c"/></g><g clip-path="url(#clippath-1)"><path d="M43.61,32.8c-.26,0-.49-.08-.69-.26-.21-.19-.33-.42-.34-.71-.02-.28.07-.53.27-.74l.91-1.03c.2-.22.46-.34.77-.34h7.71c.29,0,.53-.1.72-.3.2-.2.3-.44.3-.72v-13.3c0-.28-.1-.52-.3-.72s-.44-.3-.72-.3h-22.5c-.28,0-.52.1-.72.3s-.3.44-.3.72v7.16c0,.28-.1.52-.3.72-.2.2-.44.3-.72.3s-.53-.1-.72-.3-.3-.44-.3-.72v-7.16c0-.41.08-.8.23-1.17s.38-.71.67-.99.62-.51.99-.67.77-.23,1.17-.23h22.5c.41,0,.8.08,1.18.23s.71.38.99.67.51.62.67.99.23.77.23,1.17v13.3c0,.41-.07.8-.23,1.17-.16.38-.38.71-.67,1-.29.29-.62.51-.99.66s-.77.23-1.18.23h-7.25l-.61.69c-.2.22-.45.33-.76.33Z" fill="#fff"/></g><g clip-path="url(#clippath-2)"><path d="M42.92,57.35c-.31,0-.56-.11-.77-.34l-3.34-3.75h-7.03c-.41,0-.8-.08-1.17-.23s-.71-.38-.99-.67c-.29-.29-.51-.62-.67-.99s-.23-.77-.23-1.17v-13.3c0-.41.08-.8.23-1.18.16-.38.38-.7.67-.99s.62-.51.99-.66.77-.23,1.17-.23h22.5c.41,0,.8.08,1.18.23.38.16.7.38.99.66.29.29.51.62.66.99.16.38.23.77.23,1.18v13.3c0,.41-.08.8-.23,1.17s-.38.71-.66.99c-.29.29-.62.51-.99.67-.38.16-.77.23-1.18.23h-7.25l-3.35,3.75c-.2.22-.45.34-.76.34ZM31.78,35.88c-.28,0-.52.1-.72.3-.2.2-.3.44-.3.72v13.3c0,.28.1.52.3.72.2.2.44.3.72.3h7.48c.3,0,.56.11.77.34l2.9,3.24,2.88-3.24c.21-.23.46-.34.77-.34h7.71c.28,0,.53-.1.72-.3.2-.2.3-.44.3-.72v-13.3c0-.28-.1-.53-.3-.72s-.44-.3-.72-.3h-22.5Z" fill="#fff"/></g><path d="M43.03,51.21c-.47,0-.94-.05-1.4-.14-.46-.09-.91-.23-1.34-.41-.43-.18-.85-.4-1.24-.66-.39-.26-.75-.56-1.08-.89-.33-.33-.63-.69-.89-1.08s-.48-.8-.66-1.24c-.18-.43-.31-.88-.41-1.34-.09-.46-.14-.93-.14-1.4s.04-.93.14-1.4c.09-.46.23-.91.41-1.34.18-.43.4-.84.66-1.23s.56-.76.89-1.08c.33-.33.69-.63,1.08-.89.39-.27.81-.48,1.24-.66.43-.18.88-.32,1.34-.41.46-.09.93-.14,1.4-.14s.94.05,1.4.14c.46.09.91.23,1.34.41.44.18.85.4,1.24.66.39.26.75.56,1.08.89.33.33.63.69.89,1.08s.48.8.66,1.23c.18.44.32.89.41,1.34.09.46.14.93.14,1.4s-.05.94-.14,1.4c-.09.46-.22.91-.41,1.34-.18.44-.4.85-.66,1.24s-.56.76-.89,1.08c-.33.33-.69.63-1.08.89-.39.27-.8.48-1.24.66-.43.18-.88.32-1.34.41-.46.09-.93.14-1.4.14ZM43.03,38.94c-.68,0-1.33.13-1.96.39-.63.26-1.18.63-1.66,1.11s-.85,1.03-1.11,1.66c-.26.63-.39,1.28-.39,1.95s.13,1.33.39,1.96.63,1.18,1.11,1.66,1.03.85,1.66,1.11c.63.26,1.28.39,1.96.39s1.33-.13,1.96-.39c.63-.26,1.18-.63,1.66-1.11s.85-1.04,1.11-1.66.39-1.28.39-1.96-.13-1.33-.39-1.95c-.26-.63-.63-1.18-1.11-1.66s-1.03-.85-1.66-1.11c-.63-.26-1.28-.39-1.96-.39Z" fill="#fff"/><path d="M43.03,47.64c-.41,0-.8-.08-1.17-.23-.38-.16-.71-.38-.99-.67-.29-.29-.51-.62-.67-.99s-.23-.77-.23-1.17c0-.29.1-.53.3-.72.2-.2.44-.3.72-.3s.53.1.72.3c.2.2.3.44.3.72s.1.52.3.72c.2.2.44.3.72.3s.53-.1.72-.3c.2-.2.3-.44.3-.72s.1-.53.3-.72c.2-.2.44-.3.72-.3s.52.1.72.3.3.44.3.72c0,.41-.08.8-.23,1.17s-.38.71-.66.99c-.29.29-.62.51-.99.67-.38.16-.77.23-1.18.23Z" fill="#fff"/><g clip-path="url(#clippath-3)"><path d="M26.56,48.15c-.3,0-.56-.11-.76-.34l-3.36-3.76h-7.02c-.41,0-.8-.07-1.17-.23s-.71-.38-.99-.67-.51-.62-.67-.99-.23-.77-.23-1.18v-13.29c0-.41.08-.8.23-1.18s.38-.71.67-.99.62-.51.99-.67c.38-.15.77-.23,1.17-.23h22.5c.41,0,.8.08,1.18.23.38.16.71.38.99.67s.51.62.67.99c.15.38.23.77.23,1.18v4.09c0,.28-.1.53-.3.72s-.44.3-.72.3-.52-.1-.72-.3c-.2-.2-.3-.44-.3-.72v-4.09c0-.29-.1-.53-.3-.72-.2-.2-.44-.3-.72-.3H15.42c-.28,0-.52.1-.72.3s-.3.44-.3.72v13.29c0,.29.1.53.3.72s.44.3.72.3h7.48c.31,0,.56.11.77.34l3.66,4.09c.19.21.28.46.26.74-.02.28-.13.52-.34.71-.19.17-.42.26-.68.26Z" fill="#fff"/></g><path d="M46.1,18.48h-13.3c-.28,0-.52-.1-.72-.3-.2-.2-.3-.44-.3-.72s.1-.52.3-.72c.2-.2.44-.3.72-.3h13.3c.28,0,.53.1.72.3.2.2.3.44.3.72s-.1.53-.3.72-.44.3-.72.3Z" fill="#fff"/><path d="M40.98,22.58h-8.18c-.28,0-.52-.1-.72-.3-.2-.2-.3-.44-.3-.72s.1-.52.3-.72c.2-.2.44-.3.72-.3h8.18c.29,0,.53.1.72.3.2.2.3.44.3.72s-.1.53-.3.72c-.2.2-.44.3-.72.3Z" fill="#fff"/><path d="M26.67,41.68c-.28,0-.53-.1-.72-.3l-4.3-4.29c-2.7-2.7-2.43-5.42-1.02-6.8s3.59-1.58,6.04.4c.59-.54,1.27-.92,2.03-1.16.76-.23,1.53-.3,2.32-.19.56.11,1.06.34,1.49.71s.77.81.98,1.33c.1.27.1.53-.01.79s-.3.44-.56.55c-.26.1-.53.1-.78-.01-.26-.11-.44-.3-.55-.56-.19-.46-.53-.73-1.03-.81-.61-.02-1.2.1-1.76.35s-1.03.63-1.42,1.1c-.2.2-.44.31-.73.31s-.53-.1-.72-.31c-1.63-1.63-3.19-1.76-3.9-1.02-.71.73-.57,2.27,1.02,3.9l4.33,4.29c.2.2.3.44.3.72s-.1.53-.3.73c-.2.18-.44.27-.72.27Z" fill="#fff"/></svg>