<?xml version="1.0" encoding="UTF-8"?><svg id="Layer_1" xmlns="http://www.w3.org/2000/svg" xmlns:xlink="http://www.w3.org/1999/xlink" viewBox="0 0 70 70"><defs><clipPath id="clippath"><circle cx="35" cy="35" r="35" fill="none"/></clipPath><clipPath id="clippath-1"><rect x="10.07" y="9.5" width="50" height="51" fill="none"/></clipPath></defs><g clip-path="url(#clippath)"><path d="M0,0h70v70H0V0Z" fill="#4a50c4"/></g><g clip-path="url(#clippath-1)"><path d="M59.57,26.64c-1.77-1.17-6.32-4.92-6.32-8.13v-1.14c0-.31-.11-.58-.33-.8-.22-.22-.49-.33-.8-.33h-4.55c-.31,0-.58.11-.8.33-.22.22-.33.49-.33.8v24.93c0,.31.11.58.33.8s.49.33.8.33h4.55c.31,0,.58-.11.8-.33.22-.22.33-.48.33-.8v-1.14c.11-.85.49-1.57,1.14-2.15v6.68h-10.22c.04-.19.05-.38.06-.57,0-.38-.07-.74-.22-1.09-.15-.35-.36-.66-.63-.93s-.58-.47-.94-.61c-.35-.14-.72-.21-1.1-.2h-1.7c0-.51-.15-.96-.44-1.36-.75-1-1.69-1.78-2.81-2.33-1.12-.56-2.31-.84-3.56-.84h-6.11l-.83-1.64-3.73-7.42h.44c.7,0,1.4-.08,2.08-.23.69-.16,1.34-.39,1.97-.7.63-.31,1.21-.69,1.76-1.14.54-.44,1.03-.94,1.45-1.5s.78-1.15,1.07-1.79.5-1.3.63-1.99c.14-.69.19-1.38.16-2.08-.03-.7-.14-1.39-.32-2.06-.19-.67-.45-1.32-.79-1.93-.33-.61-.74-1.18-1.21-1.7s-.99-.98-1.57-1.38c-.57-.4-1.19-.73-1.84-.98-.66-.26-1.33-.44-2.02-.54-.7-.1-1.39-.12-2.09-.07-.7.06-1.38.19-2.05.41-.67.21-1.3.51-1.91.86-.6.36-1.15.79-1.65,1.28s-.94,1.03-1.32,1.62c-.38.59-.68,1.22-.91,1.88-.23.66-.39,1.34-.46,2.03-.07.7-.06,1.4.03,2.09.09.69.26,1.37.5,2.03.24.66.56,1.27.95,1.85s.84,1.11,1.35,1.59c-.98.77-1.86,1.63-2.65,2.59-.78.96-1.45,2.01-1.99,3.12-.55,1.11-.96,2.28-1.24,3.49-.28,1.21-.42,2.44-.43,3.68v12.22c0,.59.06,1.19.18,1.77s.29,1.15.52,1.7c.23.55.51,1.07.84,1.57.33.49.71.95,1.13,1.38.42.42.88.8,1.38,1.13.49.33,1.02.61,1.57.84s1.12.4,1.7.52c.59.11,1.18.18,1.78.18h12.5c.31,0,.58-.11.8-.33s.33-.49.33-.8v-3.4c0-.45.09-.88.26-1.3s.42-.79.74-1.1c.32-.32.69-.57,1.1-.74s.85-.26,1.31-.26h13.64c.45,0,.89.08,1.3.26s.79.42,1.11.74c.32.32.56.69.73,1.1.18.42.26.85.26,1.3v3.4c0,.31.11.58.33.8.22.22.49.33.8.33h4.55c.31,0,.58-.11.8-.33s.33-.49.33-.8v-12.46c0-.31-.11-.58-.33-.8-.22-.22-.49-.33-.8-.33h-2.27v-8.62c.89-.64,1.81-1.2,2.78-1.7.42-.21.63-.54.63-1.01v-6.8c0-.4-.16-.71-.5-.94ZM41.89,45.14c0,.16-.05.29-.16.4s-.24.17-.41.17h-9.09c-.16,0-.29-.05-.4-.17-.11-.11-.17-.24-.17-.4s.06-.29.17-.4c.11-.11.24-.17.4-.17h9.09c.16,0,.29.05.41.17s.16.24.16.4ZM27.12,45.71c-.15,0-.29.03-.42.08l-.34-1.21h3.09c-.07.38-.07.76,0,1.13h-2.33ZM32.8,40.04c.9,0,1.74.2,2.54.6.8.4,1.47.96,2.01,1.67h-13.1c-.65,0-1.24-.17-1.79-.51-.55-.34-.96-.8-1.26-1.38l-1.94-3.88c.16-.39.41-.7.75-.95.34-.25.72-.4,1.14-.43.48-.05.92.05,1.34.28.42.23.73.56.94.99l1.5,2.98c.22.44.58.65,1.07.62h6.82ZM15.76,19.65c0-.44.05-.89.13-1.32.09-.44.22-.86.39-1.28.17-.42.38-.81.63-1.18.25-.37.53-.71.85-1.03.32-.31.66-.6,1.03-.84.38-.25.77-.46,1.18-.63.42-.17.84-.3,1.28-.39s.88-.13,1.33-.13.89.04,1.33.13c.44.09.86.21,1.28.39.42.17.81.38,1.18.63.37.24.71.53,1.03.84.32.32.6.66.85,1.03.25.37.46.76.63,1.18.17.41.3.83.39,1.28.09.44.13.88.13,1.32s-.04.89-.13,1.33c-.08.44-.21.86-.39,1.28s-.38.8-.63,1.17c-.25.38-.53.72-.85,1.03-.32.32-.66.6-1.03.85-.38.24-.77.45-1.18.63-.41.17-.84.3-1.28.39-.44.08-.89.13-1.33.13s-.89-.05-1.33-.13c-.44-.09-.86-.22-1.28-.39-.41-.17-.8-.38-1.18-.63-.37-.25-.71-.53-1.03-.85-.32-.31-.6-.66-.85-1.03-.25-.37-.46-.76-.63-1.17-.17-.41-.3-.84-.39-1.28-.08-.44-.13-.88-.13-1.33ZM12.35,39.15c0-1.13.13-2.24.4-3.33.27-1.09.66-2.15,1.18-3.15.52-1,1.15-1.92,1.89-2.78.74-.85,1.57-1.6,2.49-2.25.32.17.64.32.98.44l2.41,4.82c-.27-.02-.54-.02-.81,0-.47.04-.93.16-1.36.34s-.83.44-1.19.74c-.36.31-.66.67-.91,1.08-.24.41-.42.84-.54,1.3-.06.27-.03.53.09.78l2.18,4.29c.46.92,1.12,1.66,1.98,2.22.86.56,1.81.86,2.83.91l1.63,5.67h-13.26v-11.09ZM12.44,52.51h13.55v5.66h-6.82c-.81,0-1.59-.14-2.34-.41-.76-.28-1.44-.67-2.06-1.19-.61-.52-1.12-1.13-1.52-1.82-.4-.7-.67-1.44-.8-2.23ZM57.8,58.17h-2.27v-2.27c0-.37-.04-.74-.11-1.1s-.18-.72-.32-1.06c-.15-.34-.32-.67-.53-.98s-.44-.59-.71-.86-.55-.49-.86-.7c-.31-.21-.64-.38-.98-.53-.34-.14-.7-.25-1.06-.32-.37-.07-.74-.1-1.11-.1h-13.64c-.38,0-.74.03-1.11.1s-.72.18-1.07.32c-.34.15-.67.32-.98.53-.31.21-.6.44-.86.7-.26.27-.5.55-.7.86-.21.31-.39.64-.53.98-.15.34-.25.7-.32,1.06s-.11.73-.11,1.1v2.27h-2.28v-10.2h29.55v10.2ZM48.71,41.18v-22.66h2.27v22.66h-2.27ZM57.8,33.7c-1.65.89-3.17,1.97-4.55,3.24v-13.03c1.34,1.61,2.85,3.03,4.55,4.26v5.53Z" fill="#fff"/></g></svg>