<svg xmlns="http://www.w3.org/2000/svg" xmlns:xlink="http://www.w3.org/1999/xlink" width="70" zoomAndPan="magnify" viewBox="0 0 52.5 52.499999" height="70" preserveAspectRatio="xMidYMid meet" version="1.0"><defs><clipPath id="9488aa439b"><path d="M 0 0 L 52.003906 0 L 52.003906 52.003906 L 0 52.003906 Z M 0 0 " clip-rule="nonzero"/></clipPath><clipPath id="399971bd87"><path d="M 26.25 0 C 11.753906 0 0 11.753906 0 26.25 C 0 40.746094 11.753906 52.5 26.25 52.5 C 40.746094 52.5 52.5 40.746094 52.5 26.25 C 52.5 11.753906 40.746094 0 26.25 0 " clip-rule="nonzero"/></clipPath><clipPath id="aa259d9cf7"><path d="M 20 9.261719 L 42 9.261719 L 42 25 L 20 25 Z M 20 9.261719 " clip-rule="nonzero"/></clipPath><clipPath id="4e022cd142"><path d="M 21 25 L 43.011719 25 L 43.011719 43.011719 L 21 43.011719 Z M 21 25 " clip-rule="nonzero"/></clipPath><clipPath id="6b3b091d77"><path d="M 9.261719 18 L 31 18 L 31 37 L 9.261719 37 Z M 9.261719 18 " clip-rule="nonzero"/></clipPath></defs><g clip-path="url(#9488aa439b)"><g clip-path="url(#399971bd87)"><path fill="#2672de" d="M 0 0 L 52.5 0 L 52.5 52.5 L 0 52.5 Z M 0 0 " fill-opacity="1" fill-rule="nonzero"/></g></g><g clip-path="url(#aa259d9cf7)"><path fill="#ffffff" d="M 32.710938 24.601562 C 32.515625 24.605469 32.34375 24.542969 32.195312 24.410156 C 32.039062 24.269531 31.949219 24.09375 31.9375 23.878906 C 31.925781 23.667969 31.992188 23.480469 32.136719 23.324219 L 32.820312 22.554688 C 32.972656 22.386719 33.164062 22.300781 33.394531 22.300781 L 39.175781 22.300781 C 39.390625 22.300781 39.570312 22.226562 39.71875 22.078125 C 39.871094 21.929688 39.945312 21.746094 39.945312 21.535156 L 39.945312 11.5625 C 39.945312 11.351562 39.871094 11.171875 39.71875 11.019531 C 39.570312 10.871094 39.390625 10.796875 39.175781 10.796875 L 22.300781 10.796875 C 22.089844 10.796875 21.910156 10.871094 21.761719 11.019531 C 21.609375 11.171875 21.535156 11.351562 21.535156 11.5625 L 21.535156 16.933594 C 21.535156 17.144531 21.460938 17.324219 21.3125 17.476562 C 21.160156 17.625 20.980469 17.699219 20.769531 17.699219 C 20.554688 17.699219 20.375 17.625 20.226562 17.476562 C 20.074219 17.324219 20 17.144531 20 16.933594 L 20 11.5625 C 20 11.257812 20.058594 10.964844 20.175781 10.683594 C 20.292969 10.402344 20.460938 10.152344 20.675781 9.9375 C 20.890625 9.722656 21.140625 9.554688 21.421875 9.4375 C 21.703125 9.320312 21.996094 9.261719 22.300781 9.261719 L 39.175781 9.261719 C 39.480469 9.261719 39.777344 9.320312 40.058594 9.4375 C 40.339844 9.554688 40.589844 9.722656 40.804688 9.9375 C 41.019531 10.152344 41.1875 10.402344 41.304688 10.683594 C 41.421875 10.964844 41.476562 11.257812 41.476562 11.5625 L 41.476562 21.535156 C 41.476562 21.839844 41.421875 22.132812 41.304688 22.414062 C 41.1875 22.699219 41.019531 22.945312 40.804688 23.164062 C 40.589844 23.378906 40.339844 23.542969 40.058594 23.660156 C 39.777344 23.777344 39.480469 23.835938 39.175781 23.835938 L 33.738281 23.835938 L 33.277344 24.351562 C 33.125 24.519531 32.9375 24.601562 32.710938 24.601562 Z M 32.710938 24.601562 " fill-opacity="1" fill-rule="nonzero"/></g><g clip-path="url(#4e022cd142)"><path fill="#ffffff" d="M 32.191406 43.011719 C 31.960938 43.015625 31.769531 42.929688 31.613281 42.757812 L 29.105469 39.945312 L 23.835938 39.945312 C 23.53125 39.945312 23.238281 39.886719 22.957031 39.769531 C 22.675781 39.652344 22.425781 39.484375 22.210938 39.269531 C 21.992188 39.054688 21.828125 38.804688 21.710938 38.523438 C 21.59375 38.242188 21.535156 37.949219 21.535156 37.644531 L 21.535156 27.671875 C 21.535156 27.367188 21.59375 27.074219 21.710938 26.789062 C 21.828125 26.507812 21.992188 26.261719 22.210938 26.042969 C 22.425781 25.828125 22.675781 25.664062 22.957031 25.546875 C 23.238281 25.429688 23.53125 25.371094 23.835938 25.371094 L 40.710938 25.371094 C 41.015625 25.371094 41.308594 25.429688 41.59375 25.546875 C 41.875 25.664062 42.121094 25.828125 42.339844 26.042969 C 42.554688 26.261719 42.71875 26.507812 42.835938 26.789062 C 42.953125 27.074219 43.011719 27.367188 43.011719 27.671875 L 43.011719 37.644531 C 43.011719 37.949219 42.953125 38.242188 42.835938 38.523438 C 42.71875 38.804688 42.554688 39.054688 42.339844 39.269531 C 42.121094 39.484375 41.875 39.652344 41.59375 39.769531 C 41.308594 39.886719 41.015625 39.945312 40.710938 39.945312 L 35.273438 39.945312 L 32.757812 42.757812 C 32.605469 42.925781 32.417969 43.011719 32.191406 43.011719 Z M 23.835938 26.90625 C 23.625 26.90625 23.445312 26.980469 23.292969 27.128906 C 23.144531 27.277344 23.070312 27.460938 23.070312 27.671875 L 23.070312 37.644531 C 23.070312 37.855469 23.144531 38.035156 23.292969 38.1875 C 23.445312 38.335938 23.625 38.410156 23.835938 38.410156 L 29.445312 38.410156 C 29.671875 38.410156 29.863281 38.492188 30.019531 38.664062 L 32.191406 41.09375 L 34.351562 38.664062 C 34.507812 38.492188 34.699219 38.410156 34.929688 38.410156 L 40.710938 38.410156 C 40.921875 38.410156 41.105469 38.335938 41.253906 38.1875 C 41.402344 38.035156 41.476562 37.855469 41.476562 37.644531 L 41.476562 27.671875 C 41.476562 27.460938 41.402344 27.277344 41.253906 27.128906 C 41.105469 26.980469 40.921875 26.90625 40.710938 26.90625 Z M 23.835938 26.90625 " fill-opacity="1" fill-rule="nonzero"/></g><path fill="#ffffff" d="M 32.273438 38.410156 C 31.921875 38.410156 31.570312 38.375 31.226562 38.308594 C 30.878906 38.238281 30.542969 38.136719 30.21875 38 C 29.894531 37.867188 29.582031 37.703125 29.289062 37.503906 C 28.996094 37.308594 28.726562 37.085938 28.476562 36.835938 C 28.226562 36.589844 28.003906 36.316406 27.808594 36.023438 C 27.613281 35.730469 27.449219 35.421875 27.3125 35.09375 C 27.179688 34.769531 27.078125 34.433594 27.007812 34.089844 C 26.9375 33.742188 26.90625 33.394531 26.90625 33.039062 C 26.90625 32.6875 26.9375 32.339844 27.007812 31.992188 C 27.078125 31.648438 27.179688 31.3125 27.3125 30.984375 C 27.449219 30.660156 27.613281 30.351562 27.808594 30.058594 C 28.003906 29.765625 28.226562 29.492188 28.476562 29.246094 C 28.726562 28.996094 28.996094 28.773438 29.289062 28.578125 C 29.582031 28.378906 29.894531 28.214844 30.21875 28.082031 C 30.542969 27.945312 30.878906 27.84375 31.226562 27.773438 C 31.570312 27.707031 31.921875 27.671875 32.273438 27.671875 C 32.625 27.671875 32.976562 27.707031 33.320312 27.773438 C 33.667969 27.84375 34.003906 27.945312 34.328125 28.082031 C 34.65625 28.214844 34.964844 28.378906 35.257812 28.578125 C 35.550781 28.773438 35.820312 28.996094 36.070312 29.246094 C 36.320312 29.492188 36.542969 29.765625 36.738281 30.058594 C 36.933594 30.351562 37.097656 30.660156 37.234375 30.984375 C 37.371094 31.3125 37.472656 31.648438 37.539062 31.992188 C 37.609375 32.339844 37.644531 32.6875 37.644531 33.039062 C 37.644531 33.394531 37.609375 33.742188 37.539062 34.089844 C 37.472656 34.433594 37.371094 34.769531 37.234375 35.09375 C 37.097656 35.421875 36.933594 35.730469 36.738281 36.023438 C 36.542969 36.316406 36.320312 36.589844 36.070312 36.835938 C 35.820312 37.085938 35.550781 37.308594 35.257812 37.503906 C 34.964844 37.703125 34.65625 37.867188 34.328125 38 C 34.003906 38.136719 33.667969 38.238281 33.320312 38.308594 C 32.976562 38.375 32.625 38.410156 32.273438 38.410156 Z M 32.273438 29.207031 C 31.765625 29.207031 31.277344 29.304688 30.804688 29.496094 C 30.335938 29.691406 29.921875 29.96875 29.5625 30.328125 C 29.203125 30.6875 28.925781 31.101562 28.730469 31.574219 C 28.535156 32.042969 28.4375 32.53125 28.4375 33.039062 C 28.4375 33.550781 28.535156 34.039062 28.730469 34.507812 C 28.925781 34.976562 29.203125 35.394531 29.5625 35.753906 C 29.921875 36.113281 30.335938 36.390625 30.804688 36.585938 C 31.277344 36.777344 31.765625 36.875 32.273438 36.875 C 32.78125 36.875 33.273438 36.777344 33.742188 36.585938 C 34.210938 36.390625 34.625 36.113281 34.984375 35.753906 C 35.34375 35.394531 35.621094 34.976562 35.816406 34.507812 C 36.011719 34.039062 36.109375 33.550781 36.109375 33.039062 C 36.109375 32.53125 36.011719 32.042969 35.816406 31.574219 C 35.621094 31.101562 35.34375 30.6875 34.984375 30.328125 C 34.625 29.96875 34.210938 29.691406 33.742188 29.496094 C 33.273438 29.304688 32.78125 29.207031 32.273438 29.207031 Z M 32.273438 29.207031 " fill-opacity="1" fill-rule="nonzero"/><path fill="#ffffff" d="M 32.273438 35.726562 C 31.96875 35.726562 31.675781 35.667969 31.394531 35.550781 C 31.109375 35.433594 30.863281 35.265625 30.648438 35.050781 C 30.429688 34.835938 30.265625 34.585938 30.148438 34.304688 C 30.03125 34.023438 29.972656 33.730469 29.972656 33.425781 C 29.972656 33.210938 30.046875 33.03125 30.199219 32.882812 C 30.347656 32.730469 30.527344 32.65625 30.738281 32.65625 C 30.953125 32.65625 31.132812 32.730469 31.28125 32.882812 C 31.433594 33.03125 31.507812 33.210938 31.507812 33.425781 C 31.507812 33.636719 31.582031 33.816406 31.730469 33.96875 C 31.882812 34.117188 32.0625 34.191406 32.273438 34.191406 C 32.484375 34.191406 32.667969 34.117188 32.816406 33.96875 C 32.964844 33.816406 33.039062 33.636719 33.039062 33.425781 C 33.039062 33.210938 33.117188 33.03125 33.265625 32.882812 C 33.414062 32.730469 33.597656 32.65625 33.808594 32.65625 C 34.019531 32.65625 34.199219 32.730469 34.351562 32.882812 C 34.5 33.03125 34.574219 33.210938 34.574219 33.425781 C 34.574219 33.730469 34.515625 34.023438 34.398438 34.304688 C 34.28125 34.585938 34.117188 34.835938 33.902344 35.050781 C 33.683594 35.265625 33.4375 35.433594 33.15625 35.550781 C 32.871094 35.667969 32.578125 35.726562 32.273438 35.726562 Z M 32.273438 35.726562 " fill-opacity="1" fill-rule="nonzero"/><g clip-path="url(#6b3b091d77)"><path fill="#ffffff" d="M 19.917969 36.109375 C 19.691406 36.109375 19.5 36.023438 19.347656 35.855469 L 16.824219 33.039062 L 11.5625 33.039062 C 11.257812 33.039062 10.964844 32.984375 10.683594 32.867188 C 10.402344 32.75 10.152344 32.582031 9.9375 32.367188 C 9.722656 32.152344 9.554688 31.902344 9.4375 31.621094 C 9.320312 31.339844 9.261719 31.042969 9.261719 30.738281 L 9.261719 20.769531 C 9.261719 20.464844 9.320312 20.167969 9.4375 19.886719 C 9.554688 19.605469 9.722656 19.355469 9.9375 19.140625 C 10.152344 18.925781 10.402344 18.757812 10.683594 18.640625 C 10.964844 18.527344 11.257812 18.46875 11.5625 18.46875 L 28.4375 18.46875 C 28.742188 18.46875 29.039062 18.527344 29.320312 18.640625 C 29.601562 18.757812 29.851562 18.925781 30.066406 19.140625 C 30.28125 19.355469 30.449219 19.605469 30.566406 19.886719 C 30.679688 20.167969 30.738281 20.464844 30.738281 20.769531 L 30.738281 23.835938 C 30.738281 24.046875 30.664062 24.230469 30.515625 24.378906 C 30.367188 24.527344 30.183594 24.601562 29.972656 24.601562 C 29.761719 24.601562 29.582031 24.527344 29.429688 24.378906 C 29.28125 24.230469 29.207031 24.046875 29.207031 23.835938 L 29.207031 20.769531 C 29.207031 20.554688 29.128906 20.375 28.980469 20.226562 C 28.832031 20.074219 28.652344 20 28.4375 20 L 11.5625 20 C 11.351562 20 11.171875 20.074219 11.019531 20.226562 C 10.871094 20.375 10.796875 20.554688 10.796875 20.769531 L 10.796875 30.738281 C 10.796875 30.953125 10.871094 31.132812 11.019531 31.28125 C 11.171875 31.433594 11.351562 31.507812 11.5625 31.507812 L 17.171875 31.507812 C 17.402344 31.503906 17.59375 31.589844 17.746094 31.761719 L 20.492188 34.828125 C 20.636719 34.988281 20.699219 35.171875 20.6875 35.386719 C 20.675781 35.597656 20.589844 35.777344 20.429688 35.917969 C 20.285156 36.046875 20.113281 36.109375 19.917969 36.109375 Z M 19.917969 36.109375 " fill-opacity="1" fill-rule="nonzero"/></g><path fill="#ffffff" d="M 34.574219 13.863281 L 24.601562 13.863281 C 24.390625 13.863281 24.210938 13.789062 24.0625 13.640625 C 23.910156 13.492188 23.835938 13.308594 23.835938 13.097656 C 23.835938 12.886719 23.910156 12.707031 24.0625 12.554688 C 24.210938 12.40625 24.390625 12.332031 24.601562 12.332031 L 34.574219 12.332031 C 34.785156 12.332031 34.96875 12.40625 35.117188 12.554688 C 35.265625 12.707031 35.34375 12.886719 35.34375 13.097656 C 35.34375 13.308594 35.265625 13.492188 35.117188 13.640625 C 34.96875 13.789062 34.785156 13.863281 34.574219 13.863281 Z M 34.574219 13.863281 " fill-opacity="1" fill-rule="nonzero"/><path fill="#ffffff" d="M 30.738281 16.933594 L 24.601562 16.933594 C 24.390625 16.933594 24.210938 16.859375 24.0625 16.707031 C 23.910156 16.558594 23.835938 16.378906 23.835938 16.164062 C 23.835938 15.953125 23.910156 15.773438 24.0625 15.625 C 24.210938 15.472656 24.390625 15.398438 24.601562 15.398438 L 30.738281 15.398438 C 30.953125 15.398438 31.132812 15.472656 31.28125 15.625 C 31.433594 15.773438 31.507812 15.953125 31.507812 16.164062 C 31.507812 16.378906 31.433594 16.558594 31.28125 16.707031 C 31.132812 16.859375 30.953125 16.933594 30.738281 16.933594 Z M 30.738281 16.933594 " fill-opacity="1" fill-rule="nonzero"/><path fill="#ffffff" d="M 20 31.261719 C 19.789062 31.261719 19.605469 31.1875 19.457031 31.039062 L 16.234375 27.824219 C 14.210938 25.800781 14.410156 23.757812 15.46875 22.722656 C 16.527344 21.6875 18.160156 21.535156 20 23.023438 C 20.441406 22.621094 20.949219 22.332031 21.519531 22.152344 C 22.089844 21.976562 22.667969 21.929688 23.261719 22.011719 C 23.679688 22.09375 24.054688 22.269531 24.382812 22.542969 C 24.710938 22.816406 24.957031 23.148438 25.117188 23.542969 C 25.195312 23.742188 25.191406 23.9375 25.109375 24.132812 C 25.027344 24.328125 24.886719 24.464844 24.6875 24.542969 C 24.492188 24.621094 24.292969 24.617188 24.101562 24.535156 C 23.90625 24.449219 23.769531 24.308594 23.691406 24.113281 C 23.550781 23.765625 23.296875 23.5625 22.921875 23.507812 C 22.460938 23.492188 22.019531 23.582031 21.601562 23.773438 C 21.183594 23.964844 20.828125 24.242188 20.539062 24.601562 C 20.386719 24.753906 20.207031 24.832031 19.992188 24.832031 C 19.78125 24.832031 19.597656 24.753906 19.449219 24.601562 C 18.230469 23.382812 17.054688 23.285156 16.527344 23.835938 C 15.996094 24.386719 16.097656 25.539062 17.292969 26.757812 L 20.539062 29.972656 C 20.6875 30.121094 20.765625 30.304688 20.765625 30.515625 C 20.765625 30.730469 20.6875 30.910156 20.539062 31.0625 C 20.386719 31.199219 20.207031 31.265625 20 31.261719 Z M 20 31.261719 " fill-opacity="1" fill-rule="nonzero"/></svg>
