<?xml version="1.0" encoding="UTF-8"?>
<svg xmlns="http://www.w3.org/2000/svg" version="1.1" viewBox="0 0 70 70">
  <!-- Generator: Adobe Illustrator 28.6.0, SVG Export Plug-In . SVG Version: 1.2.0 Build 709)  -->
  <g>
    <g id="Layer_2">
      <circle cx="35" cy="35" r="35" fill="#005ea2"/>
      <path d="M0,16.3c0,10.5,0,16.3,0,16.2,0,0,0-.3,0-.5,0-.8.5-4,.8-5.3.5-2,1.1-3.6,1.6-5,0-.2.2-.5.3-.7.2-.6,1.3-2.6,1.6-3.2.2-.3.4-.6.4-.6,0,0,1.1-1.8,1.7-2.5,1-1.4,3.1-3.8,3.6-4.2,0,0,.5-.4.9-.8,2.8-2.7,7.2-5.5,10.8-7,.4-.1.9-.3,1.1-.4.5-.2,2.6-.9,3.3-1,2.1-.5,4.1-.9,5.5-1,.4,0,.7,0,.8-.1,0,0-7.2,0-16.2,0H0s0,16.3,0,16.3M37.6,0c0,0,.4,0,.8.1.4,0,.9,0,1.1.1.2,0,.7,0,1,.1.3,0,.7.1.8.1s.5,0,.7.1c.6.1,2.3.5,2.9.7.3,0,.6.2.8.2.5.1,2,.7,2.7,1,.3.1.7.3.8.3.3.1,2.7,1.3,3.1,1.6,7.2,4.2,12.2,10,15.3,17.6,1.2,2.9,2.1,6.8,2.3,9.7,0,.4,0,.8.1.9s0-7.2,0-16.3V0s-16.3,0-16.3,0c-9,0-16.2,0-16.2,0M32.8,11.7c-1.7.1-2.1.2-3.5.5-4.9,1.2-9.3,4-12.4,8-.4.6-1.4,2-1.4,2.1s-.1.2-.3.4c-.3.4-.9,1.7-1.2,2.4-.1.2-.2.4-.3.4-.4,0-1.3.6-2,1.2-4.1,3.9-3.3,13.2,1.3,15.5,2,1,2.6.5,1.9-1.6-.4-1.1-.4-1.1-.6-1.9-.2-.8-.3-1.7-.4-2.5,0-.8,0-3.7,0-4.4.2-1.8.6-3.6,1.1-4.7,1.3-3.3,2.5-5.3,4.9-7.6,2.5-2.5,6-4.6,8.9-5.3.1,0,.5-.1.8-.2,2.9-.8,7.2-.8,10.1,0,1,.3,2,.6,2.3.7,0,0,.4.2.7.3.7.3,2,.9,2.4,1.2.2.1.4.2.4.2,0,0,1.4.9,1.9,1.4,8.5,6.7,10.3,18.8,4.3,27.7-.3.4-.6.9-.7,1,0,.1-.3.4-.5.7-2.6,3.2-6.5,5.7-10.6,6.8-1,.3-.9.3-1.1,0-.4-.6-1.2-1.2-1.9-1.4-.6-.1-4.2-.2-4.8,0-3.4.9-3.1,5.7.4,6.2.9.1,4.1,0,4.6-.1,1.1-.4,1.9-1.3,2.1-2.3,0-.3.1-.4.6-.5.2,0,.5-.1.7-.2.2,0,.5-.1.7-.2,5.6-1.6,11-6.4,13.5-11.7q.5-1.1.9-1.2c3.9-1.6,5.6-8.4,3.4-13.4-.7-1.6-2-2.9-3.3-3.4-.4-.2-.4,0-1.1-1.6-.3-.5-.6-1.2-.7-1.4-.1-.2-.3-.4-.3-.5s0,0,0,0c0,0-.3-.4-.5-.8-2.7-4.1-7.6-7.6-12.2-8.8-.8-.2-1-.3-1.5-.4-2.2-.5-4.2-.6-6.5-.4M33.5,17.8c-1.8.2-2.1.3-3,.5-5.1,1.3-9.3,5.1-11.2,10-2,5.3-1,11.5,2.4,15.8.4.5.4.4-.1,1.9-.2.6-.4,1.1-.9,2.5-.4,1.1-.8,2.2-1.2,3.3-.1.3,0,.5.2.7q.2.2,2.4-.9c.4-.2.8-.4.8-.4,0,0,1.6-.7,2.8-1.3.4-.2.7-.3.7-.3s.3-.1.7-.3c.6-.3,1.1-.4,1.2-.3,0,0,.8.3,1.4.5.3,0,1.3.3,2,.5,1.6.4,4.5.3,6.3,0,11.3-2.4,16.6-15.2,10.4-24.9-2.4-3.8-7-6.7-11.2-7.2h-1.2c-.6-.2-1.9-.2-2.3-.2M35.8,19.5c5.1.5,9.4,3.4,11.8,7.9.8,1.5,1.2,2.8,1.5,5,0,.6,0,2.7,0,3.3,0,.3-.1.7-.1.9-1.5,9.2-11.9,14.7-20.4,10.8-.8-.4-.5-.4-2.4.5-.3.1-.6.3-.6.3s-.4.2-.9.4-.9.4-.9.4-.3.1-.6.3c-.9.4-1.1.5-.9.1,0-.2.5-1.3,1.3-3.5.1-.4.3-.8.4-.9.3-.8.4-.7-.5-1.7-2.3-2.7-3.5-6.7-3.3-10.3,0-1,.1-1.2.4-2.5,1.6-6.8,8.4-11.8,15.4-11.1M34.2,31.9c-1.7.2-2.5,2.3-1.4,3.7.7.9,2.1,1.1,2.9.5,2-1.4.9-4.4-1.5-4.1M41.5,31.9c-1.8.2-2.6,2.5-1.3,3.8,1.4,1.4,3.8.4,3.8-1.6,0-1.4-1.1-2.4-2.6-2.2M26.4,32c-2.4.9-1.8,4.3.8,4.3,2.4,0,3.1-3.1,1-4.2-.4-.2-1.3-.3-1.8,0M69.9,37.5c0,.2,0,.7-.1,1.1-.2,2-.7,4.7-1.2,6.2l-.4,1.1c-1.3,4.1-3.8,8.6-6.6,11.8-1.3,1.5-3.1,3.3-4,4-3.3,2.6-5.2,3.8-8.4,5.3-1.3.6-3.3,1.3-4.6,1.7-.2,0-.6.2-.9.2-.7.2-2.5.6-2.9.7-.7.1-1.9.3-2.5.3-.3,0-.6,0-.7.1,0,0,7.2,0,16.1,0h16.3s0-16.4,0-16.4c0-9,0-16.4,0-16.4s0,.1,0,.3M0,53.6v16.4h16.4c9,0,16.4,0,16.3,0s-.5,0-.8-.1c-5.6-.4-11.4-2.5-16.5-5.9-3.7-2.5-7.8-6.7-10-10.3-.6-1.1-.8-1.4-1-1.6-.2-.3-1.3-2.6-1.5-3-1.5-3.5-2.5-7.4-2.8-10.9,0-.4,0-.8-.1-.8C0,37.3,0,44.6,0,53.6" fill="#fff" fill-rule="evenodd"/>
    </g>
  </g>
</svg>