<?xml version="1.0" encoding="UTF-8"?><svg id="Layer_1" xmlns="http://www.w3.org/2000/svg" xmlns:xlink="http://www.w3.org/1999/xlink" viewBox="0 0 70 70"><defs><clipPath id="clippath"><circle cx="35" cy="35" r="35" fill="none"/></clipPath><clipPath id="clippath-1"><rect x="10.75" y="10.75" width="49" height="49" fill="none"/></clipPath></defs><g clip-path="url(#clippath)"><path d="M0,0h70v70H0V0Z" fill="#c05600"/></g><g clip-path="url(#clippath-1)"><path d="M15.81,10.75c-2.8,0-5.06,2.26-5.06,5.06v5.44c0,.66.51,1.17,1.17,1.17h41.61c.66,0,1.17-.51,1.17-1.17s-.51-1.17-1.17-1.17H13.08v-4.28c0-1.52,1.2-2.72,2.72-2.72h38.89c1.52,0,2.72,1.2,2.72,2.72v38.89c0,1.52-1.2,2.72-2.72,2.72h-29.17c-.66,0-1.17.51-1.17,1.17s.51,1.17,1.17,1.17h29.17c2.8,0,5.06-2.26,5.06-5.06V15.81c0-2.8-2.26-5.06-5.06-5.06H15.81ZM16.58,15.42c-.32,0-.6.11-.82.34-.23.22-.34.5-.34.82s.11.6.34.82c.22.23.5.34.82.34s.6-.11.82-.34c.23-.22.34-.5.34-.82s-.11-.6-.34-.82c-.22-.23-.5-.34-.82-.34ZM20.47,15.42c-.32,0-.6.11-.83.34-.22.22-.34.5-.34.82s.11.6.34.82c.23.23.51.34.83.34s.59-.11.82-.34c.23-.22.34-.5.34-.82s-.11-.6-.34-.82c-.23-.23-.5-.34-.82-.34ZM24.36,15.42c-.32,0-.59.11-.82.34-.23.22-.34.5-.34.82s.11.6.34.82c.23.23.5.34.82.34s.6-.11.83-.34c.22-.22.34-.5.34-.82s-.11-.6-.34-.82c-.23-.23-.51-.34-.83-.34ZM11.92,25.14c-.66,0-1.17.51-1.17,1.17v18.7c0,.66.51,1.17,1.17,1.17s1.17-.51,1.17-1.17v-18.7c0-.66-.51-1.17-1.17-1.17ZM49.25,26.31c-2.37,0-4.28,1.91-4.28,4.28,0,1.28.58,2.45,1.47,3.23l-5.05,10.85c-.23-.04-.47-.08-.7-.08-.89,0-1.71.27-2.41.74l-6.14-5.21c.23-.54.39-1.13.39-1.75,0-2.37-1.91-4.28-4.28-4.28s-4.28,1.91-4.28,4.28c0,.94.31,1.83.85,2.53l-8.21,10.61c-.51-.19-1.01-.31-1.59-.31-2.37,0-4.28,1.91-4.28,4.28s1.91,4.28,4.28,4.28,4.28-1.91,4.28-4.28c0-.94-.31-1.83-.86-2.53l8.21-10.61c.51.19,1.01.31,1.59.31.9,0,1.71-.28,2.41-.74l6.15,5.21c-.23.55-.39,1.13-.39,1.75,0,2.38,1.91,4.28,4.28,4.28s4.28-1.91,4.28-4.28c0-1.28-.58-2.45-1.48-3.22l5.06-10.85c.23.04.46.08.7.08,2.37,0,4.28-1.91,4.28-4.28s-1.91-4.28-4.28-4.28ZM49.25,28.64c1.09,0,1.94.85,1.94,1.94s-.85,1.94-1.94,1.94-1.94-.85-1.94-1.94.85-1.94,1.94-1.94ZM28.25,36.42c1.09,0,1.94.85,1.94,1.94s-.85,1.95-1.94,1.95-1.94-.86-1.94-1.95.85-1.94,1.94-1.94ZM40.69,46.92c1.09,0,1.95.85,1.95,1.94s-.86,1.95-1.95,1.95-1.94-.86-1.94-1.95.85-1.94,1.94-1.94ZM15.03,53.53c1.09,0,1.95.86,1.95,1.95s-.86,1.94-1.95,1.94-1.94-.85-1.94-1.94.85-1.95,1.94-1.95Z" fill="#fff"/></g></svg>