<?xml version="1.0" encoding="UTF-8"?>
<svg width="100px" height="100px" viewBox="0 0 100 100" version="1.1" xmlns="http://www.w3.org/2000/svg" xmlns:xlink="http://www.w3.org/1999/xlink">
    <!-- Generator: Sketch 58 (84663) - https://sketch.com -->
    <title>digit-100</title>
    <desc>Created with Sketch.</desc>
    <g id="Page-1" stroke="none" stroke-width="1" fill="none" fill-rule="evenodd">
        <g id="digit-100" fill="#000000">
            <path d="M92.3076923,23.0769231 L53.8461538,23.0769231 L53.8461538,30.7692308 L92.3076923,30.7692308 L92.3076923,23.0769231 Z M92.3076923,15.3846154 L92.3076923,7.69230769 L53.8461538,7.69230769 L53.8461538,15.3846154 L92.3076923,15.3846154 Z M92.3076923,38.4615385 L53.8461538,38.4615385 L53.8461538,46.1538462 L92.3076923,46.1538462 L92.3076923,38.4615385 Z M46.1538462,7.69230769 L7.69230769,7.69230769 L7.69230769,46.1538462 L46.1538462,46.1538462 L46.1538462,7.69230769 Z M92.3076923,53.8461538 L7.69230769,53.8461538 L7.69230769,61.5384615 L92.3076923,61.5384615 L92.3076923,53.8461538 Z M92.3076923,69.2307692 L7.69230769,69.2307692 L7.69230769,76.9230769 L92.3076923,76.9230769 L92.3076923,69.2307692 Z M92.3076923,84.6153846 L7.69230769,84.6153846 L7.69230769,92.3076923 L92.3076923,92.3076923 L92.3076923,84.6153846 Z M-3.41607085e-16,0 L100,0 L100,3.84615385 L100,100 L96.1538462,100 L3.84615385,100 L-8.8817842e-15,100 L9.18397508e-15,3.84615385 L-3.41607085e-16,0 Z M30.7692308,7.69230769 L38.4615385,7.69230769 L38.4615385,15.3846154 L30.7692308,15.3846154 L30.7692308,7.69230769 Z M30.7692308,38.4615385 L38.4615385,38.4615385 L38.4615385,46.1538462 L30.7692308,46.1538462 L30.7692308,38.4615385 Z M15.3846154,7.69230769 L23.0769231,7.69230769 L23.0769231,15.3846154 L15.3846154,15.3846154 L15.3846154,7.69230769 Z M15.3846154,23.0769231 L23.0769231,23.0769231 L23.0769231,30.7692308 L15.3846154,30.7692308 L15.3846154,23.0769231 Z M15.3846154,38.4615385 L23.0769231,38.4615385 L23.0769231,46.1538462 L15.3846154,46.1538462 L15.3846154,38.4615385 Z M23.0769231,15.3846154 L30.7692308,15.3846154 L30.7692308,23.0769231 L23.0769231,23.0769231 L23.0769231,15.3846154 Z M38.4615385,15.3846154 L46.1538462,15.3846154 L46.1538462,23.0769231 L38.4615385,23.0769231 L38.4615385,15.3846154 Z M38.4615385,30.7692308 L46.1538462,30.7692308 L46.1538462,38.4615385 L38.4615385,38.4615385 L38.4615385,30.7692308 Z M7.69230769,15.3846154 L15.3846154,15.3846154 L15.3846154,23.0769231 L7.69230769,23.0769231 L7.69230769,15.3846154 Z M7.69230769,30.7692308 L15.3846154,30.7692308 L15.3846154,38.4615385 L7.69230769,38.4615385 L7.69230769,30.7692308 Z M23.0769231,30.7692308 L30.7692308,30.7692308 L30.7692308,38.4615385 L23.0769231,38.4615385 L23.0769231,30.7692308 Z M30.7692308,23.0769231 L38.4615385,23.0769231 L38.4615385,30.7692308 L30.7692308,30.7692308 L30.7692308,23.0769231 Z" id="Shape" style="mix-blend-mode: multiply;"></path>
        </g>
    </g>
</svg>