<?xml version="1.0" encoding="UTF-8"?>
<svg width="181px" height="29px" viewBox="0 0 181 29" version="1.1" xmlns="http://www.w3.org/2000/svg" xmlns:xlink="http://www.w3.org/1999/xlink">
    <!-- Generator: Sketch 53.2 (72643) - https://sketchapp.com -->
    <title>Logo</title>
    <desc>Created with Sketch.</desc>
    <g id="Page-1" stroke="none" stroke-width="1" fill="none" fill-rule="evenodd">
        <g id="v12-copy" transform="translate(-56.000000, -38.000000)" fill="#000000">
            <g id="header" transform="translate(0.000000, 24.000000)">
                <g id="Logo" transform="translate(56.000000, 10.000000)">
                    <g id="digit-100-copy" transform="translate(0.000000, 4.000000)">
                        <path d="M25.8461538,6.46153846 L15.0769231,6.46153846 L15.0769231,8.61538462 L25.8461538,8.61538462 L25.8461538,6.46153846 Z M25.8461538,4.30769231 L25.8461538,2.15384615 L15.0769231,2.15384615 L15.0769231,4.30769231 L25.8461538,4.30769231 Z M25.8461538,10.7692308 L15.0769231,10.7692308 L15.0769231,12.9230769 L25.8461538,12.9230769 L25.8461538,10.7692308 Z M12.9230769,15.0769231 L2.15384615,15.0769231 L2.15384615,17.2307692 L25.8461538,17.2307692 L25.8461538,15.0769231 L15.0769231,15.0769231 L12.9230769,15.0769231 Z M12.9230769,2.15384615 L2.15384615,2.15384615 L2.15384615,12.9230769 L12.9230769,12.9230769 L12.9230769,2.15384615 Z M25.8461538,19.3846154 L2.15384615,19.3846154 L2.15384615,21.5384615 L25.8461538,21.5384615 L25.8461538,19.3846154 Z M25.8461538,23.6923077 L2.15384615,23.6923077 L2.15384615,25.8461538 L25.8461538,25.8461538 L25.8461538,23.6923077 Z M0,2.15384615 L0,0 L25.8461538,0 L28,-1.02387189e-12 L28,28 L25.8461538,28 L0,28 L0,25.8461538 L1.81256719e-13,2.15384615 Z M8.61538462,2.15384615 L10.7692308,2.15384615 L10.7692308,4.30769231 L8.61538462,4.30769231 L8.61538462,2.15384615 Z M8.61538462,10.7692308 L10.7692308,10.7692308 L10.7692308,12.9230769 L8.61538462,12.9230769 L8.61538462,10.7692308 Z M4.30769231,2.15384615 L6.46153846,2.15384615 L6.46153846,4.30769231 L4.30769231,4.30769231 L4.30769231,2.15384615 Z M4.30769231,6.46153846 L6.46153846,6.46153846 L6.46153846,8.61538462 L4.30769231,8.61538462 L4.30769231,6.46153846 Z M4.30769231,10.7692308 L6.46153846,10.7692308 L6.46153846,12.9230769 L4.30769231,12.9230769 L4.30769231,10.7692308 Z M6.46153846,4.30769231 L8.61538462,4.30769231 L8.61538462,6.46153846 L6.46153846,6.46153846 L6.46153846,4.30769231 Z M10.7692308,4.30769231 L12.9230769,4.30769231 L12.9230769,6.46153846 L10.7692308,6.46153846 L10.7692308,4.30769231 Z M10.7692308,8.61538462 L12.9230769,8.61538462 L12.9230769,10.7692308 L10.7692308,10.7692308 L10.7692308,8.61538462 Z M2.15384615,4.30769231 L4.30769231,4.30769231 L4.30769231,6.46153846 L2.15384615,6.46153846 L2.15384615,4.30769231 Z M2.15384615,8.61538462 L4.30769231,8.61538462 L4.30769231,10.7692308 L2.15384615,10.7692308 L2.15384615,8.61538462 Z M6.46153846,8.61538462 L8.61538462,8.61538462 L8.61538462,10.7692308 L6.46153846,10.7692308 L6.46153846,8.61538462 Z M8.61538462,6.46153846 L10.7692308,6.46153846 L10.7692308,8.61538462 L8.61538462,8.61538462 L8.61538462,6.46153846 Z" id="Combined-Shape-Copy"></path>
                    </g>
                    <text id="Digital.gov" font-family="PublicSans-ExtraBold, Public Sans" font-size="28" font-weight="600">
                        <tspan x="33.888" y="28">Digital.gov</tspan>
                    </text>
                </g>
            </g>
        </g>
    </g>
</svg>