<?xml version="1.0" encoding="UTF-8"?>
<svg width="240px" height="42px" viewBox="0 0 240 42" version="1.1" xmlns="http://www.w3.org/2000/svg" xmlns:xlink="http://www.w3.org/1999/xlink">
    <!-- Generator: Sketch 61 (89581) - https://sketch.com -->
    <title>digitalgov-logo</title>
    <desc>Created with Sketch.</desc>
    <g id="digitalgov-logo" stroke="none" stroke-width="1" fill="none" fill-rule="evenodd">
        <g id="Group" transform="translate(0.000000, 1.000000)" fill="#000000">
            <g id="digit-100-black" transform="translate(0.000000, 2.000000)">
                <path d="M33.2307692,8.30769231 L19.3846154,8.30769231 L19.3846154,11.0769231 L33.2307692,11.0769231 L33.2307692,8.30769231 Z M33.2307692,5.53846154 L33.2307692,2.76923077 L19.3846154,2.76923077 L19.3846154,5.53846154 L33.2307692,5.53846154 Z M33.2307692,13.8461538 L19.3846154,13.8461538 L19.3846154,16.6153846 L33.2307692,16.6153846 L33.2307692,13.8461538 Z M16.6153846,2.76923077 L2.76923077,2.76923077 L2.76923077,16.6153846 L16.6153846,16.6153846 L16.6153846,2.76923077 Z M33.2307692,19.3846154 L2.76923077,19.3846154 L2.76923077,22.1538462 L33.2307692,22.1538462 L33.2307692,19.3846154 Z M33.2307692,24.9230769 L2.76923077,24.9230769 L2.76923077,27.6923077 L33.2307692,27.6923077 L33.2307692,24.9230769 Z M33.2307692,30.4615385 L2.76923077,30.4615385 L2.76923077,33.2307692 L33.2307692,33.2307692 L33.2307692,30.4615385 Z M3.07446376e-15,0 L36,0 L36,1.38461538 L36,36 L34.6153846,36 L1.38461538,36 L0,36 L6.50367334e-15,1.38461538 L3.07446376e-15,0 Z M11.0769231,2.76923077 L13.8461538,2.76923077 L13.8461538,5.53846154 L11.0769231,5.53846154 L11.0769231,2.76923077 Z M11.0769231,13.8461538 L13.8461538,13.8461538 L13.8461538,16.6153846 L11.0769231,16.6153846 L11.0769231,13.8461538 Z M5.53846154,2.76923077 L8.30769231,2.76923077 L8.30769231,5.53846154 L5.53846154,5.53846154 L5.53846154,2.76923077 Z M5.53846154,8.30769231 L8.30769231,8.30769231 L8.30769231,11.0769231 L5.53846154,11.0769231 L5.53846154,8.30769231 Z M5.53846154,13.8461538 L8.30769231,13.8461538 L8.30769231,16.6153846 L5.53846154,16.6153846 L5.53846154,13.8461538 Z M8.30769231,5.53846154 L11.0769231,5.53846154 L11.0769231,8.30769231 L8.30769231,8.30769231 L8.30769231,5.53846154 Z M13.8461538,5.53846154 L16.6153846,5.53846154 L16.6153846,8.30769231 L13.8461538,8.30769231 L13.8461538,5.53846154 Z M13.8461538,11.0769231 L16.6153846,11.0769231 L16.6153846,13.8461538 L13.8461538,13.8461538 L13.8461538,11.0769231 Z M2.76923077,5.53846154 L5.53846154,5.53846154 L5.53846154,8.30769231 L2.76923077,8.30769231 L2.76923077,5.53846154 Z M2.76923077,11.0769231 L5.53846154,11.0769231 L5.53846154,13.8461538 L2.76923077,13.8461538 L2.76923077,11.0769231 Z M8.30769231,11.0769231 L11.0769231,11.0769231 L11.0769231,13.8461538 L8.30769231,13.8461538 L8.30769231,11.0769231 Z M11.0769231,8.30769231 L13.8461538,8.30769231 L13.8461538,11.0769231 L11.0769231,11.0769231 L11.0769231,8.30769231 Z" id="Shape" style="mix-blend-mode: multiply;"></path>
            </g>
            <text id="Digital.gov" font-family="PublicSans-Bold, Public Sans" font-size="34" font-weight="bold" line-spacing="38">
                <tspan x="45" y="34">Digital.gov</tspan>
            </text>
        </g>
    </g>
</svg>