<svg width="220" height="36" viewBox="0 0 220 36" xmlns="http://www.w3.org/2000/svg" xmlns:xlink="http://www.w3.org/1999/xlink"><defs><path d="m14.803 0 14.802 8.453v16.905L14.803 33.81 0 25.358V8.453L14.803 0ZM10.06 8.527v16.778l14.69-8.389-14.69-8.389Z" id="a"/></defs><g fill="none" fill-rule="evenodd"><g transform="translate(0 1.26)"><mask id="b" fill="#fff"><use xlink:href="#a"/></mask><use fill="#004F8B" xlink:href="#a"/><path fill="#2572DE" mask="url(#b)" d="m1.005 3.352 23.693 13.553-26.639 15.277-8.292 1.716z"/></g><path d="M40.672 30V5.338h3.496c.876 0 1.734.003 2.576.008.841.006 1.529.014 2.063.026 2.98.09 5.407.648 7.283 1.671 1.876 1.024 3.258 2.433 4.145 4.23.886 1.797 1.33 3.894 1.33 6.294 0 2.478-.46 4.65-1.382 6.515-.92 1.864-2.333 3.317-4.238 4.357C54.041 29.48 51.622 30 48.688 30h-8.016Zm5.833-4.622h2.354a7.03 7.03 0 0 0 3.197-.768c1.018-.511 1.848-1.341 2.49-2.49.643-1.148.964-2.689.964-4.622 0-2.57-.6-4.468-1.8-5.696-1.199-1.228-2.805-1.842-4.817-1.842h-2.388v15.418Zm18.54-14.992V5.338h5.576v5.048h-5.577ZM65.06 30V12.365h5.526V30H65.06Zm17.755 5.833c-3.309 0-5.796-.398-7.462-1.194-1.665-.796-2.498-1.796-2.498-3.002 0-.59.162-1.08.486-1.466a3.748 3.748 0 0 1 1.134-.921c.432-.228.83-.396 1.194-.504.364-.108.585-.179.665-.213a29.37 29.37 0 0 1-.836-.443 3.584 3.584 0 0 1-1.032-.87c-.312-.375-.469-.864-.469-1.467 0-.67.316-1.285.947-1.842.631-.557 1.595-.938 2.89-1.143-1.227-.545-2.145-1.304-2.754-2.276-.608-.973-.912-1.936-.912-2.891 0-1.172.387-2.166 1.16-2.985.773-.819 1.816-1.444 3.13-1.876 1.313-.432 2.77-.648 4.374-.648 1.228 0 2.229.128 3.002.383.773.256 1.49.572 2.149.947.398-.16.918-.364 1.56-.614.643-.25 1.317-.514 2.022-.793a97.576 97.576 0 0 0 1.91-.776l-.034 4.28-3.02.444c.092.285.163.583.214.896.051.312.077.554.077.725 0 1-.313 1.955-.938 2.865-.626.91-1.552 1.651-2.78 2.226-1.228.574-2.746.86-4.554.86-.239 0-.574-.008-1.006-.025a23.089 23.089 0 0 1-1.04-.06c-.421.035-.711.094-.87.18-.16.085-.24.196-.24.332 0 .262.254.427.76.495s1.236.13 2.191.188c.341.01.833.037 1.476.076.642.04 1.35.083 2.123.128 2.297.16 3.99.717 5.082 1.672 1.092.955 1.638 2.12 1.638 3.496 0 1.683-.81 3.073-2.43 4.17s-4.057 1.646-7.309 1.646Zm-.188-15.435c.774 0 1.402-.239 1.885-.717.483-.477.725-1.108.725-1.893 0-.784-.242-1.441-.725-1.97-.483-.528-1.111-.793-1.885-.793-.795 0-1.435.265-1.918.793-.483.529-.725 1.186-.725 1.97 0 .773.239 1.402.716 1.885.478.483 1.12.725 1.927.725Zm1.11 12.297c1.273 0 2.142-.134 2.609-.401.466-.267.699-.645.699-1.134 0-.955-.813-1.49-2.44-1.603l-3.615-.24c-.864-.045-1.492.112-1.884.47-.393.358-.589.747-.589 1.168 0 .648.42 1.1 1.262 1.356.842.256 2.16.384 3.957.384Zm12.126-22.309V5.338h5.577v5.048h-5.577ZM95.88 30V12.365h5.526V30H95.88Zm17.499.222c-1.695 0-3.005-.213-3.932-.64-.926-.426-1.569-1.012-1.927-1.757-.358-.744-.537-1.589-.537-2.532v-8.954h-2.866v-3.974h3.07l1.484-5.407h4.11v5.372h3.872v4.009h-3.871l.017 8.698c0 .523.116.855.35.998.232.142.554.213.963.213h2.575v3.496c-.238.114-.608.222-1.108.324-.5.103-1.234.154-2.2.154Zm11.853.12c-1.125 0-2.143-.214-3.053-.64a5.13 5.13 0 0 1-2.166-1.868c-.534-.819-.801-1.82-.801-3.002 0-1.921.739-3.4 2.217-4.434 1.478-1.035 3.798-1.558 6.959-1.57l1.79-.016v-.904c0-1.399-.807-2.087-2.422-2.064a4.823 4.823 0 0 0-1.799.435c-.597.267-1.02.753-1.27 1.458h-4.759c.057-1.33.446-2.416 1.168-3.258.722-.84 1.683-1.46 2.883-1.859 1.2-.398 2.544-.597 4.033-.597 1.922 0 3.448.228 4.58.683 1.131.454 1.938 1.097 2.422 1.927.483.83.724 1.802.724 2.916V30h-4.826l-.495-2.916c-.568 1.239-1.27 2.092-2.106 2.558-.836.466-1.862.7-3.079.7Zm1.996-3.736c.773 0 1.455-.256 2.046-.768.592-.511.893-1.102.904-1.773V21.66l-1.432.017c-.592 0-1.2.08-1.825.239-.626.159-1.157.423-1.595.793-.438.37-.657.878-.657 1.526 0 .75.253 1.333.76 1.748.505.415 1.105.623 1.799.623Zm18.317 3.735c-1.466 0-2.618-.162-3.453-.486-.836-.324-1.447-.753-1.834-1.288a3.989 3.989 0 0 1-.725-1.773 13.052 13.052 0 0 1-.145-1.928V4.656h5.68v19.46c0 .534.125.998.375 1.39.25.392.79.64 1.62.742l.768.05v3.566c-.364.136-.742.25-1.134.34a5.087 5.087 0 0 1-1.152.137Zm5.578-.341v-6.055h6.225V30h-6.225Zm19.375 5.833c-3.31 0-5.796-.398-7.462-1.194-1.666-.796-2.499-1.796-2.499-3.002 0-.59.162-1.08.486-1.466a3.748 3.748 0 0 1 1.134-.921c.433-.228.83-.396 1.194-.504.364-.108.586-.179.666-.213a29.37 29.37 0 0 1-.836-.443 3.584 3.584 0 0 1-1.032-.87c-.313-.375-.47-.864-.47-1.467 0-.67.316-1.285.948-1.842.63-.557 1.594-.938 2.89-1.143-1.228-.545-2.146-1.304-2.754-2.276-.608-.973-.913-1.936-.913-2.891 0-1.172.387-2.166 1.16-2.985.773-.819 1.817-1.444 3.13-1.876 1.313-.432 2.771-.648 4.375-.648 1.228 0 2.228.128 3.001.383.774.256 1.49.572 2.15.947.397-.16.918-.364 1.56-.614s1.316-.514 2.021-.793a97.574 97.574 0 0 0 1.91-.776l-.034 4.28-3.019.444c.091.285.162.583.214.896.05.312.076.554.076.725 0 1-.312 1.955-.938 2.865-.625.91-1.552 1.651-2.78 2.226-1.228.574-2.746.86-4.554.86-.238 0-.574-.008-1.006-.025a23.089 23.089 0 0 1-1.04-.06c-.42.035-.71.094-.87.18-.16.085-.239.196-.239.332 0 .262.253.427.76.495.505.068 1.236.13 2.19.188.342.01.834.037 1.476.076.642.04 1.35.083 2.123.128 2.297.16 3.991.717 5.083 1.672s1.637 2.12 1.637 3.496c0 1.683-.81 3.073-2.43 4.17s-4.056 1.646-7.308 1.646Zm-.188-15.435c.773 0 1.401-.239 1.885-.717.483-.477.725-1.108.725-1.893 0-.784-.242-1.441-.725-1.97-.484-.528-1.112-.793-1.885-.793-.796 0-1.435.265-1.919.793-.483.529-.725 1.186-.725 1.97 0 .773.24 1.402.717 1.885.477.483 1.12.725 1.927.725Zm1.109 12.297c1.273 0 2.143-.134 2.61-.401.465-.267.698-.645.698-1.134 0-.955-.813-1.49-2.439-1.603l-3.615-.24c-.864-.045-1.493.112-1.885.47-.392.358-.588.747-.588 1.168 0 .648.42 1.1 1.262 1.356.841.256 2.16.384 3.957.384Zm19.699-2.354c-1.774 0-3.315-.378-4.622-1.134a7.788 7.788 0 0 1-3.036-3.164c-.716-1.353-1.075-2.94-1.075-4.758 0-1.842.367-3.46 1.1-4.853.734-1.393 1.757-2.476 3.07-3.249 1.314-.773 2.846-1.16 4.597-1.16 1.785 0 3.329.39 4.63 1.169 1.302.779 2.309 1.865 3.02 3.257.71 1.393 1.065 3.005 1.065 4.836 0 1.762-.352 3.325-1.057 4.69a7.817 7.817 0 0 1-3.019 3.206c-1.308.774-2.865 1.16-4.673 1.16Zm.034-4.264c.784 0 1.398-.247 1.842-.742.443-.494.756-1.125.938-1.893.182-.767.273-1.55.273-2.345 0-.785-.085-1.55-.256-2.294-.17-.745-.478-1.362-.921-1.85-.443-.49-1.069-.734-1.876-.734-.807 0-1.436.236-1.885.708-.449.472-.764 1.08-.946 1.825a9.85 9.85 0 0 0-.273 2.345c0 .773.085 1.544.256 2.311.17.768.48 1.404.93 1.91.448.506 1.088.76 1.918.76ZM207.475 30l-6.754-17.635h5.202l3.48 10.114h.085l3.377-10.114h5.287L211.398 30h-3.923Z" fill="#FFF" fill-rule="nonzero"/></g></svg>