<?xml version="1.0" encoding="UTF-8"?>
<svg width="220px" height="36px" viewBox="0 0 220 36" version="1.1" xmlns="http://www.w3.org/2000/svg" xmlns:xlink="http://www.w3.org/1999/xlink">
    <!-- Generator: Sketch 61 (89581) - https://sketch.com -->
    <title>digitalgov-logo</title>
    <desc>Created with Sketch.</desc>
    <g id="digitalgov-logo" stroke="none" stroke-width="1" fill="none" fill-rule="evenodd">
        <g id="Group" transform="translate(0.000000, 1.000000)" fill="#000000">
            <g id="digit-100-black" transform="translate(0.000000, 2.000000)">
                <path d="M27.6923077,6.92307692 L16.1538462,6.92307692 L16.1538462,9.23076923 L27.6923077,9.23076923 L27.6923077,6.92307692 Z M27.6923077,4.61538462 L27.6923077,2.30769231 L16.1538462,2.30769231 L16.1538462,4.61538462 L27.6923077,4.61538462 Z M27.6923077,11.5384615 L16.1538462,11.5384615 L16.1538462,13.8461538 L27.6923077,13.8461538 L27.6923077,11.5384615 Z M13.8461538,2.30769231 L2.30769231,2.30769231 L2.30769231,13.8461538 L13.8461538,13.8461538 L13.8461538,2.30769231 Z M27.6923077,16.1538462 L2.30769231,16.1538462 L2.30769231,18.4615385 L27.6923077,18.4615385 L27.6923077,16.1538462 Z M27.6923077,20.7692308 L2.30769231,20.7692308 L2.30769231,23.0769231 L27.6923077,23.0769231 L27.6923077,20.7692308 Z M27.6923077,25.3846154 L2.30769231,25.3846154 L2.30769231,27.6923077 L27.6923077,27.6923077 L27.6923077,25.3846154 Z M2.56205313e-15,0 L30,0 L30,1.15384615 L30,30 L28.8461538,30 L1.15384615,30 L0,30 L5.41972778e-15,1.15384615 L2.56205313e-15,0 Z M9.23076923,2.30769231 L11.5384615,2.30769231 L11.5384615,4.61538462 L9.23076923,4.61538462 L9.23076923,2.30769231 Z M9.23076923,11.5384615 L11.5384615,11.5384615 L11.5384615,13.8461538 L9.23076923,13.8461538 L9.23076923,11.5384615 Z M4.61538462,2.30769231 L6.92307692,2.30769231 L6.92307692,4.61538462 L4.61538462,4.61538462 L4.61538462,2.30769231 Z M4.61538462,6.92307692 L6.92307692,6.92307692 L6.92307692,9.23076923 L4.61538462,9.23076923 L4.61538462,6.92307692 Z M4.61538462,11.5384615 L6.92307692,11.5384615 L6.92307692,13.8461538 L4.61538462,13.8461538 L4.61538462,11.5384615 Z M6.92307692,4.61538462 L9.23076923,4.61538462 L9.23076923,6.92307692 L6.92307692,6.92307692 L6.92307692,4.61538462 Z M11.5384615,4.61538462 L13.8461538,4.61538462 L13.8461538,6.92307692 L11.5384615,6.92307692 L11.5384615,4.61538462 Z M11.5384615,9.23076923 L13.8461538,9.23076923 L13.8461538,11.5384615 L11.5384615,11.5384615 L11.5384615,9.23076923 Z M2.30769231,4.61538462 L4.61538462,4.61538462 L4.61538462,6.92307692 L2.30769231,6.92307692 L2.30769231,4.61538462 Z M2.30769231,9.23076923 L4.61538462,9.23076923 L4.61538462,11.5384615 L2.30769231,11.5384615 L2.30769231,9.23076923 Z M6.92307692,9.23076923 L9.23076923,9.23076923 L9.23076923,11.5384615 L6.92307692,11.5384615 L6.92307692,9.23076923 Z M9.23076923,6.92307692 L11.5384615,6.92307692 L11.5384615,9.23076923 L9.23076923,9.23076923 L9.23076923,6.92307692 Z" id="Shape" style="mix-blend-mode: multiply;"></path>
            </g>
            <path d="M47.5060017,29 C56.2780032,29 60.3410038,24.0189992 60.3410038,16.606998 C60.3410038,9.4499968 56.5330032,4.70699602 47.6250017,4.45199598 C45.4830014,4.40099597 40.1280005,4.41799597 39.5160004,4.41799597 L39.5160004,29 L47.5060017,29 Z M47.6760017,24.3929992 L45.3300014,24.3929992 L45.3300014,9.02499673 L47.7100018,9.02499673 C51.7220024,9.02499673 54.3060028,11.4049971 54.3060028,16.538998 C54.3060028,22.3019989 51.0250023,24.3929992 47.6760017,24.3929992 Z M69.5890013,9.4499968 L69.5890013,4.41799597 L64.0300003,4.41799597 L64.0300003,9.4499968 L69.5890013,9.4499968 Z M69.5720013,29 L69.5720013,11.4219971 L64.0470004,11.4219971 L64.0470004,29 L69.5720013,29 Z M81.9480017,34.814001 C88.4080028,34.814001 91.6550033,32.3660006 91.6550033,29.017 C91.6550033,26.2799996 89.5300029,24.1719992 84.9400022,23.8659992 C83.4270019,23.7639991 82.0500017,23.6959991 81.3700016,23.6619991 C79.4660013,23.5429991 78.4120011,23.4919991 78.4120011,22.981999 C78.4120011,22.709999 78.7010012,22.5399989 79.5340013,22.4719989 C80.0440014,22.5229989 81.0980016,22.5569989 81.5740016,22.5569989 C86.9800025,22.5569989 89.819003,19.6329985 89.819003,16.623998 C89.819003,16.2839979 89.717003,15.5699978 89.5300029,15.0089977 L92.5390034,14.5669976 L92.5730034,10.2999969 C90.8560032,11.0139971 88.2890027,12.0169972 87.0990025,12.4759973 C85.7900023,11.7279972 84.4130021,11.1499971 81.9480017,11.1499971 C77.1710009,11.1499971 73.3120003,13.1389974 73.3120003,16.640998 C73.3120003,18.5449983 74.5360005,20.6869986 76.9670009,21.7919988 C74.3830005,22.1829989 73.1590003,23.4409991 73.1590003,24.7669993 C73.1590003,26.5689996 74.9440006,27.2489997 75.4710006,27.5379998 C75.1650006,27.6739998 72.0200001,28.2859999 72.0200001,30.6320003 C72.0200001,33.0460007 75.3520006,34.814001 81.9480017,34.814001 Z M81.7440017,19.4289984 C80.1460014,19.4289984 79.1260012,18.3749983 79.1260012,16.827998 C79.1260012,15.2639977 80.1800014,14.0739976 81.7440017,14.0739976 C83.3080019,14.0739976 84.3620021,15.2639977 84.3620021,16.827998 C84.3620021,18.3919983 83.3080019,19.4289984 81.7440017,19.4289984 Z M82.8660019,31.6860004 C79.2960013,31.6860004 77.647001,31.2440004 77.647001,29.9520002 C77.647001,29.119 78.4120011,28.2349999 80.1290014,28.3199999 L83.733002,28.5579999 C85.2800022,28.6599999 86.147001,29.255 86.147001,30.1560002 C86.147001,31.1250003 85.3990023,31.6860004 82.8660019,31.6860004 Z M100.699001,9.4499968 L100.699001,4.41799597 L95.1400003,4.41799597 L95.1400003,9.4499968 L100.699001,9.4499968 Z M100.682001,29 L100.682001,11.4219971 L95.1570004,11.4219971 L95.1570004,29 L100.682001,29 Z M112.854002,29.238 C114.775002,29.238 115.676002,28.966 116.152002,28.745 L116.152002,25.2599994 L113.602002,25.2599994 C112.769002,25.2599994 112.276002,25.0899994 112.276002,24.0529992 L112.259002,15.3829978 L116.118002,15.3829978 L116.118002,11.3879971 L112.259002,11.3879971 L112.259002,6.03299624 L108.162001,6.03299624 L106.683001,11.4219971 L103.623,11.4219971 L103.623,15.3829978 L106.479001,15.3829978 L106.479001,24.3079992 C106.479001,27.1299997 107.771001,29.238 112.854002,29.238 Z M124.584001,29.3400001 C127.015002,29.3400001 128.630002,28.5579999 129.752002,26.0929995 L130.262002,29 L135.073003,29 L135.073003,16.589998 C135.073003,13.2579974 133.118003,11.0819971 127.372002,11.0819971 C122.918001,11.0819971 119.484,12.7989973 119.297,16.776998 L124.040001,16.776998 C124.567001,15.3659978 125.927001,14.9239977 127.100002,14.8899977 C128.749002,14.8729977 129.531002,15.5869978 129.531002,16.946998 L129.531002,17.8479982 L127.746002,17.8649982 C121.439001,17.8989982 118.583,20.0239985 118.583,23.8489992 C118.583,27.3849997 121.252001,29.3400001 124.584001,29.3400001 Z M126.590001,25.6169994 C125.213001,25.6169994 124.040001,24.7499993 124.040001,23.2539991 C124.040001,21.3159987 126.335001,20.7209986 128.103002,20.7039986 L129.531002,20.6869986 L129.531002,23.083999 C129.497002,24.4099992 128.120002,25.6169994 126.590001,25.6169994 Z M145.222001,29.3400001 C145.970001,29.3400001 146.769002,29.136 147.500002,28.864 L147.500002,25.3109994 L146.735002,25.2599994 C145.069001,25.0559994 144.746001,24.2059992 144.746001,23.134999 L144.746001,3.73799586 L139.068,3.73799586 L139.068,23.8829992 C139.068,26.4329996 139.374,29.3400001 145.222001,29.3400001 Z M156.884001,29 L156.884001,22.964999 L150.679,22.964999 L150.679,29 L156.884001,29 Z M169.991002,34.814001 C176.451003,34.814001 179.698003,32.3660006 179.698003,29.017 C179.698003,26.2799996 177.573003,24.1719992 172.983002,23.8659992 C171.470002,23.7639991 170.093002,23.6959991 169.413002,23.6619991 C167.509001,23.5429991 166.455001,23.4919991 166.455001,22.981999 C166.455001,22.709999 166.744001,22.5399989 167.577001,22.4719989 C168.087001,22.5229989 169.141002,22.5569989 169.617002,22.5569989 C175.023003,22.5569989 177.862003,19.6329985 177.862003,16.623998 C177.862003,16.2839979 177.760003,15.5699978 177.573003,15.0089977 L180.582003,14.5669976 L180.616003,10.2999969 C178.899003,11.0139971 176.332003,12.0169972 175.142003,12.4759973 C173.833002,11.7279972 172.456002,11.1499971 169.991002,11.1499971 C165.214001,11.1499971 161.355,13.1389974 161.355,16.640998 C161.355,18.5449983 162.579,20.6869986 165.010001,21.7919988 C162.426,22.1829989 161.202,23.4409991 161.202,24.7669993 C161.202,26.5689996 162.987001,27.2489997 163.514001,27.5379998 C163.208001,27.6739998 160.063,28.2859999 160.063,30.6320003 C160.063,33.0460007 163.395001,34.814001 169.991002,34.814001 Z M169.787002,19.4289984 C168.189001,19.4289984 167.169001,18.3749983 167.169001,16.827998 C167.169001,15.2639977 168.223001,14.0739976 169.787002,14.0739976 C171.351002,14.0739976 172.405002,15.2639977 172.405002,16.827998 C172.405002,18.3919983 171.351002,19.4289984 169.787002,19.4289984 Z M170.909002,31.6860004 C167.339001,31.6860004 165.690001,31.2440004 165.690001,29.9520002 C165.690001,29.119 166.455001,28.2349999 168.172001,28.3199999 L171.776002,28.5579999 C173.323002,28.6599999 174.190001,29.255 174.190001,30.1560002 C174.190001,31.1250003 173.442002,31.6860004 170.909002,31.6860004 Z M190.391002,29.3400001 C195.814002,29.3400001 199.112003,25.5829994 199.112003,20.3129986 C199.112003,14.8389977 195.763002,11.0819971 190.425002,11.0819971 C185.189001,11.0819971 181.687,14.7879977 181.687,20.3129986 C181.687,25.7359995 185.087001,29.3400001 190.391002,29.3400001 Z M190.425002,25.0899994 C187.960001,25.0899994 187.331001,22.4209989 187.331001,20.1259985 C187.331001,17.6779981 188.028001,15.2639977 190.425002,15.2639977 C192.856002,15.2639977 193.485002,17.7799982 193.485002,20.1259985 C193.485002,22.5229989 192.788002,25.0899994 190.425002,25.0899994 Z M210.298002,29 L217.030003,11.4219971 L211.760002,11.4219971 L208.377001,21.5029988 L208.309001,21.5029988 L204.841001,11.4219971 L199.656,11.4219971 L206.371001,29 L210.298002,29 Z" id="Digital.gov" fill-rule="nonzero"></path>
        </g>
    </g>
</svg>