<?xml version="1.0" encoding="UTF-8"?>
<svg width="172px" height="20px" viewBox="0 0 172 20" version="1.1" xmlns="http://www.w3.org/2000/svg" xmlns:xlink="http://www.w3.org/1999/xlink">
    <!-- Generator: Sketch 53.2 (72643) - https://sketchapp.com -->
    <title>Group 4</title>
    <desc>Created with Sketch.</desc>
    <g id="Page-1" stroke="none" stroke-width="1" fill="none" fill-rule="evenodd">
        <g id="banner-1-copy-6" transform="translate(-121.000000, -32.000000)" fill="#FFFFFF">
            <g id="dg-banner" transform="translate(0.000000, 22.000000)">
                <g id="Group-4" transform="translate(121.000000, 10.000000)">
                    <g id="digit-100-white">
                        <path d="M18.4615385,4.61538462 L10.7692308,4.61538462 L10.7692308,6.15384615 L18.4615385,6.15384615 L18.4615385,4.61538462 Z M18.4615385,3.07692308 L18.4615385,1.53846154 L10.7692308,1.53846154 L10.7692308,3.07692308 L18.4615385,3.07692308 Z M18.4615385,7.69230769 L10.7692308,7.69230769 L10.7692308,9.23076923 L18.4615385,9.23076923 L18.4615385,7.69230769 Z M9.23076923,10.7692308 L1.53846154,10.7692308 L1.53846154,12.3076923 L18.4615385,12.3076923 L18.4615385,10.7692308 L10.7692308,10.7692308 L9.23076923,10.7692308 Z M9.23076923,1.53846154 L1.53846154,1.53846154 L1.53846154,9.23076923 L9.23076923,9.23076923 L9.23076923,1.53846154 Z M18.4615385,13.8461538 L1.53846154,13.8461538 L1.53846154,15.3846154 L18.4615385,15.3846154 L18.4615385,13.8461538 Z M18.4615385,16.9230769 L1.53846154,16.9230769 L1.53846154,18.4615385 L18.4615385,18.4615385 L18.4615385,16.9230769 Z M0,1.53846154 L0,0 L18.4615385,0 L20,-1.32857361e-12 L20,20 L18.4615385,20 L0,20 L0,18.4615385 L1.21185113e-12,1.53846154 Z M6.15384615,1.53846154 L7.69230769,1.53846154 L7.69230769,3.07692308 L6.15384615,3.07692308 L6.15384615,1.53846154 Z M6.15384615,7.69230769 L7.69230769,7.69230769 L7.69230769,9.23076923 L6.15384615,9.23076923 L6.15384615,7.69230769 Z M3.07692308,1.53846154 L4.61538462,1.53846154 L4.61538462,3.07692308 L3.07692308,3.07692308 L3.07692308,1.53846154 Z M3.07692308,4.61538462 L4.61538462,4.61538462 L4.61538462,6.15384615 L3.07692308,6.15384615 L3.07692308,4.61538462 Z M3.07692308,7.69230769 L4.61538462,7.69230769 L4.61538462,9.23076923 L3.07692308,9.23076923 L3.07692308,7.69230769 Z M4.61538462,3.07692308 L6.15384615,3.07692308 L6.15384615,4.61538462 L4.61538462,4.61538462 L4.61538462,3.07692308 Z M7.69230769,3.07692308 L9.23076923,3.07692308 L9.23076923,4.61538462 L7.69230769,4.61538462 L7.69230769,3.07692308 Z M7.69230769,6.15384615 L9.23076923,6.15384615 L9.23076923,7.69230769 L7.69230769,7.69230769 L7.69230769,6.15384615 Z M1.53846154,3.07692308 L3.07692308,3.07692308 L3.07692308,4.61538462 L1.53846154,4.61538462 L1.53846154,3.07692308 Z M1.53846154,6.15384615 L3.07692308,6.15384615 L3.07692308,7.69230769 L1.53846154,7.69230769 L1.53846154,6.15384615 Z M4.61538462,6.15384615 L6.15384615,6.15384615 L6.15384615,7.69230769 L4.61538462,7.69230769 L4.61538462,6.15384615 Z M6.15384615,4.61538462 L7.69230769,4.61538462 L7.69230769,6.15384615 L6.15384615,6.15384615 L6.15384615,4.61538462 Z" id="Combined-Shape"></path>
                    </g>
                    <path d="M26.386,2.986 C26.674,2.986 29.248,2.986 30.364,3.004 C35.098,3.13 37.114,5.56 37.114,9.43 C37.114,13.462 34.936,16 30.274,16 L26.386,16 L26.386,2.986 Z M29.122,5.164 L29.122,13.804 L30.346,13.804 C32.488,13.804 34.27,12.634 34.27,9.412 C34.27,6.424 32.776,5.164 30.364,5.164 L29.122,5.164 Z M41.74,2.626 L41.74,5.236 L38.986,5.236 L38.986,2.626 L41.74,2.626 Z M41.722,6.694 L41.722,16 L39.004,16 L39.004,6.694 L41.722,6.694 Z M48.49,19.078 C45.106,19.078 43.396,18.124 43.396,16.81 C43.396,15.55 45.034,15.172 45.214,15.082 C44.908,14.902 44.044,14.578 44.044,13.678 C44.044,13.012 44.674,12.382 45.97,12.166 C44.674,11.554 44.08,10.51 44.08,9.466 C44.08,7.594 46.042,6.55 48.526,6.55 C49.804,6.55 50.542,6.856 51.244,7.27 C51.802,7.054 53.206,6.496 53.998,6.172 L53.998,8.242 L52.378,8.494 C52.486,8.8 52.576,9.25 52.576,9.448 C52.576,11.032 51.154,12.544 48.328,12.544 C48.112,12.544 47.626,12.526 47.392,12.508 C46.744,12.544 46.528,12.688 46.528,12.868 C46.528,13.156 47.068,13.21 48.148,13.264 C48.526,13.3 49.246,13.336 50.074,13.39 C52.45,13.552 53.494,14.632 53.494,16.054 C53.494,17.836 51.784,19.078 48.49,19.078 Z M48.418,11.032 C49.426,11.032 50.02,10.456 50.02,9.556 C50.02,8.638 49.426,7.972 48.418,7.972 C47.428,7.972 46.798,8.638 46.798,9.556 C46.798,10.456 47.41,11.032 48.418,11.032 Z M48.922,17.566 C50.416,17.566 50.902,17.224 50.902,16.576 C50.902,16.018 50.452,15.676 49.516,15.604 L47.428,15.478 C46.582,15.424 46.042,15.946 46.042,16.486 C46.042,17.278 46.996,17.566 48.922,17.566 Z M58.426,2.626 L58.426,5.236 L55.672,5.236 L55.672,2.626 L58.426,2.626 Z M58.408,6.694 L58.408,16 L55.69,16 L55.69,6.694 L58.408,6.694 Z M66.67,8.566 L64.6,8.566 L64.618,13.426 C64.618,14.092 64.906,14.236 65.32,14.236 L66.706,14.236 L66.706,15.874 C66.454,15.982 65.968,16.108 65.05,16.108 C62.548,16.108 61.882,15.064 61.882,13.57 L61.882,8.566 L60.37,8.566 L60.37,6.694 L61.972,6.694 L62.35,3.724 L64.6,3.724 L64.6,6.676 L66.67,6.676 L66.67,8.566 Z M71.584,16.18 C69.802,16.18 68.434,15.154 68.434,13.318 C68.434,11.284 69.91,10.258 73.204,10.186 L74.338,10.132 L74.338,9.628 C74.338,8.782 73.816,8.332 72.862,8.332 C72.16,8.35 71.404,8.638 70.972,9.412 L68.758,9.304 C69.046,7.396 70.774,6.514 72.988,6.514 C75.868,6.514 76.93,7.684 76.93,9.448 L76.93,16 L74.662,16 L74.464,14.812 C73.906,15.64 72.88,16.18 71.584,16.18 Z M72.502,14.398 C73.42,14.398 74.32,13.678 74.338,12.886 L74.338,11.554 L73.42,11.608 C72.178,11.662 71.008,11.932 71.008,13.048 C71.008,13.894 71.674,14.398 72.502,14.398 Z M82.204,16.144 C79.378,16.144 79.18,14.686 79.18,13.336 L79.18,2.626 L81.844,2.626 L81.844,13.012 C81.844,13.678 82.078,14.128 82.888,14.218 L83.32,14.236 L83.32,15.91 C82.96,16.036 82.564,16.144 82.204,16.144 Z M87.838,13.066 L87.838,16 L84.868,16 L84.868,13.066 L87.838,13.066 Z M94.804,19.078 C91.42,19.078 89.71,18.124 89.71,16.81 C89.71,15.55 91.348,15.172 91.528,15.082 C91.222,14.902 90.358,14.578 90.358,13.678 C90.358,13.012 90.988,12.382 92.284,12.166 C90.988,11.554 90.394,10.51 90.394,9.466 C90.394,7.594 92.356,6.55 94.84,6.55 C96.118,6.55 96.856,6.856 97.558,7.27 C98.116,7.054 99.52,6.496 100.312,6.172 L100.312,8.242 L98.692,8.494 C98.8,8.8 98.89,9.25 98.89,9.448 C98.89,11.032 97.468,12.544 94.642,12.544 C94.426,12.544 93.94,12.526 93.706,12.508 C93.058,12.544 92.842,12.688 92.842,12.868 C92.842,13.156 93.382,13.21 94.462,13.264 C94.84,13.3 95.56,13.336 96.388,13.39 C98.764,13.552 99.808,14.632 99.808,16.054 C99.808,17.836 98.098,19.078 94.804,19.078 Z M94.732,11.032 C95.74,11.032 96.334,10.456 96.334,9.556 C96.334,8.638 95.74,7.972 94.732,7.972 C93.742,7.972 93.112,8.638 93.112,9.556 C93.112,10.456 93.724,11.032 94.732,11.032 Z M95.236,17.566 C96.73,17.566 97.216,17.224 97.216,16.576 C97.216,16.018 96.766,15.676 95.83,15.604 L93.742,15.478 C92.896,15.424 92.356,15.946 92.356,16.486 C92.356,17.278 93.31,17.566 95.236,17.566 Z M105.802,16.18 C103.012,16.18 101.284,14.218 101.284,11.41 C101.284,8.494 103.102,6.514 105.82,6.514 C108.628,6.514 110.338,8.566 110.338,11.392 C110.338,14.2 108.61,16.18 105.802,16.18 Z M105.82,14.164 C107.242,14.164 107.674,12.724 107.674,11.302 C107.674,9.88 107.224,8.512 105.82,8.512 C104.398,8.512 103.948,9.88 103.948,11.302 C103.948,12.706 104.398,14.164 105.82,14.164 Z M120.094,6.694 L116.314,16 L114.478,16 L110.698,6.694 L113.146,6.694 L115.396,12.49 L117.628,6.694 L120.094,6.694 Z" id="Digital.gov" fill-rule="nonzero"></path>
                    <path d="M131.217586,16.18 C127.851586,16.18 125.817586,13.678 125.817586,9.538 C125.817586,5.272 127.959586,2.806 131.271586,2.806 C133.719586,2.806 135.843586,4.57 136.005586,6.586 L134.565586,6.712 C134.295586,5.2 132.981586,4.012 131.253586,4.012 C128.751586,4.012 127.221586,5.938 127.221586,9.43 C127.221586,13.156 128.805586,14.974 131.289586,14.974 C133.665586,14.974 134.799586,13.03 134.853586,11.608 L134.889586,10.312 L131.541586,10.312 L131.541586,9.304 L136.239586,9.322 L136.239586,16 L135.177586,16 L135.177586,13.912 C134.493586,15.136 133.251586,16.18 131.217586,16.18 Z M142.395586,16.162 C140.865586,16.144 138.903586,15.316 138.903586,12.958 L138.903586,6.658 L140.217586,6.658 L140.217586,12.85 C140.217586,14.56 141.567586,15.1 142.611586,15.1 C143.889586,15.1 145.077586,14.308 145.095586,12.724 L145.095586,6.658 L146.427586,6.658 L146.409586,15.982 L145.329586,15.982 L145.275586,14.524 C144.915586,15.352 143.655586,16.18 142.395586,16.162 Z M150.837586,2.626 L150.837586,4.624 L149.397586,4.624 L149.397586,2.626 L150.837586,2.626 Z M150.783586,6.694 L150.783586,16 L149.451586,16 L149.451586,6.694 L150.783586,6.694 Z M157.083586,16.18 C154.761586,16.18 153.249586,14.542 153.249586,11.464 C153.249586,8.512 154.653586,6.514 157.173586,6.514 C158.235586,6.514 159.099586,6.892 159.927586,7.684 L159.927586,2.626 L161.259586,2.626 L161.259586,16 L160.197586,16 L160.125586,14.65 C159.783586,15.082 158.829586,16.18 157.083586,16.18 Z M157.335586,15.118 C158.829586,15.118 159.927586,13.858 159.927586,12.724 L159.927586,9.052 C159.261586,8.062 158.433586,7.594 157.443586,7.594 C155.679586,7.594 154.563586,8.908 154.563586,11.41 C154.563586,13.984 155.769586,15.118 157.335586,15.118 Z M165.021586,11.662 C165.021586,13.552 165.993586,15.1 167.991586,15.1 C169.269586,15.1 170.061586,14.56 170.439586,13.588 L171.645586,13.822 C171.195586,15.316 169.755586,16.18 168.009586,16.18 C165.471586,16.18 163.671586,14.434 163.671586,11.428 C163.671586,8.44 165.201586,6.514 167.829586,6.514 C170.349586,6.514 171.789586,8.242 171.789586,11.086 L171.789586,11.662 L165.021586,11.662 Z M165.021586,10.69 L170.511586,10.69 C170.511586,8.926 169.647586,7.576 167.811586,7.576 C165.885586,7.576 165.021586,9.178 165.021586,10.69 Z" id="Guide" fill-rule="nonzero"></path>
                </g>
            </g>
        </g>
    </g>
</svg>