<svg xmlns="http://www.w3.org/2000/svg" height="240" width="290"><path d="M252.51 120c0 64.618-53.234 117.8-117.92 117.8-64.685 0-117.92-53.185-117.92-117.8 0-64.622 51.99-117.8 117.92-117.8 63.437 0 117.92 53.181 117.92 117.8" fill="#1a5dad"/><path d="M161.19 182c50.379 20.724 41.636-31.647 14.782-71.747-15.22-22.718-35.07-41.645-47.59-50.78-41.513-30.298-67.14-11.922-37.826 47.83 9.478 19.319 21.651 32.358 31.159 44.648 7.261 9.383 21.404 14.081 16.422 18.534-5.614 5.02-19.209-17.124-19.209-17.124-10.04-12.11-19.61-25.03-29.473-42.76-22.535-40.499-19.286-81.833 21.503-63.828 34.615 15.288 67.678 58.166 80.971 88.616 6.14 14.059 22.88 69.692-30.437 47.2" fill="#FFF"/><path d="M4.526 154.92c22.163-14.76 43.176-24.29 78.935-36.1 50.249-16.6 88.069-27.758 134.47-51.082 20.77-10.438 56.81-33.847 69.7-54.198-3.86 7.876-15.81 23.206-21.22 29.987-62.96 78.833-197.07 74.363-261 112.21" fill="#ee293d"/><path d="M36.678 97.303c20.284.16 18.294-.04 18.531.197.355 0 16.196 27.282 16.196 27.517 0 .116-.118-9.695-.118-21.966 0-1.417-3.9-5.55-3.783-5.55 5.79 0 13.357.118 13.357.118-2.836 3.307-3.402 3.036-3.426 5.079-.08 6.571-.154 18.716 0 32.358.022 2.045 1.537 2.834 4.02 6.378H62.893c-6.03-10.038-17.077-28.87-17.022-28.816.084.086-.238 11.812.115 21.257.12 3.121 1.538 4.133 4.14 6.968 0 0 2.994-.08-14.541.117 5.32-2.834 4.613-6.376 4.61-6.494-.191-13.052-.04-24.211-.04-31.415 0-1.181-.08-1.065-3.743-5.55M100.1 117.46c1.703-5.913 3.158-11.197 3.849-14.642.117-.591-1.3-2.716-3.547-4.843l-.159-.33c10.831.036 22.146.094 22.146.094 2.956 7.204 9.694 27.397 14.777 39.798 1.344 3.278 3.665 3.897 3.665 3.897-9.221-.117-26.333-.038-26.242-.117 4.609-4.136 4.018-4.136 2.008-10.157h-14.42c-2.956 6.848.92 10.063 1.416 10.038-3.282.17-14.42 0-14.42 0 6.029-4.253 5.673-5.55 5.673-5.55 1.656-5.893 3.575-12.348 5.255-18.192l5.917.001-2.542 8.15h11.47l-6.386-16.298-2.542 8.148H100.1M199.17 118.05c1.7-5.911 3.157-11.197 3.846-14.644.116-.588-1.302-2.713-3.547-4.841l-.16-.328c10.834.035 22.152.093 22.152.093 2.95 7.204 9.69 27.398 14.773 39.798 1.342 3.28 3.663 3.898 3.663 3.898-9.216-.12-26.329-.038-26.241-.12 4.612-4.131 4.02-4.131 2.011-10.155h-14.424c-2.955 6.85.92 10.063 1.416 10.04-3.28.168-14.42 0-14.42 0 6.027-4.252 5.674-5.552 5.674-5.552 1.657-5.893 3.576-12.346 5.257-18.189h5.915c-1.274 4.077-2.54 8.151-2.54 8.151h11.465l-6.385-16.298s-1.267 4.074-2.54 8.147h-5.915M180.52 108.37c-.237-8.387 0-11.103 0-11.103-3.666 2.954-1.817 2.577-10.993 1.064-26.445-4.364-28.46 20.325-14.069 25.863 12.08 4.65 16.361 5.56 14.539 9.918-.591 1.42-11.584 6.616-22.931-3.895l.234 14.644c1.418-1.461 5.322-4.133 5.322-4.133.117 0 12.3 5.368 23.286-.238 16.908-8.62 8.47-22.572-9.574-28.106-15.014-4.606-.828-15.354 14.066-3.897M136.25 12.898a.964.964 0 0 1-.96.962.966.966 0 0 1-.96-.962c0-.524.434-.959.96-.959.528 0 .96.435.96.959M142.91 27.44a1.19 1.19 0 0 1-1.182 1.18c-.65 0-1.184-.532-1.184-1.18 0-.646.535-1.18 1.184-1.18.645 0 1.182.534 1.182 1.18M160.19 51.206c0 .647-.532 1.18-1.182 1.18a1.189 1.189 0 0 1-1.182-1.18c0-.648.496-1.182 1.146-1.182.65 0 1.218.534 1.218 1.182M132.41 35.633a.962.962 0 0 1-.96.959.965.965 0 0 1-.962-.959c0-.526.435-.96.962-.96.528 0 .96.434.96.96M142.76 41.096a.965.965 0 0 1-.96.959.967.967 0 0 1-.96-.959c0-.525.434-.96.96-.96s.96.435.96.96M129.31 25.815c0 .648-.534 1.18-1.182 1.18a1.187 1.187 0 0 1-1.182-1.18c0-.648.534-1.182 1.182-1.182.648 0 1.182.534 1.182 1.182M113.65 35.338c0 .527-.433.96-.962.96a.965.965 0 0 1-.96-.96c0-.526.433-.96.96-.96.529 0 .962.434.962.96M116.45 37.255a.965.965 0 0 1-.962.962.966.966 0 0 1-.961-.962c0-.525.434-.957.961-.957.529 0 .962.432.962.957M119.26 39.175a.965.965 0 0 1-.96.962.966.966 0 0 1-.962-.962c0-.524.435-.957.961-.957.528 0 .961.433.961.957M114.98 42.867c0 .527-.436.96-.962.96a.965.965 0 0 1-.962-.96c0-.525.434-.959.962-.959.526 0 .962.434.962.959M92.664 58.514a.965.965 0 0 1-.962.959c-.527 0-.961-.432-.961-.959s.435-.96.961-.96c.527 0 .962.433.962.96M96.8 63.535c0 .526-.435.96-.962.96a.966.966 0 0 1-.961-.96c0-.528.435-.96.961-.96.527 0 .962.432.962.96M93.512 144.58c0 .527-.433.96-.96.96a.964.964 0 0 1-.96-.96c0-.525.433-.96.96-.96.527 0 .96.435.96.96M94.103 166.94c0 .648-.534 1.18-1.182 1.18a1.186 1.186 0 0 1-1.182-1.18c0-.648.534-1.18 1.182-1.18.648 0 1.182.532 1.182 1.18M81.392 178.39a.965.965 0 0 1-.959.959.967.967 0 0 1-.961-.959c0-.528.434-.96.961-.96.526 0 .959.432.959.96M66.174 183.03c0 .648-.537 1.18-1.184 1.18a1.186 1.186 0 0 1-1.182-1.18c0-.65.534-1.182 1.182-1.182a1.19 1.19 0 0 1 1.184 1.182M63.07 172.7c0 .645-.534 1.18-1.18 1.18a1.188 1.188 0 0 1-1.183-1.18c0-.65.535-1.182 1.182-1.182.647 0 1.181.533 1.181 1.182M61.299 179.27a.965.965 0 0 1-.962.959.965.965 0 0 1-.962-.959c0-.525.435-.96.962-.96s.962.435.962.96M49.918 173.81c0 .525-.433.96-.959.96a.966.966 0 0 1-.962-.96c0-.525.434-.96.962-.96.526 0 .959.435.959.96M89.668 192.26c0 .527-.397.96-.922.96-.527 0-.999-.433-.999-.96 0-.525.435-.96.96-.96.529 0 .961.435.961.96M101.64 183.48c0 .65-.496 1.182-1.146 1.182-.648 0-1.218-.533-1.218-1.182 0-.645.534-1.18 1.182-1.18.65 0 1.182.535 1.182 1.18M103.01 194.77c0 .527-.473.962-.997.962a.967.967 0 0 1-.962-.962c0-.525.434-.957.962-.957.524 0 .997.432.997.957M152.21 183.99c0 .526-.433.96-.959.96a.966.966 0 0 1-.963-.96c0-.527.433-.959.963-.959.526 0 .959.432.959.959M129.31 192.11a.962.962 0 0 1-.96.959.964.964 0 0 1-.96-.959c0-.525.434-.96.96-.96.528 0 .96.435.96.96M190.93 203.78a.965.965 0 0 1-.96.959.966.966 0 0 1-.963-.959c0-.527.434-.96.963-.96.525 0 .96.433.96.96M195.95 158.38c0 .648-.532 1.182-1.182 1.182-.65 0-1.182-.534-1.182-1.182 0-.648.533-1.182 1.182-1.182.65 0 1.182.534 1.182 1.182M186.5 164.8c0 .526-.433.96-.963.96a.966.966 0 0 1-.96-.96c0-.527.434-.959.96-.959.53 0 .963.432.963.959M195.81 166.65c0 .648-.533 1.182-1.182 1.182-.65 0-1.182-.534-1.182-1.182 0-.647.532-1.18 1.182-1.18.65 0 1.182.533 1.182 1.18M186.5 178.09a.965.965 0 0 1-.963.959.964.964 0 0 1-.96-.959c0-.527.434-.96.96-.96.53 0 .963.433.963.96M210.58 151.96c0 .527-.435.96-.96.96a.965.965 0 0 1-.96-.96c0-.527.434-.959.96-.959.525 0 .96.432.96.959M212.91 157.79c0 .65-.493 1.182-1.143 1.182s-1.218-.533-1.218-1.182c0-.648.532-1.18 1.179-1.18.65 0 1.182.532 1.182 1.18M229.5 164.73c0 .648-.53 1.18-1.182 1.18-.65 0-1.182-.532-1.182-1.18 0-.646.532-1.182 1.182-1.182.652 0 1.182.536 1.182 1.182M212.65 177.06c0 .525-.438.96-.964.96a.966.966 0 0 1-.96-.96c0-.528.435-.96.96-.96.526 0 .964.432.964.96M223.29 167.02c0 .527-.433.959-.959.959s-.96-.432-.96-.959c0-.527.435-.96.96-.96s.959.433.959.96M221.33 182.52c0 .527-.433.96-.959.96a.964.964 0 0 1-.963-.96c0-.525.433-.96.963-.96.526 0 .959.435.959.96M225.84 156.76c0 .81-.669 1.475-1.478 1.475-.81 0-1.478-.665-1.478-1.475s.668-1.475 1.478-1.475c.81 0 1.478.665 1.478 1.475" fill="#FFF"/><path d="M224.36 152.26l-.44 4.059-4.029.443 4.06.441.445 4.21.446-4.21 3.988-.515-4.025-.369-.445-4.059M215.49 182.44c0 .81-.667 1.475-1.477 1.475s-1.478-.665-1.478-1.475.668-1.475 1.478-1.475c.81 0 1.477.665 1.477 1.475" fill="#FFF"/><path d="M214.02 177.94l-.445 4.059-4.025.443 4.061.444.446 4.206.445-4.206 3.987-.516-4.028-.371-.441-4.059M105.26 60.505c0 .81-.667 1.475-1.477 1.475a1.482 1.482 0 0 1-1.478-1.475c0-.81.665-1.475 1.478-1.475.81 0 1.477.665 1.477 1.475" fill="#FFF"/><path d="M103.78 56.003l-.444 4.059-4.028.444 4.065.44.444 4.21.442-4.21 3.99-.513-4.028-.371-.441-4.059M160.23 24.783c0 .81-.668 1.477-1.478 1.477-.81 0-1.474-.667-1.474-1.477s.664-1.477 1.474-1.477c.81 0 1.478.667 1.478 1.477" fill="#FFF"/><path d="M158.75 20.277l-.44 4.06-4.029.444 4.065.444.44 4.207.446-4.207 3.988-.519-4.028-.369-.442-4.06M93.4 206.07c0 .81-.667 1.476-1.477 1.476-.813 0-1.48-.666-1.48-1.476 0-.809.667-1.477 1.48-1.477.81 0 1.477.668 1.477 1.477" fill="#FFF"/><path d="M91.958 201.56l-.442 4.06-4.027.444 4.064.442.443 4.208.442-4.208 3.99-.515-4.026-.37-.444-4.061" fill="#FFF"/><path d="M287.62 13.541c-17.97 53.312-89.96 94.479-150.56 133.78-36.559 23.714-72.856 51.011-97.844 74.239-6.587 6.125 1.342-2.29-1.182.296 34.872-40.153 74.986-64.069 97.153-79.122 37.489-25.469 58.812-31.888 123.49-91.463M19.515 145.62c-6.454 3.157-12.235 6.277-17.14 9.322l2.985 1.086c4.29-2.642 9.44-5.397 14.865-7.826" fill="#ee293d"/><path d="M53.587 205.28a645.532 645.532 0 0 0-18.113 16.406l-.27 4.07c5.6-5.767 12.479-11.997 20.418-18.607" fill="#ee293d"/><path d="M161.19 182c50.379 20.724 41.636-31.647 14.782-71.747-15.22-22.718-33.99-40.74-47.59-50.78-15.88-11.725-17.43-12.697-17.43-12.697 35.462 16.831 67.678 58.165 80.971 88.616 6.14 14.059 22.88 69.692-30.437 47.2" fill="#FFF"/></svg>
