<svg xmlns="http://www.w3.org/2000/svg" width="467.669" height="467.721" viewBox="0 0 467.02979 469.96338" fill="#fff"><path d="M413.825 144.808c.11-.046 24.75 48.75 20.378 100.625-2.378 87.125-79.378 185.959-194.128 189.169l-16-.333C105.825 428.392 33.158 328.058 33.49 237.392c.292-16.855.224-35.697 7.334-59l7.25 2.166c30.305 11.454 63 100 169.292 105.04 4.614.219 13.478.423 13.458.46-6.88 6.864-46 23-63.75 27.25 4.641-1.111-.363-.114 0 0 42.75 26.5 85.5-24.5 141-32l17-1c-3.25-10.25-17.882-9.385-19.25-9.25-38.4 3.78-28.807-.624-30-.25 59-18.5 93-65.75 135.463-123.21l2.537-2.79z"/><path d="M328.075 56.558c-4.123-2.193-38.75-23-91.916-23.834-115.255.415-166 85-166 85 25.5 12.5 51.96 50.144 52.332 50.667 28.538 40.04 68.307 102.1 119.836 103.287 16.498.38 27.471-9.49 39.998-21.62 45.744-44.303 52.148-126.21 110.75-137.75 0 0-21.75-32.75-65-55.75zm-127.697 54.177h13.697a9.952 9.952 0 0 1 9.974 9.974v32.968a9.952 9.952 0 0 1-9.974 9.975h-13.697a9.952 9.952 0 0 1-9.975-9.975V120.71a9.952 9.952 0 0 1 9.975-9.974zm3.649 9.08h6.399c1.274 0 2.3 1.025 2.3 2.3v30.157c0 1.274-1.026 2.3-2.3 2.3h-6.4a2.295 2.295 0 0 1-2.299-2.3v-30.158c0-1.274 1.026-2.3 2.3-2.3zm39.676-9.07a9.943 9.943 0 0 0-9.97 9.97v42.937h11.313v-21.25h11v21.25h11.313v-42.937a9.943 9.943 0 0 0-9.969-9.97h-13.687zm3.656 9.063h6.375a2.317 2.317 0 0 1 2.312 2.313v11.219h-11v-11.22a2.317 2.317 0 0 1 2.313-2.312zm39.653-9.062a9.943 9.943 0 0 0-9.969 9.969v42.937h11.313v-21.25h11v21.25h11.312v-42.937a9.943 9.943 0 0 0-9.968-9.97h-13.688zm3.656 9.062h6.375a2.317 2.317 0 0 1 2.313 2.313v11.219h-11v-11.22a2.317 2.317 0 0 1 2.312-2.312zm-143.606-9.062v52.906h11.344v-41.531c0-1.274 1.007-2.313 2.281-2.313h6.407a2.317 2.317 0 0 1 2.312 2.313v41.531h11.313v-42.937a9.943 9.943 0 0 0-9.97-9.97h-23.687z" fill-rule="evenodd"/><path d="M33.805 305.002l-20.183 6.306-.938-3L24.4 294.3c.254-.31.499-.587.733-.831.235-.244.461-.45.68-.618l-16.36 5.112-.819-2.618 20.184-6.306.929 2.973L17.89 306.29a8.112 8.112 0 0 1-.587.627c-.208.2-.432.398-.671.594l16.36-5.112.813 2.603zm-15.44-22.2l-1.362-6.446-8.453 5.13 9.815 1.317zm9.86 4.168l-22.312-3.312-.656-3.104 19.06-12.082.644 3.048-5.717 3.497 1.721 8.146 6.646.9.614 2.907zm-4.707-25.297l-18.432 2.304.827 6.624-2.55.319-2.013-16.11 2.55-.32.828 6.624 18.432-2.304.358 2.863zm-1.245-12.093L1.175 251l-.193-2.865 21.098-1.42.193 2.865zm-11.156-9.596c2.709.009 4.828-.609 6.358-1.853 1.53-1.244 2.3-2.971 2.307-5.182.007-2.201-.75-3.924-2.273-5.168-1.523-1.244-3.638-1.87-6.347-1.88-2.718-.008-4.84.605-6.365 1.84-1.526 1.234-2.292 2.951-2.3 5.153-.006 2.21.75 3.943 2.267 5.196 1.517 1.254 3.635 1.885 6.353 1.894zm-.01 2.972c-3.493-.011-6.22-.908-8.18-2.69-1.962-1.781-2.937-4.241-2.927-7.38.01-3.13.999-5.574 2.967-7.334 1.967-1.76 4.702-2.633 8.205-2.622 3.493.011 6.22.903 8.181 2.675 1.961 1.772 2.937 4.223 2.927 7.352-.01 3.14-1.002 5.593-2.974 7.362-1.972 1.77-4.705 2.648-8.198 2.637zM22 219.356l-21.027-2.23.331-3.126 16.316-8.202c.357-.183.69-.34 1.003-.471.312-.13.602-.23.869-.298l-17.045-1.807.29-2.727 21.027 2.23-.329 3.098-16.553 8.393a8.115 8.115 0 0 1-.787.343c-.27.1-.554.193-.852.277l17.045 1.808-.288 2.712zm-5.358-26.503l1.308-6.458-9.795 1.356 8.487 5.102zm7.397 7.738L4.873 188.698l.63-3.11 22.289-3.527-.619 3.053-6.635.941-1.652 8.16 5.743 3.463-.59 2.913zm4.424-20.606l-20.314-5.873.806-2.786 17.748 5.132 2.927-10.122 2.565.742-3.732 12.907zm-1.685-28.769c2.483 1.082 4.674 1.355 6.572.82 1.898-.536 3.289-1.817 4.172-3.844.879-2.018.866-3.9-.038-5.646-.905-1.745-2.598-3.16-5.081-4.24-2.492-1.086-4.683-1.365-6.573-.836-1.89.528-3.275 1.802-4.154 3.82-.883 2.026-.876 3.916.02 5.669.896 1.752 2.59 3.172 5.082 4.257zm-1.186 2.724c-3.203-1.395-5.351-3.299-6.445-5.712-1.094-2.413-1.014-5.058.24-7.936 1.249-2.87 3.126-4.721 5.63-5.557 2.504-.835 5.361-.553 8.572.846 3.203 1.395 5.353 3.295 6.45 5.699 1.099 2.404 1.023 5.04-.227 7.91-1.254 2.878-3.137 4.738-5.649 5.58-2.512.842-5.369.565-8.571-.83zm19.814-34.103l1.37-2.425c2.18 1.374 3.534 3.147 4.06 5.318.528 2.172.156 4.382-1.115 6.632-1.463 2.592-3.494 4.125-6.091 4.598-2.597.473-5.458-.173-8.583-1.937-2.884-1.629-4.738-3.692-5.563-6.192-.826-2.499-.5-5.057.978-7.674 1.176-2.083 2.677-3.486 4.503-4.208s3.726-.663 5.702.178l-1.383 2.45c-1.349-.453-2.597-.427-3.745.078-1.148.506-2.118 1.459-2.908 2.859-1.055 1.867-1.218 3.684-.49 5.452.726 1.768 2.282 3.325 4.665 4.67 2.25 1.271 4.357 1.755 6.32 1.45 1.963-.303 3.443-1.338 4.44-3.105.852-1.508 1.081-3.009.687-4.5-.394-1.492-1.343-2.707-2.847-3.644zm10.104-1.386l-17.362-12.07 8.603-12.377 2.157 1.5-6.98 10.043 5.185 3.605 6.45-9.276 2.027 1.409-6.45 9.276 5.824 4.048 7.12-10.243 2.17 1.508-8.744 12.577zm6.549-23.822l4.22-5.06-9.26-3.464 5.04 8.524zm2.828 10.324L53.68 85.377l2.032-2.436L77 90.436l-1.996 2.392-6.285-2.327-5.334 6.393 3.407 5.778-1.904 2.281zM78.49 88.886l-14.904-15 2.23-2.217 17.833 3.936c.392.082.75.171 1.075.267.324.096.611.202.861.317L73.506 64.03l1.945-1.932 14.903 15-2.21 2.196-18.137-3.937a8.114 8.114 0 0 1-.826-.23 10.78 10.78 0 0 1-.836-.323l12.08 12.16-1.934 1.922zm15.358-14.717L79.987 58.201l2.168-1.882 13.862 15.968-2.168 1.882zm12.686-20.177l2.22-1.681c1.455 2.127 1.993 4.292 1.614 6.494-.38 2.202-1.6 4.083-3.66 5.643-2.372 1.797-4.844 2.396-7.416 1.798-2.571-.597-4.94-2.327-7.107-5.188-1.999-2.64-2.88-5.27-2.644-7.892.235-2.621 1.551-4.84 3.947-6.653 1.907-1.445 3.842-2.135 5.804-2.073 1.963.063 3.683.873 5.162 2.43l-2.243 1.698c-1.057-.952-2.213-1.424-3.467-1.416-1.255.007-2.523.497-3.805 1.467-1.71 1.294-2.581 2.897-2.617 4.808-.035 1.912.774 3.959 2.426 6.14 1.56 2.06 3.301 3.341 5.223 3.843 1.922.5 3.692.139 5.31-1.086 1.38-1.045 2.187-2.331 2.418-3.857.231-1.525-.157-3.017-1.165-4.475zm15.522-11.09l5.727-3.258-7.458-6.493 1.73 9.75zm-.972 10.66l-3.63-22.263 2.759-1.569 17.304 14.484-2.707 1.54-5.07-4.383-7.237 4.117 1.164 6.604-2.583 1.47zm18.375-10.277l-8.679-19.282 2.867-1.29 15.31 9.953c.339.215.643.425.913.628.27.204.502.404.695.6l-7.034-15.63 2.5-1.125 8.678 19.283-2.84 1.278-15.596-10.061a8.116 8.116 0 0 1-.692-.507 10.778 10.778 0 0 1-.67-.596l7.035 15.63-2.487 1.12zm20.909-28.712l-4.682 1.57 5.123 15.284 4.683-1.57c2.005-.671 3.302-1.83 3.891-3.476s.456-3.744-.399-6.294c-.818-2.44-1.966-4.135-3.445-5.083-1.478-.948-3.202-1.091-5.171-.431zm-1.46 20.217l-6.72-20.05 7.636-2.559c2.794-.937 5.214-.819 7.257.353 2.043 1.173 3.592 3.333 4.648 6.482 1.092 3.257 1.172 6.05.241 8.375-.931 2.326-2.776 3.951-5.535 4.876l-7.527 2.523zm29.618-17.645l6.469-1.255-4.99-8.537-1.479 9.792zm-4.33 9.79l3.681-22.255 3.115-.604 11.764 19.257-3.058.594-3.402-5.775-8.173 1.586-1.01 6.63-2.917.566zm25.371-4.289l-2-18.468-6.637.719-.276-2.555L216.796.594l.277 2.555-6.636.718 2 18.468-2.869.311zm14.477-19.312l.214 18.014-2.641.032-.251-21.144 4.105-.05 5.431 16.116c.159.458.276.813.35 1.066.075.252.133.474.173.665.073-.355.146-.671.219-.95.073-.278.151-.542.234-.792L237.114.049l4.12-.049.25 21.144-2.785.033-.213-18.015c-.064.307-.137.617-.219.929-.082.312-.17.622-.262.929l-5.248 16.228-2.713.032-5.503-16.1a9.184 9.184 0 0 1-.269-.859 17.52 17.52 0 0 1-.227-.987zm25.062 7.748c-.265 2.695.149 4.864 1.243 6.505 1.093 1.641 2.74 2.57 4.94 2.786 2.191.215 3.978-.376 5.36-1.774 1.383-1.398 2.207-3.445 2.472-6.14.265-2.705-.144-4.875-1.229-6.51-1.084-1.636-2.722-2.562-4.912-2.777-2.2-.216-3.996.372-5.388 1.764s-2.22 3.44-2.486 6.146zm-2.958-.29c.342-3.477 1.492-6.107 3.451-7.891 1.96-1.784 4.5-2.522 7.625-2.215 3.114.306 5.454 1.522 7.02 3.647 1.565 2.125 2.177 4.93 1.834 8.417-.342 3.476-1.487 6.106-3.437 7.891-1.95 1.785-4.481 2.524-7.596 2.218-3.124-.307-5.473-1.526-7.048-3.657-1.574-2.13-2.19-4.934-1.849-8.41zm22.885 6.106l2.717.54c-.27 1.508-.009 2.804.785 3.89.794 1.084 2.003 1.788 3.627 2.111 1.605.32 2.937.233 3.996-.259 1.06-.491 1.704-1.32 1.936-2.483.315-1.587-1.181-3.138-4.49-4.655-.197-.088-.349-.157-.456-.208-2.683-1.227-4.396-2.34-5.139-3.342-.742-1.002-.963-2.258-.662-3.77.368-1.848 1.339-3.2 2.914-4.052 1.575-.853 3.484-1.056 5.727-.61 2.29.456 3.975 1.403 5.055 2.843 1.08 1.44 1.425 3.189 1.034 5.248l-2.692-.521c.183-1.408-.077-2.567-.779-3.478-.702-.91-1.79-1.512-3.263-1.805-1.38-.275-2.543-.191-3.49.25-.946.44-1.52 1.164-1.719 2.168-.32 1.605 1.151 3.142 4.41 4.61l1.113.514c.055.02.149.064.282.13 2.128.979 3.496 1.85 4.105 2.616.46.58.769 1.234.926 1.963.158.729.154 1.506-.01 2.332-.398 2-1.43 3.448-3.096 4.346-1.667.898-3.72 1.104-6.161.619-2.516-.5-4.349-1.526-5.499-3.077-1.15-1.551-1.54-3.525-1.171-5.92zm24.186.738l4.628 1.359c1.607.471 2.805.543 3.594.216.79-.327 1.367-1.114 1.734-2.363.353-1.203.29-2.16-.19-2.869-.48-.71-1.46-1.28-2.939-1.715l-4.835-1.418-1.992 6.79zm-5.985 10.198l5.954-20.29 7.466 2.19c1.212.356 2.118.687 2.716.992a5.837 5.837 0 0 1 1.52 1.09c.695.692 1.133 1.544 1.316 2.555.182 1.01.099 2.108-.249 3.293-.331 1.13-.844 2.061-1.538 2.795a5.306 5.306 0 0 1-2.535 1.5c-.573.152-1.206.193-1.899.124-.693-.069-1.792-.324-3.298-.766l-4.188-1.229-2.51 8.554-2.755-.808zm17.762 5.37l7.84-19.64 2.666 1.065-3.22 8.066 10.186 4.066 3.22-8.066 2.68 1.07-7.84 19.639-2.68-1.07 3.673-9.2-10.186-4.065-3.672 9.199-2.667-1.065zm19.632 8.132l9.661-18.81 13.408 6.887-1.2 2.337-10.88-5.588-2.886 5.618 10.05 5.162-1.128 2.196-10.05-5.161-3.24 6.308 11.097 5.7-1.207 2.349-13.625-6.998zm28.985-5.51l-3.834 6.051 4.147 2.628c1.496.947 2.707 1.374 3.633 1.281.925-.093 1.747-.706 2.464-1.838.67-1.059.853-1.99.548-2.796-.306-.806-1.243-1.705-2.811-2.699l-4.147-2.627zm-1.048-3.604l6.924 4.387c1.124.712 1.92 1.284 2.388 1.717.468.432.84.895 1.118 1.387.49.889.699 1.825.625 2.81-.074.983-.426 1.973-1.056 2.967-.61.962-1.337 1.654-2.182 2.076-.845.422-1.799.568-2.861.44.572.634.86 1.275.863 1.923.003.647-.307 1.544-.931 2.69l-1.66 3.077c-.36.656-.575 1.18-.647 1.57-.072.39-.024.73.145 1.018l-.315.498-2.801-1.775c.009-.515.356-1.412 1.04-2.689l.046-.073 1.33-2.42c.677-1.248.914-2.185.71-2.812-.202-.628-1.16-1.484-2.875-2.57l-3.929-2.489-4.847 7.652-2.401-1.521 11.316-17.863zm5.038 28.624l12.43-17.107 2.322 1.688-12.43 17.107-2.322-1.688zm22.518 7.809l2.14 1.784c-1.745 1.897-3.733 2.91-5.964 3.036-2.23.128-4.338-.636-6.323-2.291-2.285-1.907-3.427-4.18-3.425-6.82.003-2.64 1.153-5.338 3.452-8.094 2.12-2.543 4.485-3.995 7.092-4.357 2.607-.362 5.065.42 7.372 2.345 1.838 1.532 2.947 3.261 3.329 5.187.381 1.926-.02 3.785-1.203 5.577l-2.16-1.802c.688-1.245.888-2.477.597-3.698-.29-1.22-1.053-2.346-2.288-3.375-1.646-1.374-3.404-1.862-5.274-1.465s-3.682 1.646-5.435 3.748c-1.655 1.985-2.51 3.97-2.565 5.955-.054 1.986.697 3.629 2.255 4.928 1.33 1.11 2.765 1.605 4.303 1.486 1.539-.119 2.905-.833 4.097-2.144zm14.306 12.613l4.468 4.842 4.638-8.733-9.106 3.89zm-10.604 1.464l20.865-8.57 2.152 2.332-10.195 20.132-2.113-2.29 3.123-5.929-5.646-6.119-6.17 2.628-2.016-2.184zm33.78 10.443l-3-3.923-12.806 9.793 3 3.922c1.284 1.68 2.8 2.533 4.548 2.558 1.748.025 3.69-.78 5.827-2.413 2.045-1.564 3.276-3.199 3.695-4.904.419-1.706-.003-3.384-1.264-5.033zM398 98.334l16.797-12.845 4.892 6.397c1.791 2.342 2.462 4.669 2.014 6.981-.449 2.313-1.992 4.478-4.63 6.495-2.729 2.087-5.345 3.066-7.847 2.938-2.502-.13-4.636-1.35-6.404-3.66l-4.822-6.306zm29.284 9.5l-15.39 9.367-1.373-2.257 18.063-10.994 2.134 3.507-11.096 12.888c-.312.37-.558.65-.738.844a8.93 8.93 0 0 1-.484.488c.342-.119.652-.217.929-.296.277-.08.544-.147.801-.202l16.641-3.777 2.142 3.52-18.063 10.994-1.448-2.38 15.39-9.366c-.296.102-.6.197-.91.285-.31.088-.622.171-.933.249l-16.636 3.756-1.411-2.318 11.046-12.94c.18-.222.38-.445.601-.67.222-.224.467-.457.735-.698zm-4.47 28.252l18.839-9.603 1.303 2.558-18.839 9.603-1.304-2.558zm3.477 6.648l19.448-8.3 1.234 2.891-10.25 15.113a13.98 13.98 0 0 1-.647.9 6.305 6.305 0 0 1-.613.684l15.764-6.728 1.077 2.522-19.449 8.3-1.223-2.866 10.365-15.395c.16-.235.333-.462.52-.683.187-.22.39-.44.61-.658l-15.766 6.728-1.07-2.508zm7.988 19.713l19.97-6.955.944 2.71-19.97 6.956-.944-2.711zm8.955 4.286l.745 2.668c-1.467.44-2.506 1.258-3.115 2.457-.61 1.198-.692 2.595-.247 4.19.44 1.576 1.118 2.725 2.035 3.448.917.723 1.947.925 3.09.606 1.558-.435 2.267-2.47 2.127-6.108-.01-.215-.018-.382-.021-.5-.117-2.949.104-4.98.662-6.095.558-1.114 1.58-1.879 3.064-2.293 1.816-.506 3.46-.25 4.932.77 1.472 1.02 2.515 2.632 3.13 4.835.627 2.25.543 4.18-.254 5.794-.797 1.613-2.202 2.711-4.216 3.293l-.75-2.638c1.338-.472 2.255-1.227 2.75-2.265.496-1.037.542-2.28.138-3.727-.378-1.355-.978-2.355-1.798-3-.821-.646-1.725-.83-2.711-.556-1.577.44-2.284 2.446-2.122 6.017l.044 1.225c.006.058.01.161.011.31.087 2.34-.073 3.955-.481 4.844a4.713 4.713 0 0 1-1.333 1.713c-.58.47-1.275.817-2.086 1.044-1.963.548-3.722.28-5.276-.801-1.553-1.082-2.665-2.821-3.333-5.218-.69-2.47-.602-4.569.263-6.295.864-1.727 2.448-2.966 4.752-3.718zm-.699 25.767l18.252-3.458-1.243-6.559 2.524-.478 3.023 15.952-2.524.478-1.243-6.558-18.251 3.458-.538-2.835zm20.971 12.825l-7.126.728.499 4.884c.18 1.761.592 2.977 1.238 3.647.645.67 1.635.937 2.968.8 1.247-.127 2.092-.56 2.537-1.297.444-.738.572-2.03.383-3.878l-.499-4.884zm2.185-3.051l.833 8.154c.135 1.324.177 2.303.127 2.938a5.703 5.703 0 0 1-.4 1.737 4.934 4.934 0 0 1-1.822 2.228c-.82.55-1.815.885-2.986 1.004-1.133.116-2.126-.028-2.98-.431-.854-.404-1.559-1.063-2.114-1.978-.145.842-.471 1.465-.978 1.867-.507.403-1.404.714-2.69.932l-3.446.597c-.738.123-1.282.277-1.634.462-.351.185-.588.433-.71.744l-.586.06-.336-3.3c.41-.31 1.33-.592 2.756-.844l.086-.008 2.724-.452c1.4-.239 2.283-.632 2.65-1.18.368-.547.449-1.83.243-3.848l-.473-4.627-9.011.92-.289-2.828 21.036-2.147zM455.25 227.52l.082 6.588 9.29-3.39-9.372-3.198zm-8.862-6.005l21.243 7.587.04 3.172-21.046 8.146-.039-3.115 6.288-2.319-.104-8.325-6.345-2.175-.037-2.971zm-.287 25.73l18.53 1.298.467-6.66 2.563.18-1.135 16.197-2.563-.18.467-6.659-18.531-1.298.202-2.878zm-1.112 12.107l20.975 2.679-.364 2.848-20.975-2.68.364-2.847zm9.092 11.58c-2.655-.534-4.854-.34-6.597.583-1.743.924-2.832 2.469-3.269 4.636-.434 2.158-.025 3.995 1.226 5.511 1.252 1.516 3.206 2.542 5.86 3.076 2.665.537 4.866.348 6.602-.567 1.737-.915 2.822-2.45 3.256-4.609.437-2.167.032-4.013-1.213-5.538-1.245-1.524-3.2-2.555-5.865-3.091zm.587-2.912c3.424.689 5.925 2.098 7.503 4.227 1.578 2.128 2.057 4.731 1.437 7.808-.618 3.068-2.062 5.274-4.334 6.618-2.272 1.344-5.125 1.67-8.559.978-3.424-.689-5.926-2.093-7.506-4.212-1.58-2.12-2.06-4.713-1.442-7.781.62-3.077 2.068-5.292 4.347-6.644 2.278-1.353 5.13-1.684 8.554-.994zm-15.277 21.033l20.184 6.306-.938 3-17.607 4.847c-.385.11-.744.199-1.075.266a6.303 6.303 0 0 1-.91.121l16.36 5.112-.818 2.617-20.183-6.306.929-2.973 17.876-4.988c.274-.075.554-.135.84-.182.284-.046.58-.08.89-.105l-16.361-5.112.813-2.603zM35.525 341.727l11.28-6.703 1.466 2.469-11.304 6.717c-1.703 1.012-2.739 2.136-3.106 3.373s-.081 2.645.857 4.225c.93 1.563 2.036 2.483 3.32 2.761 1.284.278 2.765-.081 4.443-1.079l11.305-6.717 1.474 2.48-11.28 6.703c-2.435 1.447-4.651 1.915-6.647 1.403-1.996-.511-3.718-1.985-5.165-4.42-1.35-2.27-1.744-4.34-1.185-6.21.56-1.868 2.073-3.535 4.542-5.002zm4.685 22.814l2.64-1.81 1.665 2.426-2.64 1.81-1.665-2.426zm9.709 1.983l1.703 2.186c-1.19.964-1.84 2.116-1.948 3.456-.108 1.34.346 2.663 1.364 3.969 1.006 1.291 2.07 2.096 3.193 2.417 1.123.32 2.152.115 3.089-.614 1.275-.994 1.157-3.147-.355-6.458a24.768 24.768 0 0 1-.21-.455c-1.228-2.683-1.796-4.646-1.703-5.889.093-1.243.747-2.338 1.963-3.285 1.487-1.159 3.105-1.546 4.854-1.162 1.75.384 3.327 1.478 4.733 3.283 1.435 1.842 2.09 3.66 1.967 5.455-.124 1.795-1.007 3.345-2.648 4.648l-1.697-2.154c1.058-.946 1.62-1.993 1.684-3.141.064-1.148-.366-2.314-1.29-3.5-.864-1.11-1.799-1.807-2.803-2.092-1.005-.285-1.91-.112-2.719.517-1.29 1.006-1.183 3.13.324 6.372l.506 1.116c.028.051.07.145.129.282.97 2.132 1.435 3.687 1.395 4.664a4.713 4.713 0 0 1-.582 2.09c-.357.655-.868 1.242-1.532 1.76-1.608 1.252-3.336 1.673-5.185 1.263-1.848-.41-3.537-1.596-5.066-3.56-1.576-2.022-2.293-3.997-2.15-5.922.144-1.926 1.139-3.674 2.984-5.246zm7.707 20.658l2.4-2.118 1.947 2.208-2.401 2.117-1.946-2.207zm30.188 4.304l-3.625-3.352-10.946 11.835 3.626 3.353c1.552 1.436 3.192 2.017 4.918 1.743 1.727-.274 3.503-1.398 5.329-3.372 1.748-1.89 2.682-3.712 2.804-5.464.12-1.752-.581-3.333-2.106-4.743zm-18.433 8.431l14.357-15.525 5.912 5.468c2.164 2.002 3.223 4.18 3.176 6.535-.047 2.355-1.197 4.752-3.452 7.19-2.333 2.523-4.743 3.934-7.23 4.235-2.487.3-4.799-.538-6.935-2.513l-5.828-5.39zm16.012 14.433l12.949-16.717 11.916 9.23-1.608 2.077-9.67-7.49-3.868 4.994 8.932 6.918-1.512 1.952-8.932-6.918-4.342 5.607 9.862 7.639-1.617 2.088-12.11-9.38zm24.248 3.74l4.044 2.628c1.405.912 2.532 1.325 3.381 1.238.85-.087 1.63-.676 2.339-1.767.683-1.052.896-1.986.64-2.803-.257-.817-1.03-1.646-2.323-2.485l-4.225-2.746-3.856 5.934zm-8.658 8.053l11.523-17.731 6.524 4.24c1.059.688 1.832 1.264 2.317 1.728.486.465.868.958 1.145 1.48.466.863.642 1.804.527 2.825-.116 1.02-.51 2.049-1.183 3.084-.641.987-1.4 1.732-2.275 2.236a5.306 5.306 0 0 1-2.858.71c-.593-.019-1.21-.16-1.855-.425-.644-.265-1.624-.825-2.94-1.68l-3.66-2.378-4.857 7.475-2.408-1.564zm23.789 4.388l5.803 3.12 1.536-9.768-7.34 6.648zm-9.547 4.842l16.93-14.906 2.794 1.502-3.072 22.357-2.744-1.475 1.019-6.624-7.334-3.943-4.976 4.496-2.617-1.407zm29.325-5.854l-2.842 6.576 4.507 1.948c1.625.702 2.888.935 3.788.699.9-.237 1.615-.97 2.147-2.2.497-1.151.532-2.1.105-2.848-.428-.748-1.494-1.49-3.198-2.227l-4.507-1.948zm-1.597-3.396l7.524 3.253c1.221.527 2.097.968 2.627 1.322.53.355.97.753 1.32 1.197a4.934 4.934 0 0 1 1.056 2.677c.08.983-.113 2.016-.58 3.096-.452 1.045-1.062 1.842-1.83 2.391-.77.549-1.689.842-2.758.88.664.538 1.048 1.126 1.152 1.765.105.64-.062 1.574-.5 2.803l-1.16 3.299c-.251.704-.383 1.255-.393 1.652-.01.397.091.724.303.983l-.234.54-3.044-1.316c-.071-.51.132-1.45.608-2.818l.035-.079.935-2.598c.474-1.338.562-2.301.263-2.89-.298-.587-1.379-1.283-3.241-2.088l-4.27-1.846-3.593 8.315-2.61-1.127 8.39-19.41zm14.763 28.708l5.958-17.594-6.322-2.142.824-2.433 15.378 5.208-.824 2.434-6.323-2.142-5.958 17.595-2.733-.926zm18.978-12.842l-4.187 17.523-2.569-.614 4.915-20.567 3.993.954 1.336 16.954c.042.482.069.855.08 1.118.01.264.012.493.005.688.157-.327.305-.616.444-.868s.279-.49.42-.711l9.038-14.475 4.008.958-4.915 20.566-2.709-.647 4.187-17.523c-.136.283-.282.565-.438.847-.156.283-.316.562-.48.838l-9.05 14.457-2.638-.63-1.41-16.957a9.183 9.183 0 0 1-.05-.898c-.004-.315.003-.653.02-1.013zm17.816 22.378l2.92-20.943 14.929 2.08-.363 2.603-12.114-1.689-.872 6.256 11.19 1.56-.341 2.445-11.19-1.56-.979 7.024 12.356 1.722-.365 2.617-15.17-2.115zm19.36 2.515l1.06-21.119 3.14.158 9.094 15.836c.203.346.378.67.526.975.147.305.263.588.345.851l.86-17.119 2.738.138-1.06 21.119-3.111-.156-9.299-16.062a8.113 8.113 0 0 1-.385-.767 10.785 10.785 0 0 1-.325-.836l-.86 17.119-2.723-.137zm26.634.635l-.613-18.566-6.672.22-.085-2.567 16.227-.537.085 2.569-6.671.22.613 18.566-2.884.095zm22.005-12.147c.426 2.674 1.375 4.667 2.849 5.978 1.473 1.311 3.302 1.793 5.485 1.445 2.174-.346 3.753-1.37 4.736-3.072.984-1.703 1.263-3.891.837-6.566-.427-2.684-1.373-4.68-2.836-5.988-1.463-1.308-3.281-1.789-5.455-1.442-2.184.347-3.772 1.37-4.766 3.07-.994 1.699-1.278 3.89-.85 6.575zm-2.935.467c-.55-3.45-.102-6.285 1.342-8.507 1.444-2.221 3.716-3.579 6.816-4.072 3.09-.492 5.662.091 7.714 1.751 2.052 1.66 3.354 4.22 3.905 7.679.55 3.45.107 6.284-1.328 8.504-1.434 2.22-3.697 3.576-6.787 4.068-3.1.494-5.682-.09-7.744-1.754-2.063-1.663-3.368-4.22-3.918-7.669zm25.722 6.224l-5.17-20.504 13.767-3.47.65 2.574-10.983 2.77 1.551 6.152 9.59-2.418.632 2.505-9.59 2.419 2.337 9.27-2.784.702zm36.679-19.94l2.596-1.008c.816 2.445.74 4.674-.229 6.688-.968 2.014-2.657 3.488-5.066 4.423-2.774 1.078-5.316.976-7.625-.303-2.31-1.28-4.113-3.593-5.412-6.938-1.199-3.087-1.326-5.859-.38-8.315.945-2.457 2.819-4.229 5.62-5.316 2.23-.866 4.28-1 6.15-.402s3.303 1.849 4.298 3.752l-2.623 1.018c-.755-1.205-1.737-1.976-2.946-2.313-1.209-.337-2.562-.214-4.061.368-1.999.776-3.277 2.078-3.835 3.907-.557 1.828-.341 4.018.65 6.57.935 2.409 2.258 4.117 3.97 5.126 1.71 1.01 3.512 1.147 5.403.412 1.615-.627 2.742-1.642 3.383-3.046.64-1.404.676-2.945.107-4.623zm6.318-5.74c1.22 2.418 2.732 4.026 4.535 4.826 1.803.8 3.691.701 5.664-.295 1.965-.992 3.157-2.449 3.575-4.37.419-1.921.017-4.09-1.203-6.509-1.225-2.426-2.734-4.039-4.526-4.838-1.792-.8-3.67-.704-5.636.288-1.973.997-3.175 2.455-3.604 4.377-.429 1.92-.03 4.095 1.195 6.52zm-2.653 1.34c-1.575-3.119-2.013-5.956-1.314-8.512.698-2.555 2.448-4.54 5.25-5.956 2.794-1.41 5.421-1.638 7.881-.682 2.46.955 4.48 2.996 6.06 6.123 1.574 3.118 2.016 5.953 1.326 8.505-.69 2.551-2.431 4.532-5.225 5.943-2.802 1.414-5.438 1.644-7.91.689-2.47-.956-4.494-2.993-6.068-6.11zm18.936-18.386l9.748 15.151-2.222 1.43-11.44-17.783 3.452-2.222 13.16 10.771c.377.304.665.543.862.717.198.174.365.332.5.472a17.48 17.48 0 0 1-.319-.921c-.086-.275-.16-.54-.222-.796l-4.19-16.542 3.465-2.23 11.44 17.784-2.341 1.507-9.748-15.152c.11.294.212.595.308.903.096.309.186.617.271.927l4.17 16.537-2.281 1.468-13.213-10.72a9.18 9.18 0 0 1-.683-.584c-.23-.216-.47-.455-.717-.717zm19.29-12.964l11.314 14.021-2.056 1.659-13.278-16.457 3.195-2.578 14.237 9.3c.408.262.72.469.934.621.215.152.398.291.548.416a17.49 17.49 0 0 1-.416-.882c-.115-.264-.217-.52-.306-.767l-5.936-15.999 3.207-2.587 13.277 16.457-2.167 1.749-11.313-14.022c.14.28.275.569.403.865.128.296.251.594.369.892l5.916 15.997-2.112 1.703-14.284-9.245a9.184 9.184 0 0 1-.742-.508c-.252-.19-.515-.402-.79-.635zm28.605-.426l-14.779-15.124 10.781-10.535 1.836 1.88-8.748 8.547 4.415 4.518 8.08-7.896 1.726 1.766-8.08 7.896 4.956 5.072 8.922-8.719 1.846 1.89-10.955 10.705zm1.55-28.139l5.422 4.682 3.209-3.715c1.157-1.34 1.758-2.475 1.802-3.404.044-.93-.441-1.832-1.455-2.708-.949-.82-1.844-1.137-2.686-.954-.841.184-1.869.979-3.082 2.384l-3.21 3.715zm-3.718.506l5.358-6.203c.87-1.007 1.553-1.71 2.05-2.11.496-.399 1.008-.7 1.536-.9a4.934 4.934 0 0 1 2.87-.205c.963.218 1.89.711 2.78 1.48.863.745 1.44 1.566 1.733 2.464.293.898.298 1.863.013 2.895.712-.473 1.389-.663 2.03-.57.641.091 1.482.53 2.524 1.316l2.8 2.095c.595.452 1.081.742 1.457.87.376.13.719.131 1.029.007l.445.385-2.168 2.51c-.508-.086-1.343-.56-2.506-1.426l-.065-.056-2.198-1.671c-1.135-.853-2.027-1.226-2.678-1.117-.65.108-1.638.93-2.964 2.466l-3.04 3.52 6.855 5.92-1.858 2.152-16.003-13.822zm31.365-18.262l1.626-2.261c2.018 1.603 3.17 3.512 3.458 5.728.287 2.216-.323 4.373-1.83 6.472-1.737 2.417-3.922 3.72-6.556 3.907-2.633.188-5.407-.765-8.321-2.86-2.69-1.931-4.308-4.185-4.857-6.759-.548-2.574.054-5.082 1.808-7.522 1.396-1.943 3.04-3.174 4.934-3.693 1.893-.52 3.776-.254 5.649.797l-1.642 2.285c-1.291-.597-2.535-.707-3.731-.33-1.197.378-2.264 1.22-3.202 2.525-1.251 1.741-1.611 3.53-1.08 5.367.53 1.836 1.906 3.553 4.13 5.15 2.098 1.508 4.14 2.218 6.124 2.13 1.984-.09 3.568-.957 4.752-2.605 1.01-1.407 1.402-2.873 1.172-4.399-.23-1.526-1.04-2.836-2.433-3.932zm10.2-1.219l-18.19-10.78 7.684-12.968 2.26 1.34-6.236 10.521 5.434 3.22 5.76-9.718 2.124 1.259-5.76 9.719 6.1 3.615 6.361-10.731 2.272 1.346-7.81 13.177z" style="text-align:center;line-height:125%;-inkscape-font-specification:Swis721 BT" font-size="29.4" font-weight="400" text-anchor="middle" font-family="Swis721 BT"/></svg>
