<svg xmlns="http://www.w3.org/2000/svg" viewBox="0 0 10000 4909.47"><defs><style>.cls-1,.cls-2,.cls-4{fill:none;stroke-miterlimit:10;}.cls-1,.cls-2{stroke:#008fd5;}.cls-1{stroke-linecap:round;stroke-width:25px;stroke-dasharray:0 60;}.cls-2{stroke-width:30px;}.cls-3{fill:#209dda;}.cls-4{stroke:#000;stroke-width:7px;}.cls-5{fill:#c7e2ec;}.cls-6,.cls-7,.cls-9{fill:#008fd5;}.cls-7{font-size:160px;}.cls-7,.cls-9{font-family:PublicSans-SemiBold, Public Sans;font-weight:600;}.cls-8{letter-spacing:-0.02em;}.cls-9{font-size:130px;}.cls-10{letter-spacing:-0.02em;}.cls-11{letter-spacing:-0.03em;}.cls-12{letter-spacing:0.03em;}.cls-13{letter-spacing:-0.01em;}.cls-14{letter-spacing:-0.01em;}.cls-15{letter-spacing:-0.1em;}.cls-16{letter-spacing:0em;}.cls-17{letter-spacing:-0.02em;}.cls-18{letter-spacing:0em;}</style></defs><title>blubble_diagram- blue</title><g id="Layer_1" data-name="Layer 1"><path class="cls-1" d="M1473.79,2256.21a4249,4249,0,0,0,269.12,457.54C2506.86,3844.54,3800.59,4588,5268,4588"/><path class="cls-1" d="M5268,4588c1526.42,0,2864.94-804.5,3614.68-2012.62q30.52-49.18,59.75-99.26"/><path class="cls-1" d="M3825.48,2368.06C4351.66,3180.42,5266.05,3717.93,6306,3717.93"/><path class="cls-1" d="M6306,3717.93c1004.31,0,1891.54-501.33,2425.09-1267.38"/><path class="cls-1" d="M7108.48,2446.68c147.89,211,392.9,349,670.13,349,273.86,0,516.28-134.62,664.69-341.28"/></g><g id="Layer_3" data-name="Layer 3"><path class="cls-2" d="M8358.79,534.86c-147.89-211-392.9-349-670.14-349-273.85,0-516.27,134.62-664.68,341.29"/><polygon class="cls-2" points="8373 573.07 8408.55 504.94 8299.4 537.05 8373 573.07"/><polygon class="cls-3" points="1988.17 1365.46 2642 1365.46 2642 1423.29 2714.12 1351.18 2642 1279.07 2642 1336.9 1988.17 1336.9 1988.17 1365.46"/><polygon class="cls-3" points="4735.42 1354.3 5389.25 1354.3 5389.25 1412.13 5461.37 1340.02 5389.25 1267.91 5389.25 1325.74 4735.42 1325.74 4735.42 1354.3"/><path class="cls-4" d="M1033.14,2187.2c451.64,0,817.77-366.13,817.77-817.77s-366.13-817.77-817.77-817.77S215.37,917.78,215.37,1369.43,581.5,2187.2,1033.14,2187.2"/><path class="cls-5" d="M1087.49,2213.44c446.77,0,809-362.18,809-808.95s-362.18-808.95-808.95-808.95-808.95,362.18-808.95,809,362.18,809,809,809"/><path class="cls-2" d="M991.36,2178.38c446.77,0,808.95-362.18,808.95-808.95S1438.13,560.48,991.36,560.48s-808.95,362.18-808.95,809,362.18,809,809,809"/><path class="cls-4" d="M3726.11,2187.2c451.64,0,817.77-366.13,817.77-817.77s-366.13-817.77-817.77-817.77-817.78,366.12-817.78,817.77,366.13,817.77,817.78,817.77"/><path class="cls-5" d="M3780.46,2188.94c446.77,0,808.95-362.18,808.95-808.95S4227.23,571,3780.46,571s-809,362.18-809,809,362.18,809,809,809"/><path class="cls-2" d="M3684.33,2178.38c446.77,0,808.95-362.18,808.95-808.95S4131.1,560.48,3684.33,560.48s-808.95,362.18-808.95,809,362.18,809,808.95,809"/><path class="cls-5" d="M6432.59,2213.44c446.77,0,808.95-362.18,808.95-808.95s-362.18-808.95-808.95-808.95-808.95,362.18-808.95,809,362.18,809,808.95,809"/><path class="cls-2" d="M6468.39,2188.94c446.77,0,808.95-362.18,808.95-808.95S6915.16,571,6468.39,571s-809,362.18-809,809,362.18,809,809,809"/><path class="cls-5" d="M9008.64,2221.42c446.77,0,809-362.18,809-808.95s-362.18-808.95-809-808.95-808.95,362.18-808.95,809,362.18,809,808.95,809"/><path class="cls-2" d="M8934.55,2213.44c446.77,0,809-362.18,809-808.95s-362.18-808.95-809-808.95-808.95,362.18-808.95,809,362.18,809,808.95,809"/></g><g id="Layer_4" data-name="Layer 4"><polygon class="cls-6" points="1033.14 1409.22 1087.49 1350.76 978.79 1350.76 1033.14 1409.22"/><polygon class="cls-6" points="7061.49 2355.93 7031.68 2429.97 7133.17 2391.05 7061.49 2355.93"/><polygon class="cls-6" points="3811.99 2328.07 3790.76 2405.01 3887.18 2354.83 3811.99 2328.07"/><polygon class="cls-6" points="1462.56 2215.59 1434.85 2290.44 1535.2 2248.66 1462.56 2215.59"/><polygon class="cls-6" points="3726.11 1788.89 3780.45 1730.44 3671.76 1730.44 3726.11 1788.89"/><polygon class="cls-6" points="3726.11 1409.22 3780.45 1350.76 3671.76 1350.76 3726.11 1409.22"/><polygon class="cls-6" points="1033.14 1788.89 1087.49 1730.44 978.79 1730.44 1033.14 1788.89"/><polygon class="cls-6" points="6451.76 1390.99 6506.11 1332.54 6397.41 1332.54 6451.76 1390.99"/><polygon class="cls-6" points="9008.64 1770.66 9062.99 1712.21 8954.29 1712.21 9008.64 1770.66"/><polygon class="cls-6" points="9008.64 1390.99 9062.99 1332.54 8954.29 1332.54 9008.64 1390.99"/><polygon class="cls-6" points="6451.76 1770.66 6506.11 1712.21 6397.41 1712.21 6451.76 1770.66"/><text class="cls-7" transform="translate(628.19 1000.01)">DISC<tspan class="cls-8" x="387.83" y="0">O</tspan><tspan x="506.71" y="0">VER</tspan></text><text class="cls-9" transform="translate(683.18 1263.68)">RESEARCH</text><text class="cls-9" transform="translate(630.01 1629.41)"><tspan class="cls-10">S</tspan><tspan x="88.66" y="0">YNTHESIZE</tspan></text><text class="cls-9" transform="translate(804.27 1961.14)">DEFINE</text><text class="cls-9" transform="translate(3490.29 1263.68)">IDE<tspan class="cls-11" x="213.59" y="0">A</tspan><tspan x="302.25" y="0">TE</tspan></text><text class="cls-9" transform="translate(3330.46 1629.41)">PROTO<tspan class="cls-12" x="450.18" y="0">T</tspan><tspan x="532.34" y="0">YPE</tspan></text><text class="cls-9" transform="translate(3557.44 1961.14)">TE<tspan class="cls-13" x="160.29" y="0">S</tspan><tspan x="250.64" y="0">T</tspan></text><text class="cls-9" transform="translate(6215.88 1263.68)">REFINE</text><text class="cls-9" transform="translate(6258.32 1629.41)">BUIL<tspan class="cls-13" x="295.49" y="0">D</tspan></text><text class="cls-9" transform="translate(6064.56 1961.14)">IMPLEMENT</text><text class="cls-9" transform="translate(8659.33 1263.68)">FEED<tspan class="cls-14" x="335.79" y="0">BA</tspan><tspan x="514.41" y="0">CK</tspan></text><text class="cls-9" transform="translate(8710.03 1629.41)">ANA<tspan class="cls-15" x="286.39" y="0">L</tspan><tspan class="cls-16" x="347.23" y="0">Y</tspan><tspan x="429.65" y="0">ZE</tspan></text><text class="cls-9" transform="translate(8710.36 1961.14)">IMPR<tspan class="cls-17" x="330.2" y="0">O</tspan><tspan x="426.78" y="0">VE</tspan></text><text class="cls-7" transform="translate(3412.04 1000.01)">DESIGN</text><text class="cls-7" transform="translate(6114.96 1000.01)">DELIVER</text><text class="cls-7" transform="translate(8607.93 1000.01)">ME<tspan class="cls-18" x="246.08" y="0">A</tspan><tspan x="360.48" y="0">SURE</tspan></text></g></svg>